var fontJSON2=
{"glyphs":{"0":{"ha":874,"x_min":88,"x_max":974,"o":"m 802 700 q 761 870 820 800 q 602 941 703 941 q 419 870 503 941 q 319 700 336 800 l 260 368 q 301 197 242 268 q 459 127 359 127 q 643 197 559 127 q 743 368 726 268 l 802 700 m 887 368 q 726 96 859 209 q 433 -17 593 -17 q 181 96 274 -17 q 116 368 88 209 l 175 700 q 336 972 203 859 q 628 1085 469 1085 q 881 972 788 1085 q 946 700 974 859 l 887 368 z "},"1":{"ha":968,"x_min":465,"x_max":797,"o":"m 797 1085 l 606 0 l 465 0 l 625 902 l 521 902 l 695 1085 l 797 1085 z "},"2":{"ha":887,"x_min":104,"x_max":943,"o":"m 104 0 q 313 342 188 260 q 526 483 437 425 q 688 608 614 541 q 775 758 761 675 q 742 897 789 840 q 612 955 694 955 q 463 897 531 955 q 371 726 404 848 l 239 777 q 380 998 286 918 q 637 1099 497 1099 q 861 999 779 1099 q 918 758 943 899 q 779 514 893 618 q 614 388 706 448 q 410 252 522 327 q 294 141 312 188 l 809 141 l 784 0 l 104 0 z "},"3":{"ha":887,"x_min":153,"x_max":866,"o":"m 505 559 l 420 561 l 445 700 q 568 712 537 701 q 641 760 600 724 q 690 844 682 797 q 671 923 698 891 q 597 956 644 956 q 513 924 551 956 q 456 841 492 905 l 335 892 q 429 1024 380 984 q 623 1099 517 1099 q 791 1023 730 1099 q 834 844 852 948 q 673 640 816 739 q 787 572 732 636 q 842 328 866 467 q 700 86 817 186 q 441 -14 583 -14 q 218 87 300 -14 q 157 309 153 167 l 306 359 q 337 188 296 237 q 466 130 385 130 q 616 188 548 130 q 699 328 684 245 q 667 473 713 410 q 505 559 620 536 z "},"4":{"ha":916,"x_min":169,"x_max":893,"o":"m 770 1085 l 893 1085 l 778 433 l 873 433 l 849 293 l 753 293 l 702 0 l 562 0 l 613 293 l 169 293 l 770 1085 m 697 768 l 437 433 l 637 433 l 697 768 z "},"5":{"ha":891,"x_min":111,"x_max":898,"o":"m 445 792 q 526 800 484 800 q 667 776 602 800 q 865 578 814 722 q 881 393 898 488 q 842 275 871 334 q 608 40 766 118 q 417 -7 511 -7 q 300 12 357 -7 q 111 176 180 51 l 229 286 q 366 149 285 175 q 441 137 404 137 q 563 167 500 137 q 713 317 664 216 q 739 394 732 356 q 728 511 749 453 q 599 640 694 604 q 504 655 557 655 q 312 619 431 655 l 240 693 l 422 1030 l 431 1085 l 829 1085 l 804 945 l 526 945 l 445 792 z "},"6":{"ha":876,"x_min":95,"x_max":918,"o":"m 262 368 q 303 197 245 268 q 463 127 362 127 q 645 197 562 127 q 746 368 728 268 q 706 539 764 469 q 547 610 647 610 q 364 539 447 610 q 262 368 281 469 m 397 669 q 609 734 469 734 q 826 642 749 734 q 890 368 918 528 q 729 96 862 209 q 437 -17 597 -17 q 184 96 277 -17 q 128 399 95 205 l 129 401 q 292 739 163 593 q 635 1085 422 885 l 820 1085 q 397 669 529 830 z "},"7":{"ha":884,"x_min":104,"x_max":971,"o":"m 971 1085 q 726 675 928 864 q 408 355 524 486 q 247 0 293 224 l 104 0 q 291 424 161 277 q 594 731 421 570 q 787 945 767 893 l 272 945 l 296 1085 l 971 1085 z "},"8":{"ha":878,"x_min":105,"x_max":893,"o":"m 461 130 q 636 188 568 130 q 720 328 705 245 q 687 472 734 410 q 536 557 641 534 q 355 472 423 534 q 273 328 288 410 q 306 188 258 245 q 461 130 353 130 m 436 -14 q 187 86 269 -14 q 130 328 105 186 q 376 640 161 501 q 320 844 302 739 q 426 1023 338 948 q 621 1099 513 1099 l 643 1099 q 811 1023 750 1099 q 854 844 873 948 q 720 642 836 739 q 863 328 893 501 q 720 86 838 186 q 436 -14 603 -14 m 604 955 q 595 956 599 956 q 511 923 549 956 q 465 844 473 891 q 484 760 456 797 q 538 713 512 724 q 563 705 551 707 q 591 713 574 707 q 661 760 620 724 q 710 844 702 797 q 691 923 718 891 q 618 956 665 956 q 610 955 615 956 l 604 955 z "},"9":{"ha":876,"x_min":157,"x_max":981,"o":"m 813 717 q 772 888 831 817 q 613 958 713 958 q 430 888 513 958 q 330 717 347 817 q 370 546 312 616 q 528 475 429 475 q 712 546 629 475 q 813 717 795 616 m 678 416 q 467 351 606 351 q 250 444 326 351 q 186 717 157 557 q 346 989 214 876 q 639 1102 479 1102 q 891 989 798 1102 q 947 686 981 880 l 947 684 q 783 347 913 492 q 440 0 653 200 l 256 0 q 678 416 547 255 z "}," ":{"ha":480,"x_min":0,"x_max":0,"o":""}," ":{"ha":480,"x_min":0,"x_max":0,"o":""},"!":{"ha":367,"x_min":94,"x_max":444,"o":"m 216 188 q 281 159 257 188 q 298 90 305 131 q 256 20 290 48 q 182 -9 222 -9 q 118 20 142 -9 q 101 90 94 48 q 142 159 109 131 q 216 188 176 188 m 444 1085 l 307 309 l 167 309 l 304 1085 l 444 1085 z "},"\"":{"ha":389,"x_min":127,"x_max":563,"o":"m 127 624 l 208 1083 l 348 1083 l 267 624 l 127 624 m 342 624 l 422 1083 l 563 1083 l 482 624 l 342 624 z "},"#":{"ha":1156,"x_min":149,"x_max":1195,"o":"m 716 701 l 773 701 l 891 979 l 1034 979 l 916 701 l 1195 701 l 1134 560 l 856 560 l 830 500 l 1109 500 l 1048 360 l 770 360 l 652 81 l 509 81 l 627 360 l 570 360 l 452 81 l 309 81 l 427 360 l 149 360 l 209 500 l 487 500 l 513 560 l 234 560 l 295 701 l 573 701 l 691 979 l 834 979 l 716 701 m 713 560 l 656 560 l 630 500 l 687 500 l 713 560 z "},"$":{"ha":650,"x_min":90,"x_max":751,"o":"m 401 79 l 387 0 l 262 0 l 276 79 q 146 149 198 94 q 90 322 90 209 l 242 368 q 267 238 237 269 q 300 213 281 222 l 349 494 q 222 579 276 523 q 170 758 151 653 q 286 937 189 862 q 439 1006 357 991 l 454 1085 l 578 1085 l 564 1006 q 694 937 642 991 q 750 764 751 877 l 598 718 q 574 848 604 817 q 541 873 559 863 l 492 592 q 618 507 564 563 q 671 328 689 433 q 555 149 652 224 q 401 79 484 94 m 376 642 l 416 873 q 375 849 395 864 q 317 758 327 812 q 342 668 308 705 q 376 642 355 654 m 465 444 l 425 213 q 466 237 446 222 q 524 328 514 274 q 498 418 533 381 q 465 444 486 431 z "},"%":{"ha":857,"x_min":71,"x_max":951,"o":"m 951 875 l 172 -14 l 71 66 l 850 954 l 951 875 m 389 844 q 512 790 467 844 q 543 658 557 735 q 465 526 530 581 q 323 471 401 471 q 201 526 246 471 q 170 658 157 581 q 248 790 184 735 q 389 844 312 844 m 365 705 q 329 691 345 705 q 309 658 313 677 q 317 624 306 637 q 348 610 328 610 q 385 624 368 610 q 405 658 401 637 q 396 691 408 677 q 365 705 385 705 m 699 469 q 822 415 777 469 q 852 283 867 360 q 775 150 839 205 q 633 96 711 96 q 510 150 555 96 q 479 283 465 205 q 557 415 493 360 q 699 469 621 469 m 674 330 q 638 316 654 330 q 618 283 622 302 q 626 249 614 262 q 657 235 637 235 q 693 249 677 235 q 713 283 710 262 q 706 316 718 302 q 674 330 694 330 z "},"&":{"ha":909,"x_min":84,"x_max":918,"o":"m 852 528 q 916 421 908 492 q 913 374 918 397 q 875 288 906 328 q 740 199 827 223 q 644 88 716 149 q 387 -12 528 -12 q 166 88 248 -12 q 109 328 84 187 q 249 570 134 467 q 367 633 317 627 q 299 844 281 739 q 405 1023 317 948 q 597 1097 492 1097 q 764 1023 703 1097 q 812 894 799 983 l 675 844 q 648 925 663 906 q 572 958 620 958 q 487 925 526 958 q 439 844 448 892 q 459 759 431 796 q 515 710 488 722 q 633 698 543 699 l 610 563 l 527 562 q 332 474 402 538 q 248 328 262 410 q 281 186 233 245 q 412 128 330 128 q 606 224 494 128 q 550 290 589 240 q 526 313 535 307 q 511 319 517 319 l 511 319 q 500 312 504 319 q 498 307 498 309 q 498 296 497 302 l 370 218 q 356 266 359 239 q 358 307 355 287 q 392 382 365 346 q 496 453 433 437 q 540 459 519 459 q 610 439 578 459 q 667 375 637 422 q 730 325 697 329 q 739 324 734 324 q 779 348 764 324 q 784 361 783 354 q 761 408 788 382 l 852 528 z "},"'":{"ha":311,"x_min":195,"x_max":416,"o":"m 195 624 l 275 1083 l 416 1083 l 335 624 l 195 624 z "},"(":{"ha":534,"x_min":113,"x_max":674,"o":"m 649 1034 q 466 910 541 987 q 296 543 338 779 q 336 175 255 306 q 475 49 384 97 l 451 -90 q 220 82 289 -31 q 163 543 113 253 q 382 1003 215 832 q 674 1175 491 1116 l 649 1034 z "},")":{"ha":534,"x_min":52,"x_max":614,"o":"m 275 1175 q 507 1003 437 1116 q 563 543 614 832 q 345 82 511 253 q 52 -90 235 -31 l 77 49 q 260 175 185 97 q 430 543 388 306 q 390 910 471 779 q 250 1034 342 987 l 275 1175 z "},"*":{"ha":632,"x_min":197,"x_max":728,"o":"m 557 968 l 667 1043 l 728 928 l 585 833 l 694 739 l 593 623 l 509 698 l 489 583 l 349 583 l 369 699 l 257 623 l 197 739 l 340 833 l 230 928 l 331 1043 l 416 968 l 437 1083 l 577 1083 l 557 968 z "},"+":{"ha":754,"x_min":85,"x_max":669,"o":"m 307 342 l 85 342 l 85 483 l 307 483 l 307 705 l 448 705 l 448 483 l 669 483 l 669 342 l 448 342 l 448 120 l 307 120 l 307 342 z "},",":{"ha":364,"x_min":-18,"x_max":330,"o":"m 330 189 l 116 -137 l -18 -137 l 127 189 l 330 189 z "},"-":{"ha":623,"x_min":145,"x_max":623,"o":"m 170 483 l 623 483 l 598 342 l 145 342 l 170 483 z "},"­":{"ha":623,"x_min":145,"x_max":623,"o":"m 170 483 l 623 483 l 598 342 l 145 342 l 170 483 z "},".":{"ha":332,"x_min":77,"x_max":288,"o":"m 199 188 q 264 159 240 188 q 281 90 288 131 q 239 20 273 48 q 165 -9 205 -9 q 101 20 125 -9 q 84 90 77 48 q 125 159 92 131 q 199 188 159 188 z "},"/":{"ha":580,"x_min":-34,"x_max":805,"o":"m 648 1085 l 805 1085 l 122 0 l -34 0 l 648 1085 z "},":":{"ha":367,"x_min":94,"x_max":373,"o":"m 216 188 q 281 159 257 188 q 298 90 305 131 q 256 20 290 48 q 182 -9 222 -9 q 118 20 142 -9 q 101 90 94 48 q 142 159 109 131 q 216 188 176 188 m 285 574 q 349 545 326 574 q 366 476 373 517 q 325 406 358 434 q 250 377 291 377 q 186 406 210 377 q 169 476 161 434 q 211 545 176 517 q 285 574 245 574 z "},";":{"ha":431,"x_min":32,"x_max":383,"o":"m 380 189 l 165 -137 l 32 -137 l 176 189 l 380 189 m 295 574 q 359 545 335 574 q 376 476 383 517 q 334 406 368 434 q 260 377 300 377 q 196 406 220 377 q 179 476 172 434 q 220 545 186 517 q 295 574 254 574 z "},";":{"ha":431,"x_min":32,"x_max":383,"o":"m 380 189 l 165 -137 l 32 -137 l 176 189 l 380 189 m 295 574 q 359 545 335 574 q 376 476 383 517 q 334 406 368 434 q 260 377 300 377 q 196 406 220 377 q 179 476 172 434 q 220 545 186 517 q 295 574 254 574 z "},"<":{"ha":1020,"x_min":68,"x_max":951,"o":"m 951 73 l 68 395 l 951 716 l 951 566 l 479 395 l 951 222 l 951 73 z "},"=":{"ha":754,"x_min":85,"x_max":669,"o":"m 85 583 l 669 583 l 669 442 l 85 442 l 85 583 m 85 382 l 669 382 l 669 242 l 85 242 l 85 382 z "},">":{"ha":1020,"x_min":68,"x_max":951,"o":"m 68 222 l 541 395 l 68 566 l 68 716 l 951 395 l 68 73 l 68 222 z "},"?":{"ha":697,"x_min":163,"x_max":742,"o":"m 229 804 q 270 903 237 854 q 438 1033 333 998 q 526 1048 484 1048 q 631 1022 582 1048 q 735 878 718 977 q 734 793 742 836 q 689 684 724 737 q 522 522 631 595 q 401 393 447 464 q 365 309 373 351 l 225 309 q 286 453 239 382 q 481 647 360 566 q 573 745 542 698 q 593 794 589 770 q 594 831 597 812 q 547 897 585 876 q 500 908 525 908 q 461 901 482 908 q 386 844 414 886 q 370 805 377 831 l 220 759 l 229 804 m 368 90 q 326 20 360 48 q 252 -9 292 -9 q 187 20 211 -9 q 171 90 163 48 q 212 159 178 131 q 286 188 245 188 q 351 159 326 188 q 368 90 375 131 z "},"@":{"ha":1114,"x_min":118,"x_max":1131,"o":"m 748 349 l 761 422 q 737 480 760 453 q 650 519 705 519 q 550 480 595 519 q 494 386 504 441 q 516 292 484 330 q 603 253 548 253 q 704 292 659 253 q 748 349 736 319 m 720 199 q 583 144 675 144 q 404 210 471 144 q 356 387 336 275 q 467 566 376 497 q 669 635 558 635 q 789 585 768 635 l 795 621 l 930 621 l 869 283 l 869 281 q 873 245 862 245 q 905 270 882 245 q 973 438 953 325 q 922 637 993 551 q 684 722 851 722 q 418 637 518 722 q 291 398 318 551 q 345 146 264 245 q 566 47 427 47 q 737 90 661 47 l 816 -11 q 542 -87 671 -87 q 233 51 347 -87 q 153 385 118 190 q 350 719 186 580 q 709 857 514 857 q 1018 718 905 857 q 1106 436 1131 579 q 991 204 1081 293 q 844 132 918 132 q 811 136 827 132 q 720 199 720 155 z "},"A":{"ha":933,"x_min":34,"x_max":899,"o":"m 652 524 l 604 779 l 467 524 l 652 524 m 696 1085 l 899 0 l 750 0 l 678 384 l 391 384 l 184 0 l 34 0 l 620 1085 l 696 1085 z "},"B":{"ha":764,"x_min":102,"x_max":799,"o":"m 513 1085 q 662 1018 607 1085 q 701 857 718 951 q 583 737 684 760 q 725 637 651 727 q 771 387 799 547 q 610 112 743 228 q 380 1 486 3 l 380 0 l 102 0 l 293 1085 l 513 1085 m 353 629 l 267 141 l 405 141 l 405 143 q 525 213 449 146 q 627 387 609 286 q 586 558 645 487 q 428 629 528 629 l 353 629 m 409 945 l 378 773 l 470 773 q 528 797 502 776 q 563 857 556 819 q 549 920 570 895 q 488 945 528 945 l 409 945 z "},"C":{"ha":1114,"x_min":140,"x_max":1208,"o":"m 987 258 l 1075 164 q 637 -12 852 -12 q 273 151 407 -12 q 180 543 140 313 q 411 935 220 772 q 832 1097 602 1097 q 1208 922 1047 1097 l 1086 826 q 807 955 964 955 q 494 834 637 955 q 322 543 352 713 q 391 250 292 371 q 661 130 491 130 q 987 258 819 130 z "},"D":{"ha":848,"x_min":102,"x_max":916,"o":"m 408 942 l 267 142 q 561 250 435 142 q 733 543 703 371 q 664 835 763 713 q 408 942 576 942 m 396 1085 q 782 935 661 1084 q 875 543 916 772 q 644 150 834 313 q 205 0 469 1 l 102 0 l 293 1085 l 396 1085 z "},"E":{"ha":771,"x_min":102,"x_max":878,"o":"m 878 1085 l 853 945 l 409 945 l 350 613 l 794 613 l 770 473 l 326 473 l 267 141 l 711 141 l 686 0 l 102 0 l 293 1085 l 878 1085 z "},"F":{"ha":709,"x_min":102,"x_max":815,"o":"m 815 1085 l 791 945 l 409 945 l 350 613 l 732 613 l 707 473 l 326 473 l 242 0 l 102 0 l 293 1085 l 815 1085 z "},"G":{"ha":1131,"x_min":140,"x_max":1208,"o":"m 1048 149 q 637 -12 852 -12 q 273 151 407 -12 q 180 543 140 313 q 411 935 220 772 q 832 1097 602 1097 q 1208 922 1047 1097 l 1086 826 q 807 955 964 955 q 494 834 637 955 q 322 543 352 713 q 391 250 292 371 q 661 130 491 130 q 918 207 808 130 l 976 534 l 1116 534 l 1048 149 z "},"H":{"ha":819,"x_min":102,"x_max":909,"o":"m 321 449 l 242 0 l 102 0 l 293 1085 l 433 1085 l 346 589 l 681 589 l 768 1085 l 909 1085 l 718 0 l 577 0 l 656 449 l 321 449 z "},"I":{"ha":372,"x_min":115,"x_max":447,"o":"m 447 1085 l 256 0 l 115 0 l 307 1085 l 447 1085 z "},"J":{"ha":635,"x_min":106,"x_max":721,"o":"m 570 233 q 478 58 551 120 q 307 -9 401 -9 q 160 57 214 -9 q 126 233 106 123 l 245 277 q 271 150 245 174 q 326 132 289 132 l 328 132 q 397 157 367 132 q 431 239 420 178 l 581 1085 l 721 1085 l 570 233 z "},"K":{"ha":818,"x_min":102,"x_max":867,"o":"m 332 512 l 242 0 l 102 0 l 293 1085 l 433 1085 l 373 743 l 690 1085 l 867 1085 l 456 639 l 758 0 l 587 0 l 344 524 l 332 512 z "},"L":{"ha":691,"x_min":102,"x_max":655,"o":"m 102 0 l 293 1085 l 433 1085 l 267 141 l 655 141 l 630 0 l 102 0 z "},"M":{"ha":1229,"x_min":135,"x_max":1285,"o":"m 454 1085 l 699 477 l 1157 1085 l 1285 1085 l 1094 0 l 954 0 l 1092 784 l 650 198 l 414 784 l 275 0 l 135 0 l 326 1085 l 454 1085 z "},"N":{"ha":920,"x_min":102,"x_max":1010,"o":"m 293 1085 l 421 1085 l 732 311 l 869 1085 l 1010 1085 l 819 0 l 696 0 l 380 784 l 242 0 l 102 0 l 293 1085 z "},"O":{"ha":1281,"x_min":140,"x_max":1333,"o":"m 834 1099 q 1198 937 1064 1099 q 1292 544 1333 774 q 1060 151 1251 314 q 638 -12 868 -12 q 274 151 408 -12 q 181 544 140 314 q 413 937 222 774 q 834 1099 604 1099 m 809 958 q 495 837 637 958 q 323 544 353 715 q 392 251 292 372 q 663 130 492 130 q 977 251 835 130 q 1150 544 1120 372 q 1080 837 1180 715 q 809 958 981 958 z "},"P":{"ha":777,"x_min":102,"x_max":892,"o":"m 303 347 l 242 0 l 102 0 l 293 1085 l 601 1085 q 803 977 729 1067 q 865 717 892 869 q 711 455 838 564 q 431 347 584 347 l 303 347 m 408 944 l 328 488 l 456 488 q 629 555 550 488 q 724 717 707 622 q 685 878 741 811 q 536 944 630 944 l 408 944 z "},"Q":{"ha":1281,"x_min":140,"x_max":1333,"o":"m 809 958 q 495 837 637 958 q 323 544 353 715 q 392 251 292 372 q 663 130 492 130 q 977 251 835 130 q 1150 544 1120 372 q 1080 837 1180 715 q 809 958 981 958 m 879 37 q 907 16 893 28 q 966 -15 951 -9 q 981 -17 974 -17 q 1005 -10 992 -17 q 1033 20 1024 0 q 1047 70 1036 26 l 1189 70 q 1162 -18 1172 3 q 1052 -132 1127 -94 q 957 -157 1004 -157 q 905 -149 930 -157 q 800 -91 864 -138 q 725 -54 747 -60 q 701 -50 713 -50 q 660 -61 681 -50 q 610 -114 626 -79 q 597 -159 608 -117 l 456 -159 q 481 -75 473 -94 q 530 -1 500 -33 q 275 151 375 29 q 181 544 140 314 q 413 937 222 774 q 834 1099 604 1099 q 1198 937 1064 1099 q 1292 544 1333 774 q 1060 151 1251 314 q 879 37 974 78 z "},"R":{"ha":794,"x_min":102,"x_max":892,"o":"m 408 944 l 328 488 l 456 488 q 629 555 550 488 q 724 717 707 622 q 685 878 741 811 q 536 944 630 944 l 408 944 m 431 347 l 303 347 l 242 0 l 102 0 l 293 1085 l 601 1085 q 803 977 729 1067 q 865 717 892 869 q 711 455 838 564 q 582 371 623 380 l 758 0 l 587 0 l 431 347 z "},"S":{"ha":747,"x_min":85,"x_max":795,"o":"m 476 557 q 309 667 368 595 q 269 844 250 739 q 374 1023 287 948 q 568 1097 462 1097 q 734 1023 672 1097 q 781 894 768 983 l 645 844 q 617 925 633 906 q 543 958 589 958 q 456 925 495 958 q 409 844 417 892 q 428 764 401 797 q 519 696 458 727 q 713 566 640 655 q 770 328 795 468 q 628 88 745 187 q 372 -12 511 -12 q 150 88 231 -12 q 88 307 85 168 l 233 357 q 267 186 225 237 q 397 128 315 128 q 547 186 479 128 q 631 328 616 245 q 597 468 645 410 q 476 557 551 524 z "},"T":{"ha":715,"x_min":201,"x_max":872,"o":"m 595 945 l 428 0 l 287 0 l 454 945 l 201 945 l 225 1085 l 872 1085 l 848 945 l 595 945 z "},"U":{"ha":941,"x_min":138,"x_max":1031,"o":"m 890 1085 l 1031 1085 l 896 321 q 749 100 854 190 q 469 -9 622 -9 q 228 99 317 -9 q 165 360 138 208 l 293 1085 l 434 1085 l 307 360 q 345 200 290 267 q 494 133 400 133 q 667 199 589 133 q 762 360 745 266 l 890 1085 z "},"V":{"ha":933,"x_min":225,"x_max":1090,"o":"m 428 0 l 225 1085 l 374 1085 l 520 307 l 941 1085 l 1090 1085 l 504 0 l 428 0 z "},"W":{"ha":1143,"x_min":115,"x_max":1250,"o":"m 537 203 l 692 1085 l 833 1085 l 677 203 q 695 174 682 191 q 792 132 732 132 q 904 175 852 132 q 966 279 956 218 l 1109 1085 l 1250 1085 l 1107 273 q 987 77 1084 159 q 768 -9 888 -9 q 585 75 648 -9 q 372 -9 492 -9 q 183 77 252 -9 q 133 273 115 158 l 276 1085 l 416 1085 l 274 279 q 300 175 264 218 q 397 132 336 132 q 509 174 458 132 q 537 203 529 191 z "},"X":{"ha":913,"x_min":34,"x_max":1013,"o":"m 34 0 l 479 592 l 282 1085 l 444 1085 l 585 732 l 852 1085 l 1013 1085 l 641 592 l 879 0 l 718 0 l 536 452 l 195 0 l 34 0 z "},"Y":{"ha":959,"x_min":225,"x_max":1116,"o":"m 486 435 l 225 1085 l 387 1085 l 583 594 l 954 1085 l 1116 1085 l 626 435 l 549 0 l 409 0 l 486 435 z "},"Z":{"ha":992,"x_min":102,"x_max":1081,"o":"m 814 945 l 300 945 l 324 1085 l 1081 1085 l 369 141 l 884 141 l 859 0 l 102 0 l 814 945 z "},"[":{"ha":447,"x_min":43,"x_max":553,"o":"m 208 -94 l 345 -94 l 321 -234 l 43 -234 l 275 1082 l 553 1082 l 528 942 l 391 942 l 208 -94 z "},"\\":{"ha":578,"x_min":157,"x_max":612,"o":"m 612 0 l 456 0 l 157 1082 l 313 1082 l 612 0 z "},"]":{"ha":447,"x_min":43,"x_max":553,"o":"m 388 942 l 251 942 l 275 1082 l 553 1082 l 321 -234 l 43 -234 l 68 -94 l 205 -94 l 388 942 z "},"^":{"ha":731,"x_min":68,"x_max":663,"o":"m 422 1082 l 663 665 l 501 665 l 366 899 l 231 665 l 68 665 l 309 1082 l 422 1082 z "},"_":{"ha":742,"x_min":4,"x_max":736,"o":"m 28 65 l 736 65 l 712 -75 l 4 -75 l 28 65 z "},"`":{"ha":454,"x_min":236,"x_max":521,"o":"m 521 765 l 387 765 l 236 954 l 407 954 l 521 765 z "},"a":{"ha":950,"x_min":121,"x_max":970,"o":"m 762 316 l 781 419 q 736 538 780 485 q 578 609 677 609 q 394 538 477 609 q 294 368 311 468 q 334 197 276 268 q 493 126 393 126 q 676 197 593 126 q 762 316 739 250 m 821 649 l 829 698 l 970 698 l 848 -1 l 707 -1 l 722 87 q 467 -18 602 -18 q 214 95 307 -18 q 150 368 121 208 q 311 641 178 528 q 604 753 444 753 q 821 649 738 753 z "},"b":{"ha":949,"x_min":102,"x_max":958,"o":"m 317 422 l 297 313 q 342 197 299 250 q 501 127 401 127 q 685 197 602 127 q 786 368 768 268 q 745 539 804 468 q 587 610 687 610 q 402 539 486 610 q 317 422 341 487 m 258 87 l 242 0 l 102 0 l 293 1085 l 433 1085 l 357 650 q 612 755 477 755 q 865 642 772 755 q 930 368 958 528 q 768 95 901 208 q 475 -18 635 -18 q 258 87 340 -18 z "},"c":{"ha":856,"x_min":98,"x_max":892,"o":"m 696 239 l 828 189 q 737 95 764 118 q 444 -18 604 -18 q 191 95 284 -18 q 126 368 98 208 q 287 642 154 528 q 580 755 420 755 q 833 642 740 755 q 892 549 852 618 l 742 497 q 713 540 721 530 q 555 610 655 610 q 372 539 455 610 q 271 368 288 469 q 311 198 253 269 q 469 127 370 127 q 653 197 570 127 q 696 239 664 207 z "},"d":{"ha":950,"x_min":121,"x_max":1040,"o":"m 763 316 l 781 420 q 736 539 781 486 q 578 610 679 610 q 395 539 478 610 q 294 368 311 468 q 334 197 276 268 q 493 127 393 127 q 676 197 593 127 q 763 316 739 251 m 822 650 l 899 1085 l 1040 1085 l 848 0 l 707 0 l 722 87 q 467 -18 602 -18 q 214 95 307 -18 q 150 368 121 208 q 311 642 178 528 q 604 755 444 755 q 822 650 739 755 z "},"e":{"ha":856,"x_min":98,"x_max":865,"o":"m 347 158 q 469 127 376 127 q 653 197 570 127 q 696 239 664 207 l 828 189 q 737 95 764 118 q 444 -18 604 -18 q 191 95 284 -18 q 126 368 98 208 q 287 642 154 528 q 580 755 420 755 q 806 672 717 755 q 833 642 820 658 q 865 599 839 635 l 781 528 l 347 158 m 658 592 q 555 610 637 610 q 372 539 455 610 q 271 368 288 469 q 270 262 256 286 l 658 592 z "},"f":{"ha":425,"x_min":123,"x_max":642,"o":"m 363 558 l 264 -1 l 123 -1 l 222 558 l 159 558 l 184 699 l 247 699 l 269 824 q 361 973 289 911 q 520 1033 436 1033 q 642 1004 562 1033 l 572 871 q 501 896 517 896 q 442 872 473 896 q 409 819 416 850 l 388 699 l 513 699 l 488 558 l 363 558 z "},"g":{"ha":953,"x_min":110,"x_max":971,"o":"m 781 422 q 736 539 779 487 q 578 610 678 610 q 394 539 477 610 q 294 368 311 468 q 334 197 275 268 q 493 126 393 126 q 676 197 593 126 q 762 312 737 249 l 781 422 m 822 650 l 830 698 l 971 698 l 880 179 q 714 -135 844 -24 q 423 -235 583 -235 q 168 -135 263 -235 q 110 -41 149 -112 l 258 9 q 288 -33 280 -24 q 446 -104 347 -104 q 717 116 614 -104 q 469 -12 629 -12 q 215 98 309 -12 q 150 368 121 208 q 311 641 178 528 q 604 754 444 754 q 822 650 739 754 z "},"h":{"ha":763,"x_min":102,"x_max":761,"o":"m 293 1085 l 434 1085 l 353 623 q 543 736 431 736 q 708 655 655 736 q 741 454 761 575 l 661 0 l 521 0 l 600 448 q 584 552 610 509 q 484 595 557 595 q 331 501 396 595 l 243 0 l 102 0 l 293 1085 z "},"i":{"ha":367,"x_min":113,"x_max":446,"o":"m 376 698 l 254 0 l 113 0 l 236 698 l 376 698 m 357 985 q 421 956 397 985 q 438 886 446 928 q 397 817 431 845 q 322 788 363 788 q 258 817 282 788 q 241 886 234 845 q 282 956 248 928 q 357 985 317 985 z "},"j":{"ha":380,"x_min":7,"x_max":441,"o":"m 32 -7 q 117 41 109 1 l 233 698 l 373 698 l 257 42 q 7 -146 227 -130 l 32 -7 m 353 985 q 417 956 393 985 q 435 886 441 928 q 393 817 427 845 q 318 788 359 788 q 254 817 278 788 q 237 886 230 845 q 278 956 244 928 q 353 985 313 985 z "},"k":{"ha":640,"x_min":102,"x_max":655,"o":"m 655 698 l 425 465 l 606 0 l 439 0 l 310 348 l 303 340 l 243 0 l 102 0 l 271 960 l 412 960 l 342 565 l 474 698 l 655 698 z "},"l":{"ha":345,"x_min":102,"x_max":434,"o":"m 434 1086 l 243 0 l 102 0 l 293 1086 l 434 1086 z "},"m":{"ha":962,"x_min":102,"x_max":989,"o":"m 224 698 l 365 698 l 354 633 q 528 735 412 735 q 637 618 644 735 q 841 735 691 735 q 957 555 989 735 l 859 0 l 718 0 l 805 491 q 739 594 823 594 q 675 570 705 594 q 621 406 646 545 l 550 0 l 410 0 l 497 491 q 431 594 515 594 q 367 570 396 594 q 323 458 342 549 l 242 0 l 102 0 l 224 698 z "},"n":{"ha":772,"x_min":102,"x_max":768,"o":"m 333 511 l 243 0 l 102 0 l 224 698 l 366 698 l 351 616 q 549 736 416 736 q 715 655 663 736 q 749 454 768 575 l 669 0 l 528 0 l 608 448 q 582 552 618 509 q 484 595 545 595 q 372 553 424 595 q 333 511 343 528 z "},"o":{"ha":894,"x_min":98,"x_max":926,"o":"m 580 755 q 833 642 740 755 q 898 368 926 528 q 736 95 869 208 q 444 -18 604 -18 q 191 95 284 -18 q 126 368 98 208 q 287 642 154 528 q 580 755 420 755 m 555 610 q 371 539 454 610 q 270 368 288 468 q 311 197 252 268 q 469 127 369 127 q 653 197 570 127 q 754 368 736 268 q 713 539 772 468 q 555 610 655 610 z "},"p":{"ha":932,"x_min":60,"x_max":958,"o":"m 317 422 l 297 313 q 342 197 299 249 q 501 126 401 126 q 685 197 602 126 q 786 368 768 268 q 745 539 804 468 q 587 610 687 610 q 403 539 486 610 q 317 422 341 487 m 258 87 l 201 -235 l 60 -235 l 224 698 l 365 698 l 354 635 q 612 754 477 754 q 865 641 772 754 q 930 368 958 528 q 768 95 901 208 q 475 -18 635 -18 q 258 87 340 -18 z "},"q":{"ha":933,"x_min":104,"x_max":954,"o":"m 746 316 l 764 420 q 720 539 764 486 q 562 610 662 610 q 378 539 461 610 q 277 368 294 468 q 317 197 259 268 q 476 126 376 126 q 659 197 576 126 q 746 316 722 250 m 805 650 l 813 698 l 954 698 l 790 -235 l 649 -235 l 705 87 q 450 -18 585 -18 q 197 95 290 -18 q 133 368 104 208 q 294 641 161 528 q 587 754 427 754 q 805 650 722 754 z "},"r":{"ha":470,"x_min":102,"x_max":562,"o":"m 349 604 q 562 715 446 710 l 536 570 q 405 520 458 566 q 305 359 325 452 l 242 0 l 102 0 l 224 698 l 365 698 l 349 604 z "},"s":{"ha":598,"x_min":113,"x_max":597,"o":"m 258 194 q 269 150 259 163 q 325 125 290 125 q 389 150 359 125 q 424 210 418 174 q 410 269 430 245 q 347 321 396 286 q 252 395 278 363 q 220 528 205 450 q 299 663 233 607 q 443 719 364 719 q 564 666 522 719 q 597 583 595 629 l 454 543 q 448 566 452 560 q 418 578 439 578 q 381 563 398 578 q 360 528 363 549 q 368 494 356 508 q 419 452 379 481 q 526 368 495 406 q 564 210 581 302 q 471 51 548 117 q 300 -16 393 -16 q 153 51 207 -16 q 113 164 115 96 l 258 194 z "},"t":{"ha":514,"x_min":159,"x_max":575,"o":"m 309 698 l 356 960 l 496 960 l 450 698 l 575 698 l 551 557 l 425 557 l 327 0 l 186 0 l 285 557 l 159 557 l 184 698 l 309 698 z "},"u":{"ha":788,"x_min":130,"x_max":809,"o":"m 395 -9 q 197 71 263 -9 q 150 273 130 152 l 224 698 l 366 698 l 292 279 q 317 175 281 218 q 420 132 354 132 q 532 175 480 132 q 595 279 584 218 l 669 698 l 809 698 l 734 273 q 616 71 711 152 q 395 -9 522 -9 z "},"v":{"ha":806,"x_min":157,"x_max":894,"o":"m 367 0 l 157 698 l 315 698 l 445 245 l 735 698 l 894 698 l 437 0 l 367 0 z "},"w":{"ha":962,"x_min":125,"x_max":982,"o":"m 446 207 l 532 698 l 673 698 l 589 218 q 603 156 582 181 q 658 132 623 132 q 760 235 741 132 l 841 698 l 982 698 l 896 209 q 804 57 877 119 q 633 -9 726 -9 q 490 56 539 -9 q 324 -9 417 -9 q 177 57 231 -9 q 138 209 125 119 l 224 698 l 365 698 l 283 235 q 349 132 265 132 q 414 156 384 132 q 446 207 438 177 z "},"x":{"ha":699,"x_min":51,"x_max":737,"o":"m 737 698 l 497 379 l 648 0 l 486 0 l 391 235 l 214 0 l 51 0 l 337 379 l 209 698 l 371 698 l 442 524 l 574 698 l 737 698 z "},"y":{"ha":772,"x_min":83,"x_max":843,"o":"m 232 -235 l 83 -235 l 338 155 l 174 698 l 332 698 l 441 316 l 686 698 l 843 698 l 232 -235 z "},"z":{"ha":763,"x_min":102,"x_max":784,"o":"m 517 557 l 231 557 l 255 698 l 784 698 l 368 141 l 680 141 l 654 0 l 102 0 l 517 557 z "},"{":{"ha":638,"x_min":145,"x_max":743,"o":"m 175 508 l 286 508 q 377 608 348 544 q 402 692 395 647 q 408 741 407 716 q 415 832 408 789 q 441 922 423 880 q 568 1053 481 1008 q 679 1082 623 1082 q 743 1074 694 1082 l 720 942 q 657 951 665 951 q 612 940 635 951 q 562 887 578 922 q 543 820 550 858 q 538 787 540 803 q 531 687 540 737 q 496 573 521 629 q 391 422 444 458 q 444 275 432 391 q 438 161 449 220 q 411 62 429 111 q 404 28 406 45 q 399 -39 397 -9 q 431 -91 402 -73 q 473 -103 451 -103 q 536 -96 480 -103 l 514 -226 q 447 -234 462 -234 q 346 -205 391 -234 q 267 -73 275 -160 q 271 17 263 -31 q 296 107 279 60 q 308 157 304 132 q 313 241 316 201 q 256 340 306 304 l 145 340 l 175 508 z "},"|":{"ha":344,"x_min":60,"x_max":433,"o":"m 433 1082 l 201 -234 l 60 -234 l 292 1082 l 433 1082 z "},"}":{"ha":638,"x_min":45,"x_max":643,"o":"m 613 340 l 503 340 q 410 241 439 304 q 385 157 393 201 q 380 107 381 132 q 373 17 380 60 q 346 -73 365 -31 q 220 -205 307 -160 q 109 -234 165 -234 q 45 -226 94 -234 l 68 -96 q 129 -103 121 -103 q 176 -91 151 -103 q 225 -39 210 -73 q 245 28 238 -9 q 250 62 248 45 q 257 161 248 111 q 291 275 267 220 q 397 422 343 391 q 344 573 355 458 q 349 687 339 629 q 377 787 358 737 q 385 820 381 803 q 388 887 391 858 q 357 940 386 922 q 317 951 338 951 q 251 942 309 951 l 274 1074 q 341 1082 326 1082 q 442 1053 397 1082 q 521 922 513 1008 q 517 832 525 880 q 492 741 509 789 q 480 692 484 716 q 475 608 472 647 q 532 508 481 544 l 643 508 l 613 340 z "},"~":{"ha":899,"x_min":85,"x_max":814,"o":"m 469 616 q 618 553 577 553 l 625 553 q 664 591 652 562 q 670 673 670 607 l 814 650 q 793 538 808 575 q 671 422 758 451 q 623 415 648 415 q 428 482 546 415 q 278 545 319 545 l 273 545 q 233 507 245 536 q 225 425 227 490 l 85 448 q 103 559 88 522 q 227 676 139 647 q 275 683 249 683 q 469 616 352 683 z "},"¡":{"ha":367,"x_min":44,"x_max":395,"o":"m 271 501 q 207 530 231 501 q 191 599 183 558 q 232 669 198 641 q 306 698 265 698 q 370 669 346 698 q 387 599 395 641 q 346 530 380 558 q 271 501 311 501 m 44 -396 l 181 380 l 321 380 l 184 -396 l 44 -396 z "},"¢":{"ha":753,"x_min":168,"x_max":833,"o":"m 526 524 q 616 577 555 525 q 658 616 625 584 l 784 567 q 699 479 720 498 q 501 385 589 386 l 484 288 l 344 288 l 363 395 q 246 478 304 406 q 192 705 168 572 q 326 931 215 837 q 472 1014 410 1002 l 491 1121 l 631 1121 l 614 1025 q 778 930 701 1023 q 833 844 793 911 l 689 793 q 662 833 667 826 q 589 885 619 884 l 526 524 m 447 867 q 332 705 349 807 q 389 541 315 610 l 447 867 z "},"£":{"ha":823,"x_min":78,"x_max":834,"o":"m 450 345 q 326 106 423 191 q 453 142 387 142 q 489 139 471 142 q 624 127 574 127 q 755 148 669 127 l 757 9 q 599 -14 659 -14 q 479 1 538 -14 q 382 13 424 13 q 321 5 347 13 q 159 -62 255 -18 l 78 59 q 222 174 200 153 q 311 347 292 243 l 163 347 l 187 486 l 304 486 q 287 542 304 488 q 243 772 234 661 q 248 800 245 786 q 347 983 265 902 q 559 1084 437 1072 q 587 1084 574 1084 q 758 1017 688 1084 q 825 823 834 940 q 821 791 824 806 q 767 667 813 743 l 644 711 q 680 797 675 772 q 682 811 682 804 q 648 909 687 870 q 562 943 613 943 q 548 942 555 943 q 440 891 487 937 q 391 800 399 850 q 389 785 389 792 q 406 642 382 722 q 452 486 447 552 l 583 486 l 559 347 l 450 345 z "},"¤":{"ha":823,"x_min":158,"x_max":932,"o":"m 435 1011 q 597 1052 492 1052 q 745 1011 703 1052 l 850 1101 l 932 1001 l 827 911 q 840 756 859 862 q 772 602 822 651 l 846 512 l 729 412 l 655 502 q 493 461 599 461 q 345 502 388 461 l 240 412 l 158 512 l 263 602 q 250 756 231 651 q 318 911 269 862 l 244 1001 l 361 1101 l 435 1011 m 660 881 q 572 911 625 911 q 475 881 519 911 q 455 867 464 874 q 437 849 446 859 q 389 756 399 809 q 404 664 380 703 q 416 647 409 655 q 431 632 423 638 q 517 602 465 602 q 616 632 570 602 q 635 647 626 639 q 652 664 645 654 q 700 756 691 703 q 686 849 709 809 q 674 867 680 859 q 660 881 668 873 z "},"¥":{"ha":959,"x_min":218,"x_max":1116,"o":"m 454 515 l 225 1085 l 387 1085 l 583 594 l 954 1085 l 1116 1085 l 686 515 l 863 515 l 838 374 l 615 374 l 604 315 l 827 315 l 802 174 l 580 174 l 549 0 l 409 0 l 439 174 l 218 174 l 242 315 l 464 315 l 475 374 l 253 374 l 278 515 l 454 515 z "},"¦":{"ha":344,"x_min":60,"x_max":433,"o":"m 433 1082 l 325 469 l 184 469 l 292 1082 l 433 1082 m 309 380 l 201 -234 l 60 -234 l 169 380 l 309 380 z "},"§":{"ha":817,"x_min":163,"x_max":847,"o":"m 666 337 l 667 337 q 684 414 670 337 q 650 555 698 496 q 529 644 604 610 q 365 751 421 682 l 346 760 l 345 760 q 327 682 341 760 q 361 542 313 600 q 481 453 406 486 q 646 346 589 414 l 666 337 m 322 930 q 428 1108 340 1034 q 620 1182 515 1182 q 786 1108 725 1182 q 834 979 821 1068 l 698 929 q 671 1010 686 991 q 595 1043 643 1043 q 510 1010 549 1043 q 463 930 471 977 q 481 850 454 883 q 573 783 513 813 q 766 652 692 741 q 823 414 847 554 q 688 166 798 274 q 584 -12 671 63 q 391 -86 496 -86 q 224 -12 286 -86 q 177 117 189 28 l 313 167 q 340 85 325 104 q 415 53 368 53 q 501 86 462 53 q 548 166 540 119 q 529 246 556 213 q 438 313 499 283 q 245 444 318 355 q 188 682 163 542 q 322 930 213 822 z "},"¨":{"ha":486,"x_min":164,"x_max":630,"o":"m 287 975 q 351 947 327 975 q 368 878 375 918 q 327 808 361 836 q 252 779 292 779 q 188 808 212 779 q 172 878 164 836 q 212 947 178 918 q 287 975 246 975 m 542 975 q 606 947 582 975 q 623 878 630 918 q 582 808 616 836 q 507 779 547 779 q 443 808 467 779 q 427 878 419 836 q 467 947 433 918 q 542 975 501 975 z "},"©":{"ha":972,"x_min":67,"x_max":901,"o":"m 606 368 l 728 323 q 667 243 682 258 q 491 170 594 170 q 315 242 388 170 q 243 418 243 315 q 315 594 243 521 q 491 667 388 667 q 667 594 594 667 q 728 514 682 579 l 606 469 q 576 505 581 500 q 491 540 541 540 q 405 504 441 540 q 370 418 370 469 q 405 333 370 368 q 491 297 441 297 q 576 332 541 297 q 606 368 581 337 m 484 836 q 779 713 656 836 q 901 418 901 591 q 779 123 901 245 q 484 1 656 1 q 189 123 311 1 q 67 418 67 245 q 189 713 67 591 q 484 836 311 836 m 484 707 q 280 622 364 707 q 195 418 195 538 q 280 214 195 299 q 484 130 364 130 q 688 214 604 130 q 772 418 772 299 q 688 622 772 538 q 484 707 604 707 z "},"ª":{"ha":691,"x_min":218,"x_max":916,"o":"m 640 823 l 651 884 q 621 956 650 924 q 515 998 581 998 q 395 956 449 998 q 330 854 341 913 q 359 751 319 793 q 465 709 398 709 q 585 751 530 709 q 640 823 625 783 m 675 1023 l 681 1052 l 774 1052 l 700 633 l 607 633 l 616 685 q 449 622 538 622 q 281 690 344 622 q 235 854 218 758 q 339 1017 252 949 q 531 1085 425 1085 q 675 1023 619 1085 m 810 913 l 916 913 l 831 434 l 303 434 l 322 541 l 744 541 l 810 913 z "},"«":{"ha":829,"x_min":126,"x_max":888,"o":"m 126 332 l 564 726 l 530 537 l 302 332 l 458 125 l 425 -64 l 126 332 m 450 332 l 888 726 l 854 537 l 627 332 l 782 125 l 749 -64 l 450 332 z "},"®":{"ha":819,"x_min":68,"x_max":751,"o":"m 549 564 q 567 583 551 568 q 632 740 632 648 q 567 898 632 833 q 557 907 562 903 q 606 779 606 853 q 549 641 606 698 q 519 606 519 611 q 521 605 519 605 l 522 605 l 549 564 m 381 855 l 381 704 l 411 704 q 465 726 442 704 q 487 779 487 748 q 465 833 487 811 q 411 855 442 855 l 381 855 m 381 519 q 410 517 395 517 q 437 517 430 517 l 394 584 l 381 584 l 381 519 m 262 907 q 252 898 257 903 q 187 740 187 833 q 252 583 187 648 q 262 573 257 578 l 262 907 m 410 398 q 168 498 268 398 q 68 740 68 599 q 168 982 68 882 q 410 1082 268 1082 q 651 982 551 1082 q 751 740 751 882 q 651 498 751 599 q 553 431 616 463 q 410 398 491 398 z "},"¯":{"ha":486,"x_min":198,"x_max":607,"o":"m 222 975 l 607 975 l 583 834 l 198 834 l 222 975 z "},"°":{"ha":576,"x_min":102,"x_max":474,"o":"m 288 1082 q 420 1028 366 1082 q 474 896 474 973 q 420 764 474 819 q 288 710 366 710 q 156 764 211 710 q 102 896 102 819 q 156 1028 102 973 q 288 1082 211 1082 m 288 954 q 247 937 264 954 q 230 896 230 920 q 247 855 230 872 q 288 838 264 838 q 329 855 312 838 q 346 896 346 872 q 329 937 346 920 q 288 954 312 954 z "},"±":{"ha":753,"x_min":85,"x_max":753,"o":"m 331 140 l 367 341 l 145 341 l 170 481 l 391 481 l 431 703 l 570 703 l 531 481 l 753 481 l 728 341 l 507 341 l 471 140 l 692 140 l 668 0 l 85 0 l 109 140 l 331 140 z "},"²":{"ha":664,"x_min":154,"x_max":749,"o":"m 154 392 q 284 615 180 543 q 444 722 389 688 q 542 793 500 757 q 591 869 584 829 q 572 936 597 908 q 505 964 547 964 q 426 936 462 964 q 369 819 396 912 l 238 865 q 342 1029 276 976 q 528 1096 426 1096 q 689 1029 629 1096 q 733 869 749 963 q 635 707 717 776 q 470 616 587 666 q 343 523 353 566 l 672 523 l 649 392 l 154 392 z "},"³":{"ha":664,"x_min":192,"x_max":703,"o":"m 441 761 l 364 762 l 375 823 l 455 824 q 506 851 486 834 q 534 920 526 867 q 526 952 538 939 q 494 964 515 964 q 416 888 441 964 l 296 936 q 374 1045 337 1017 q 517 1096 439 1096 q 644 1044 597 1096 q 677 920 690 992 q 566 808 661 828 q 666 749 629 793 q 687 611 703 704 q 587 451 671 517 q 401 384 503 384 q 239 451 300 384 q 193 615 192 504 l 341 662 q 357 544 336 568 q 425 516 382 516 q 503 544 468 516 q 545 611 538 572 q 529 700 551 652 q 441 761 507 749 z "},"´":{"ha":454,"x_min":203,"x_max":554,"o":"m 383 954 l 554 954 l 336 765 l 203 765 l 383 954 z "},"µ":{"ha":753,"x_min":61,"x_max":774,"o":"m 522 55 q 370 -4 450 -4 q 250 41 254 -4 l 201 -233 l 61 -233 l 225 698 l 366 698 l 279 210 q 298 178 283 197 q 395 136 335 136 q 507 180 456 136 q 554 237 541 208 l 635 698 l 774 698 l 652 1 l 513 1 l 522 55 z "},"¶":{"ha":829,"x_min":144,"x_max":1013,"o":"m 772 1000 l 557 -220 l 416 -220 l 526 403 l 473 403 q 233 511 321 403 q 171 771 144 618 q 324 1031 197 924 q 564 1139 430 1121 l 574 1139 l 575 1140 l 1013 1140 l 988 1000 l 960 1000 l 745 -220 l 605 -220 l 820 1000 l 772 1000 z "},"·":{"ha":480,"x_min":157,"x_max":337,"o":"m 262 626 q 317 602 296 626 q 331 543 337 578 q 296 483 325 507 q 233 459 267 459 q 178 483 199 459 q 163 543 157 507 q 199 602 170 578 q 262 626 228 626 z "},"∙":{"ha":480,"x_min":157,"x_max":337,"o":"m 262 626 q 317 602 296 626 q 331 543 337 578 q 296 483 325 507 q 233 459 267 459 q 178 483 199 459 q 163 543 157 507 q 199 602 170 578 q 262 626 228 626 z "},"¸":{"ha":283,"x_min":-22,"x_max":245,"o":"m 213 12 l 190 -30 q 243 -90 235 -56 q 245 -109 245 -100 q 244 -126 245 -117 q 214 -181 239 -155 q 107 -231 173 -221 q 77 -233 94 -233 q -22 -222 37 -233 l 16 -137 q 77 -155 52 -155 q 84 -154 81 -155 q 115 -130 106 -151 q 119 -120 118 -125 q 119 -115 119 -117 q 64 -77 119 -96 l 112 12 l 213 12 z "},"¹":{"ha":733,"x_min":411,"x_max":675,"o":"m 675 1082 l 552 387 l 411 387 l 506 926 l 413 926 l 572 1082 l 675 1082 z "},"º":{"ha":631,"x_min":195,"x_max":916,"o":"m 507 1085 q 675 1017 613 1085 q 721 853 738 949 q 617 689 704 757 q 425 621 531 621 q 257 689 320 621 q 212 853 195 757 q 315 1017 229 949 q 507 1085 402 1085 m 492 998 q 371 956 426 998 q 307 853 317 913 q 335 750 296 793 q 441 708 374 708 q 561 750 507 708 q 626 853 615 793 q 597 956 637 913 q 492 998 558 998 m 810 913 l 916 913 l 831 434 l 303 434 l 322 541 l 744 541 l 810 913 z "},"»":{"ha":829,"x_min":56,"x_max":819,"o":"m 56 -64 l 90 125 l 318 332 l 162 537 l 195 726 l 494 332 l 56 -64 m 380 -64 l 414 125 l 642 332 l 486 537 l 519 726 l 819 332 l 380 -64 z "},"¿":{"ha":697,"x_min":60,"x_max":639,"o":"m 574 -115 q 532 -214 565 -165 q 364 -344 469 -309 q 276 -359 318 -359 q 172 -333 220 -359 q 67 -189 84 -288 q 68 -104 60 -146 q 113 5 78 -48 q 280 168 171 94 q 401 296 355 225 q 437 380 429 338 l 577 380 q 516 236 564 307 q 321 42 442 123 q 229 -56 260 -9 q 209 -105 213 -81 q 208 -142 205 -123 q 255 -208 216 -187 q 302 -219 277 -219 q 341 -212 320 -219 q 416 -155 389 -197 q 432 -116 425 -142 l 582 -70 l 574 -115 m 435 599 q 476 669 442 641 q 551 698 511 698 q 615 669 591 698 q 631 599 639 641 q 590 530 624 558 q 515 501 556 501 q 451 530 475 501 q 435 599 427 558 z "},"À":{"ha":933,"x_min":34,"x_max":899,"o":"m 652 524 l 604 779 l 467 524 l 652 524 m 696 1085 l 899 0 l 750 0 l 678 384 l 391 384 l 184 0 l 34 0 l 620 1085 l 696 1085 m 776 1152 l 642 1152 l 491 1341 l 662 1341 l 776 1152 z "},"Á":{"ha":933,"x_min":34,"x_max":915,"o":"m 652 524 l 604 779 l 467 524 l 652 524 m 696 1085 l 899 0 l 750 0 l 678 384 l 391 384 l 184 0 l 34 0 l 620 1085 l 696 1085 m 744 1341 l 915 1341 l 697 1152 l 564 1152 l 744 1341 z "},"Â":{"ha":933,"x_min":34,"x_max":899,"o":"m 652 524 l 604 779 l 467 524 l 652 524 m 696 1085 l 899 0 l 750 0 l 678 384 l 391 384 l 184 0 l 34 0 l 620 1085 l 696 1085 m 736 1186 l 684 1242 l 614 1186 l 465 1186 l 652 1348 l 751 1348 l 886 1186 l 736 1186 z "},"Ã":{"ha":933,"x_min":34,"x_max":919,"o":"m 652 524 l 604 779 l 467 524 l 652 524 m 696 1085 l 899 0 l 750 0 l 678 384 l 391 384 l 184 0 l 34 0 l 620 1085 l 696 1085 m 716 1320 q 733 1300 716 1320 q 768 1280 751 1280 l 768 1280 q 793 1306 789 1280 q 793 1353 797 1324 l 919 1353 q 789 1182 867 1204 q 750 1177 769 1177 q 667 1215 700 1177 q 614 1254 633 1254 l 612 1254 q 587 1227 591 1253 q 588 1183 583 1211 l 461 1183 q 592 1354 514 1332 q 631 1359 612 1359 q 716 1320 681 1359 z "},"Ä":{"ha":933,"x_min":34,"x_max":922,"o":"m 652 524 l 604 779 l 467 524 l 652 524 m 696 1085 l 899 0 l 750 0 l 678 384 l 391 384 l 184 0 l 34 0 l 620 1085 l 696 1085 m 579 1362 q 643 1334 619 1362 q 661 1265 667 1305 q 619 1195 653 1223 q 545 1166 585 1166 q 480 1195 504 1166 q 464 1265 456 1223 q 505 1334 471 1305 q 579 1362 538 1362 m 834 1362 q 898 1334 874 1362 q 916 1265 922 1305 q 874 1195 908 1223 q 800 1166 840 1166 q 735 1195 759 1166 q 719 1265 711 1223 q 760 1334 726 1305 q 834 1362 793 1362 z "},"Å":{"ha":933,"x_min":34,"x_max":899,"o":"m 652 524 l 604 779 l 467 524 l 652 524 m 676 1179 q 704 1189 691 1179 q 720 1215 717 1200 q 714 1245 723 1234 q 690 1255 705 1255 q 659 1245 671 1255 q 643 1215 646 1234 q 649 1189 640 1200 q 676 1179 657 1179 m 697 1080 l 899 0 l 750 0 l 678 384 l 391 384 l 184 0 l 34 0 l 617 1080 q 563 1116 585 1089 q 538 1217 528 1158 q 598 1318 549 1276 q 707 1360 648 1360 q 801 1318 766 1360 q 824 1217 835 1276 q 765 1116 814 1158 q 697 1080 733 1089 z "},"Æ":{"ha":1163,"x_min":27,"x_max":1270,"o":"m 1270 1085 l 1246 945 l 802 945 l 743 613 l 1187 613 l 1162 473 l 718 473 l 660 141 l 1104 141 l 1079 0 l 494 0 l 562 384 l 431 384 l 199 0 l 27 0 l 680 1050 l 686 1085 l 1270 1085 m 617 697 l 512 524 l 587 524 l 617 697 z "},"Ç":{"ha":1114,"x_min":140,"x_max":1208,"o":"m 528 -1 q 273 151 374 28 q 180 543 140 313 q 411 935 220 772 q 832 1097 602 1097 q 1208 922 1047 1097 l 1086 826 q 807 955 964 955 q 494 834 637 955 q 322 543 352 713 q 391 250 292 371 q 661 130 491 130 q 987 258 819 130 l 1075 164 q 637 -12 852 -12 l 624 -12 l 614 -30 q 667 -90 659 -56 q 669 -109 669 -100 q 668 -126 669 -117 q 637 -181 663 -155 q 531 -231 597 -221 q 500 -233 517 -233 q 401 -222 461 -233 l 440 -137 q 500 -155 476 -155 q 508 -154 505 -155 q 539 -130 529 -151 q 543 -120 542 -125 q 543 -115 543 -117 q 488 -77 543 -96 l 528 -1 z "},"È":{"ha":771,"x_min":102,"x_max":878,"o":"m 878 1085 l 853 945 l 409 945 l 350 613 l 794 613 l 770 473 l 326 473 l 267 141 l 711 141 l 686 0 l 102 0 l 293 1085 l 878 1085 m 703 1152 l 570 1152 l 418 1341 l 589 1341 l 703 1152 z "},"É":{"ha":771,"x_min":102,"x_max":878,"o":"m 878 1085 l 853 945 l 409 945 l 350 613 l 794 613 l 770 473 l 326 473 l 267 141 l 711 141 l 686 0 l 102 0 l 293 1085 l 878 1085 m 671 1341 l 842 1341 l 625 1152 l 491 1152 l 671 1341 z "},"Ê":{"ha":771,"x_min":102,"x_max":878,"o":"m 878 1085 l 853 945 l 409 945 l 350 613 l 794 613 l 770 473 l 326 473 l 267 141 l 711 141 l 686 0 l 102 0 l 293 1085 l 878 1085 m 664 1186 l 611 1242 l 541 1186 l 393 1186 l 579 1348 l 679 1348 l 814 1186 l 664 1186 z "},"Ë":{"ha":771,"x_min":102,"x_max":878,"o":"m 878 1085 l 853 945 l 409 945 l 350 613 l 794 613 l 770 473 l 326 473 l 267 141 l 711 141 l 686 0 l 102 0 l 293 1085 l 878 1085 m 507 1362 q 571 1334 547 1362 q 588 1265 595 1305 q 546 1195 581 1223 q 472 1166 512 1166 q 408 1195 431 1166 q 391 1265 384 1223 q 432 1334 398 1305 q 507 1362 466 1362 m 762 1362 q 826 1334 802 1362 q 843 1265 850 1305 q 801 1195 836 1223 q 727 1166 767 1166 q 663 1195 686 1166 q 646 1265 639 1223 q 687 1334 653 1305 q 762 1362 721 1362 z "},"Ì":{"ha":372,"x_min":115,"x_max":494,"o":"m 447 1085 l 256 0 l 115 0 l 307 1085 l 447 1085 m 494 1152 l 361 1152 l 210 1341 l 381 1341 l 494 1152 z "},"Í":{"ha":372,"x_min":115,"x_max":634,"o":"m 447 1085 l 256 0 l 115 0 l 307 1085 l 447 1085 m 463 1341 l 634 1341 l 416 1152 l 283 1152 l 463 1341 z "},"Î":{"ha":372,"x_min":115,"x_max":605,"o":"m 447 1085 l 256 0 l 115 0 l 307 1085 l 447 1085 m 455 1186 l 403 1242 l 332 1186 l 184 1186 l 370 1348 l 470 1348 l 605 1186 l 455 1186 z "},"Ï":{"ha":372,"x_min":116,"x_max":642,"o":"m 448 1085 l 256 0 l 116 0 l 307 1085 l 448 1085 m 299 1362 q 363 1334 339 1362 q 380 1265 387 1305 q 339 1195 373 1223 q 264 1166 304 1166 q 200 1195 224 1166 q 183 1265 176 1223 q 224 1334 191 1305 q 299 1362 258 1362 m 554 1362 q 618 1334 594 1362 q 635 1265 642 1305 q 594 1195 628 1223 q 519 1166 559 1166 q 455 1195 479 1166 q 438 1265 431 1223 q 479 1334 446 1305 q 554 1362 513 1362 z "},"Ð":{"ha":848,"x_min":56,"x_max":916,"o":"m 210 612 l 293 1085 l 396 1085 q 782 935 661 1084 q 875 543 916 772 q 644 150 834 313 q 205 0 469 1 l 102 0 l 185 473 l 56 473 l 81 612 l 210 612 m 350 612 l 585 612 l 561 473 l 326 473 l 267 142 q 561 250 435 142 q 733 543 703 371 q 664 835 764 713 q 408 942 576 942 l 350 612 z "},"Ñ":{"ha":920,"x_min":102,"x_max":1010,"o":"m 293 1085 l 421 1085 l 732 311 l 869 1085 l 1010 1085 l 819 0 l 696 0 l 380 784 l 242 0 l 102 0 l 293 1085 m 709 1320 q 727 1300 709 1320 q 762 1280 745 1280 l 762 1280 q 787 1306 783 1280 q 787 1353 790 1324 l 913 1353 q 783 1182 861 1204 q 744 1177 763 1177 q 660 1215 694 1177 q 608 1254 627 1254 l 605 1254 q 580 1227 585 1253 q 582 1183 577 1211 l 455 1183 q 586 1354 507 1332 q 625 1359 606 1359 q 709 1320 674 1359 z "},"Ò":{"ha":1281,"x_min":140,"x_max":1333,"o":"m 834 1099 q 1198 937 1064 1099 q 1292 544 1333 774 q 1060 151 1251 314 q 638 -12 868 -12 q 274 151 408 -12 q 181 544 140 314 q 413 937 222 774 q 834 1099 604 1099 m 809 958 q 495 837 637 958 q 323 544 353 715 q 392 251 292 372 q 663 130 492 130 q 977 251 835 130 q 1150 544 1120 372 q 1080 837 1180 715 q 809 958 981 958 m 949 1152 l 816 1152 l 665 1341 l 836 1341 l 949 1152 z "},"Ó":{"ha":1281,"x_min":140,"x_max":1333,"o":"m 834 1099 q 1198 937 1064 1099 q 1292 544 1333 774 q 1060 151 1251 314 q 638 -12 868 -12 q 274 151 408 -12 q 181 544 140 314 q 413 937 222 774 q 834 1099 604 1099 m 809 958 q 495 837 637 958 q 323 544 353 715 q 392 251 292 372 q 663 130 492 130 q 977 251 835 130 q 1150 544 1120 372 q 1080 837 1180 715 q 809 958 981 958 m 918 1341 l 1089 1341 l 871 1152 l 738 1152 l 918 1341 z "},"Ô":{"ha":1281,"x_min":140,"x_max":1333,"o":"m 834 1099 q 1198 937 1064 1099 q 1292 544 1333 774 q 1060 151 1251 314 q 638 -12 868 -12 q 274 151 408 -12 q 181 544 140 314 q 413 937 222 774 q 834 1099 604 1099 m 809 958 q 495 837 637 958 q 323 544 353 715 q 392 251 292 372 q 663 130 492 130 q 977 251 835 130 q 1150 544 1120 372 q 1080 837 1180 715 q 809 958 981 958 m 910 1186 l 858 1242 l 787 1186 l 639 1186 l 825 1348 l 925 1348 l 1060 1186 l 910 1186 z "},"Õ":{"ha":1281,"x_min":140,"x_max":1333,"o":"m 834 1099 q 1198 937 1064 1099 q 1292 544 1333 774 q 1060 151 1251 314 q 638 -12 868 -12 q 274 151 408 -12 q 181 544 140 314 q 413 937 222 774 q 834 1099 604 1099 m 809 958 q 495 837 637 958 q 323 544 353 715 q 392 251 292 372 q 663 130 492 130 q 977 251 835 130 q 1150 544 1120 372 q 1080 837 1180 715 q 809 958 981 958 m 890 1320 q 907 1300 890 1320 q 943 1280 925 1280 l 943 1280 q 967 1306 963 1280 q 967 1353 970 1324 l 1093 1353 q 963 1182 1041 1204 q 924 1177 943 1177 q 841 1215 874 1177 q 788 1254 807 1254 l 785 1254 q 760 1227 765 1253 q 762 1183 758 1211 l 635 1183 q 766 1354 688 1332 q 805 1359 786 1359 q 890 1320 854 1359 z "},"Ö":{"ha":1281,"x_min":140,"x_max":1333,"o":"m 834 1099 q 1198 937 1064 1099 q 1292 544 1333 774 q 1060 151 1251 314 q 638 -12 868 -12 q 274 151 408 -12 q 181 544 140 314 q 413 937 222 774 q 834 1099 604 1099 m 809 958 q 495 837 637 958 q 323 544 353 715 q 392 251 292 372 q 663 130 492 130 q 977 251 835 130 q 1150 544 1120 372 q 1080 837 1180 715 q 809 958 981 958 m 753 1362 q 818 1334 793 1362 q 834 1265 842 1305 q 793 1195 827 1223 q 719 1166 759 1166 q 654 1195 678 1166 q 637 1265 630 1223 q 679 1334 645 1305 q 753 1362 713 1362 m 1008 1362 q 1073 1334 1048 1362 q 1089 1265 1097 1305 q 1048 1195 1082 1223 q 974 1166 1014 1166 q 909 1195 933 1166 q 892 1265 885 1223 q 934 1334 900 1305 q 1008 1362 968 1362 z "},"×":{"ha":798,"x_min":142,"x_max":654,"o":"m 399 313 l 242 156 l 142 256 l 299 412 l 142 570 l 242 669 l 399 512 l 556 669 l 654 569 l 498 412 l 654 256 l 556 156 l 399 313 z "},"Ø":{"ha":1281,"x_min":85,"x_max":1196,"o":"m 750 947 q 640 958 722 958 q 348 837 469 958 q 227 544 227 715 q 348 251 227 372 q 403 201 392 207 l 750 947 m 530 141 q 640 130 558 130 q 933 251 812 130 q 1054 544 1054 372 q 933 837 1054 715 q 878 887 889 881 l 530 141 m 938 1016 q 1034 937 972 997 q 1196 544 1196 774 q 1033 151 1196 314 q 640 -12 870 -12 q 470 12 529 -12 l 416 -105 l 288 -45 l 342 72 q 248 151 308 91 q 85 544 85 314 q 248 937 85 774 q 640 1099 410 1099 q 810 1076 751 1099 l 865 1193 l 993 1133 l 938 1016 z "},"Ù":{"ha":941,"x_min":138,"x_max":1031,"o":"m 890 1085 l 1031 1085 l 896 321 q 749 100 854 190 q 469 -9 622 -9 q 228 99 317 -9 q 165 360 138 208 l 293 1085 l 434 1085 l 307 360 q 345 200 290 267 q 494 133 400 133 q 667 199 589 133 q 762 360 745 266 l 890 1085 m 780 1152 l 646 1152 l 495 1341 l 666 1341 l 780 1152 z "},"Ú":{"ha":941,"x_min":138,"x_max":1031,"o":"m 890 1085 l 1031 1085 l 896 321 q 749 100 854 190 q 469 -9 622 -9 q 228 99 317 -9 q 165 360 138 208 l 293 1085 l 434 1085 l 307 360 q 345 200 290 267 q 494 133 400 133 q 667 199 589 133 q 762 360 745 266 l 890 1085 m 748 1341 l 919 1341 l 701 1152 l 568 1152 l 748 1341 z "},"Û":{"ha":941,"x_min":138,"x_max":1031,"o":"m 890 1085 l 1031 1085 l 896 321 q 749 100 854 190 q 469 -9 622 -9 q 228 99 317 -9 q 165 360 138 208 l 293 1085 l 434 1085 l 307 360 q 345 200 290 267 q 494 133 400 133 q 667 199 589 133 q 762 360 745 266 l 890 1085 m 741 1186 l 688 1242 l 618 1186 l 469 1186 l 656 1348 l 755 1348 l 890 1186 l 741 1186 z "},"Ü":{"ha":941,"x_min":138,"x_max":1031,"o":"m 890 1085 l 1031 1085 l 896 321 q 749 100 854 190 q 469 -9 622 -9 q 228 99 317 -9 q 165 360 138 208 l 293 1085 l 434 1085 l 307 360 q 345 200 290 267 q 494 133 400 133 q 667 199 589 133 q 762 360 745 266 l 890 1085 m 583 1362 q 647 1334 623 1362 q 665 1265 671 1305 q 623 1195 657 1223 q 549 1166 589 1166 q 484 1195 508 1166 q 468 1265 460 1223 q 509 1334 475 1305 q 583 1362 543 1362 m 838 1362 q 902 1334 878 1362 q 920 1265 926 1305 q 878 1195 912 1223 q 804 1166 844 1166 q 739 1195 763 1166 q 723 1265 715 1223 q 764 1334 730 1305 q 838 1362 798 1362 z "},"Ý":{"ha":959,"x_min":225,"x_max":1116,"o":"m 486 435 l 225 1085 l 387 1085 l 583 594 l 954 1085 l 1116 1085 l 626 435 l 549 0 l 409 0 l 486 435 m 757 1341 l 928 1341 l 710 1152 l 576 1152 l 757 1341 z "},"Þ":{"ha":800,"x_min":102,"x_max":861,"o":"m 403 912 l 570 912 q 772 804 698 894 q 834 543 861 696 q 680 282 807 390 q 401 174 553 174 l 273 174 l 242 0 l 102 0 l 293 1085 l 433 1085 l 403 912 m 298 315 l 426 315 q 598 382 519 315 q 693 543 677 449 q 655 704 710 637 q 506 770 600 770 l 378 770 l 298 315 z "},"ß":{"ha":774,"x_min":95,"x_max":819,"o":"m 510 1090 l 521 1090 q 668 1037 612 1090 q 714 863 728 978 l 712 852 q 659 722 693 741 q 782 388 819 652 q 621 112 753 228 q 391 1 496 3 l 391 0 l 338 0 l 363 141 l 416 141 l 416 143 q 536 213 460 146 q 638 387 620 286 q 597 558 656 487 q 443 629 538 629 l 468 771 q 540 798 513 777 q 574 857 567 819 q 561 924 581 896 q 502 947 545 947 l 496 947 q 422 919 449 945 q 382 833 396 893 l 235 0 l 95 0 l 244 845 q 341 1024 272 962 q 510 1090 410 1086 z "},"à":{"ha":950,"x_min":121,"x_max":970,"o":"m 762 316 l 781 419 q 736 538 780 485 q 578 609 677 609 q 394 538 477 609 q 294 368 311 468 q 334 197 276 268 q 493 126 393 126 q 676 197 593 126 q 762 316 739 250 m 821 649 l 829 698 l 970 698 l 848 -1 l 707 -1 l 722 87 q 467 -18 602 -18 q 214 95 307 -18 q 150 368 121 208 q 311 641 178 528 q 604 753 444 753 q 821 649 738 753 m 707 765 l 574 765 l 422 954 l 593 954 l 707 765 z "},"á":{"ha":950,"x_min":121,"x_max":970,"o":"m 762 316 l 781 419 q 736 538 780 485 q 578 609 677 609 q 394 538 477 609 q 294 368 311 468 q 334 197 276 268 q 493 126 393 126 q 676 197 593 126 q 762 316 739 250 m 821 649 l 829 698 l 970 698 l 848 -1 l 707 -1 l 722 87 q 467 -18 602 -18 q 214 95 307 -18 q 150 368 121 208 q 311 641 178 528 q 604 753 444 753 q 821 649 738 753 m 675 954 l 846 954 l 629 765 l 495 765 l 675 954 z "},"â":{"ha":950,"x_min":121,"x_max":970,"o":"m 762 316 l 781 419 q 736 538 780 485 q 578 609 677 609 q 394 538 477 609 q 294 368 311 468 q 334 197 276 268 q 493 126 393 126 q 676 197 593 126 q 762 316 739 250 m 821 649 l 829 698 l 970 698 l 848 -1 l 707 -1 l 722 87 q 467 -18 602 -18 q 214 95 307 -18 q 150 368 121 208 q 311 641 178 528 q 604 753 444 753 q 821 649 738 753 m 668 799 l 615 854 l 545 799 l 397 799 l 583 960 l 683 960 l 818 799 l 668 799 z "},"ã":{"ha":950,"x_min":121,"x_max":970,"o":"m 762 316 l 781 419 q 736 538 780 485 q 578 609 677 609 q 394 538 477 609 q 294 368 311 468 q 334 197 276 268 q 493 126 393 126 q 676 197 593 126 q 762 316 739 250 m 821 649 l 829 698 l 970 698 l 848 -1 l 707 -1 l 722 87 q 467 -18 602 -18 q 214 95 307 -18 q 150 368 121 208 q 311 641 178 528 q 604 753 444 753 q 821 649 738 753 m 647 932 q 665 913 647 932 q 700 893 682 893 l 700 892 q 725 919 720 892 q 724 966 728 937 l 850 966 q 721 795 798 817 q 682 789 701 789 q 598 828 631 789 q 545 867 564 867 l 543 867 q 518 840 522 865 q 519 795 515 823 l 393 795 q 524 966 446 945 q 563 972 544 972 q 647 932 612 972 z "},"ä":{"ha":950,"x_min":121,"x_max":970,"o":"m 762 316 l 781 419 q 736 538 780 485 q 578 609 677 609 q 394 538 477 609 q 294 368 311 468 q 334 197 276 268 q 493 126 393 126 q 676 197 593 126 q 762 316 739 250 m 821 649 l 829 698 l 970 698 l 848 -1 l 707 -1 l 722 87 q 467 -18 602 -18 q 214 95 307 -18 q 150 368 121 208 q 311 641 178 528 q 604 753 444 753 q 821 649 738 753 m 511 975 q 575 947 551 975 q 592 878 599 918 q 550 808 585 836 q 476 779 516 779 q 412 808 435 779 q 395 878 388 836 q 436 947 402 918 q 511 975 470 975 m 766 975 q 830 947 806 975 q 847 878 854 918 q 805 808 840 836 q 731 779 771 779 q 667 808 690 779 q 650 878 643 836 q 691 947 657 918 q 766 975 725 975 z "},"å":{"ha":950,"x_min":121,"x_max":970,"o":"m 762 316 l 781 419 q 736 538 780 485 q 578 609 677 609 q 394 538 477 609 q 294 368 311 468 q 334 197 276 268 q 493 126 393 126 q 676 197 593 126 q 762 316 739 250 m 611 813 q 639 824 626 813 q 654 850 652 834 q 649 879 658 869 q 625 890 640 890 q 593 879 606 890 q 578 850 581 869 q 584 824 575 834 q 611 813 592 813 m 688 742 q 821 649 766 718 l 829 698 l 970 698 l 848 -1 l 707 -1 l 722 87 q 467 -18 602 -18 q 214 95 307 -18 q 150 368 121 208 q 311 641 178 528 q 505 742 401 718 q 498 751 501 746 q 473 851 463 793 q 533 952 484 910 q 642 994 583 994 q 735 952 701 994 q 759 851 770 910 q 700 751 749 793 q 688 742 694 746 z "},"æ":{"ha":1453,"x_min":98,"x_max":1481,"o":"m 745 484 q 712 539 733 513 q 553 610 654 610 q 371 539 454 610 q 269 368 288 469 q 310 197 252 268 q 469 127 369 127 q 652 198 569 127 q 703 252 683 224 q 739 317 728 284 l 758 420 q 745 484 757 452 m 1311 499 l 1278 539 q 1120 610 1220 610 q 937 539 1019 610 q 916 520 919 524 l 911 499 l 1311 499 m 802 673 l 806 699 l 947 699 q 1145 754 995 754 q 1398 641 1305 754 q 1455 358 1481 540 l 887 359 l 862 216 q 876 198 864 212 q 1035 127 935 127 q 1218 198 1135 127 q 1270 248 1234 211 l 1398 199 q 1303 96 1346 133 q 1009 -17 1169 -17 q 827 18 859 -17 l 824 0 l 684 0 l 694 64 q 443 -17 578 -17 q 191 96 283 -17 q 125 368 98 209 q 287 641 154 528 q 579 754 420 754 q 802 673 714 754 z "},"ç":{"ha":856,"x_min":98,"x_max":892,"o":"m 384 -14 q 191 95 266 4 q 126 368 98 208 q 287 642 154 528 q 580 755 420 755 q 833 642 740 755 q 892 549 852 618 l 742 497 q 713 540 721 530 q 555 610 655 610 q 372 539 455 610 q 271 368 288 469 q 311 198 253 269 q 469 127 370 127 q 653 197 570 127 q 696 239 664 207 l 828 189 q 737 95 764 118 q 484 -16 621 -4 l 476 -30 q 530 -90 522 -56 q 532 -109 531 -100 q 530 -126 532 -117 q 500 -181 525 -155 q 393 -231 459 -221 q 363 -233 380 -233 q 264 -222 323 -233 l 302 -137 q 363 -155 338 -155 q 370 -154 367 -155 q 401 -130 392 -151 q 406 -120 404 -125 q 406 -115 406 -117 q 350 -77 405 -96 l 384 -14 z "},"è":{"ha":856,"x_min":98,"x_max":865,"o":"m 347 158 q 469 127 376 127 q 653 197 570 127 q 696 239 664 207 l 828 189 q 737 95 764 118 q 444 -18 604 -18 q 191 95 284 -18 q 126 368 98 208 q 287 642 154 528 q 580 755 420 755 q 806 672 717 755 q 833 642 820 658 q 865 599 839 635 l 781 528 l 347 158 m 658 592 q 555 610 637 610 q 372 539 455 610 q 271 368 288 469 q 270 262 256 286 l 658 592 m 669 765 l 535 765 l 384 954 l 555 954 l 669 765 z "},"é":{"ha":856,"x_min":98,"x_max":865,"o":"m 347 158 q 469 127 376 127 q 653 197 570 127 q 696 239 664 207 l 828 189 q 737 95 764 118 q 444 -18 604 -18 q 191 95 284 -18 q 126 368 98 208 q 287 642 154 528 q 580 755 420 755 q 806 672 717 755 q 833 642 820 658 q 865 599 839 635 l 781 528 l 347 158 m 658 592 q 555 610 637 610 q 372 539 455 610 q 271 368 288 469 q 270 262 256 286 l 658 592 m 637 954 l 808 954 l 590 765 l 456 765 l 637 954 z "},"ê":{"ha":856,"x_min":98,"x_max":865,"o":"m 347 158 q 469 127 376 127 q 653 197 570 127 q 696 239 664 207 l 828 189 q 737 95 764 118 q 444 -18 604 -18 q 191 95 284 -18 q 126 368 98 208 q 287 642 154 528 q 580 755 420 755 q 806 672 717 755 q 833 642 820 658 q 865 599 839 635 l 781 528 l 347 158 m 658 592 q 555 610 637 610 q 372 539 455 610 q 271 368 288 469 q 270 262 256 286 l 658 592 m 629 799 l 577 854 l 507 799 l 358 799 l 545 960 l 644 960 l 779 799 l 629 799 z "},"ë":{"ha":856,"x_min":98,"x_max":865,"o":"m 347 158 q 469 127 376 127 q 653 197 570 127 q 696 239 664 207 l 828 189 q 737 95 764 118 q 444 -18 604 -18 q 191 95 284 -18 q 126 368 98 208 q 287 642 154 528 q 580 755 420 755 q 806 672 717 755 q 833 642 820 658 q 865 599 839 635 l 781 528 l 347 158 m 658 592 q 555 610 637 610 q 372 539 455 610 q 271 368 288 469 q 270 262 256 286 l 658 592 m 472 975 q 536 947 512 975 q 553 878 561 918 q 512 808 546 836 q 437 779 477 779 q 373 808 397 779 q 357 878 349 836 q 398 947 364 918 q 472 975 431 975 m 727 975 q 791 947 767 975 q 808 878 816 918 q 767 808 801 836 q 692 779 732 779 q 628 808 652 779 q 612 878 604 836 q 653 947 619 918 q 727 975 686 975 z "},"ì":{"ha":372,"x_min":115,"x_max":427,"o":"m 379 699 l 256 0 l 115 0 l 239 699 l 379 699 m 427 765 l 293 765 l 142 954 l 313 954 l 427 765 z "},"í":{"ha":372,"x_min":115,"x_max":566,"o":"m 379 699 l 256 0 l 115 0 l 239 699 l 379 699 m 395 954 l 566 954 l 348 765 l 214 765 l 395 954 z "},"î":{"ha":372,"x_min":115,"x_max":537,"o":"m 379 699 l 256 0 l 115 0 l 239 699 l 379 699 m 387 799 l 334 854 l 264 799 l 116 799 l 302 960 l 402 960 l 537 799 l 387 799 z "},"ï":{"ha":372,"x_min":107,"x_max":573,"o":"m 379 699 l 256 0 l 115 0 l 239 699 l 379 699 m 230 975 q 294 947 270 975 q 311 878 318 918 q 270 808 304 836 q 195 779 235 779 q 131 808 155 779 q 115 878 107 836 q 155 947 121 918 q 230 975 189 975 m 485 975 q 549 947 525 975 q 566 878 573 918 q 525 808 559 836 q 450 779 490 779 q 386 808 410 779 q 370 878 362 836 q 410 947 376 918 q 485 975 444 975 z "},"ð":{"ha":894,"x_min":98,"x_max":915,"o":"m 371 539 q 329 504 371 539 q 270 368 288 468 q 311 197 252 268 q 469 127 369 127 q 653 197 570 127 q 754 368 736 268 q 713 539 772 468 q 555 610 655 610 q 371 539 454 610 m 886 548 q 898 368 915 467 q 736 95 869 208 q 444 -18 604 -18 q 191 95 284 -18 q 126 368 98 208 q 287 642 154 528 q 580 755 420 755 q 603 754 591 755 l 512 879 l 418 819 l 243 819 l 458 954 l 358 1085 l 529 1085 l 572 1025 l 675 1085 l 846 1085 l 623 949 l 806 671 q 833 642 820 657 q 886 549 868 599 l 886 548 z "},"ñ":{"ha":772,"x_min":102,"x_max":770,"o":"m 333 511 l 243 0 l 102 0 l 224 698 l 366 698 l 351 616 q 549 736 416 736 q 715 655 663 736 q 749 454 768 575 l 669 0 l 528 0 l 608 448 q 582 552 618 509 q 484 595 545 595 q 372 553 424 595 q 333 511 343 528 m 566 932 q 584 913 566 932 q 619 893 602 893 l 619 892 q 644 919 640 892 q 644 966 647 937 l 770 966 q 640 795 718 817 q 601 789 620 789 q 517 828 551 789 q 465 867 484 867 l 462 867 q 437 840 441 865 q 438 795 434 823 l 311 795 q 443 966 364 945 q 481 972 463 972 q 566 932 531 972 z "},"ò":{"ha":894,"x_min":98,"x_max":926,"o":"m 580 755 q 833 642 740 755 q 898 368 926 528 q 736 95 869 208 q 444 -18 604 -18 q 191 95 284 -18 q 126 368 98 208 q 287 642 154 528 q 580 755 420 755 m 555 610 q 371 539 454 610 q 270 368 288 468 q 311 197 252 268 q 469 127 369 127 q 653 197 570 127 q 754 368 736 268 q 713 539 772 468 q 555 610 655 610 m 688 765 l 554 765 l 403 954 l 574 954 l 688 765 z "},"ó":{"ha":894,"x_min":98,"x_max":926,"o":"m 580 755 q 833 642 740 755 q 898 368 926 528 q 736 95 869 208 q 444 -18 604 -18 q 191 95 284 -18 q 126 368 98 208 q 287 642 154 528 q 580 755 420 755 m 555 610 q 371 539 454 610 q 270 368 288 468 q 311 197 252 268 q 469 127 369 127 q 653 197 570 127 q 754 368 736 268 q 713 539 772 468 q 555 610 655 610 m 656 954 l 827 954 l 609 765 l 475 765 l 656 954 z "},"ô":{"ha":894,"x_min":98,"x_max":926,"o":"m 580 755 q 833 642 740 755 q 898 368 926 528 q 736 95 869 208 q 444 -18 604 -18 q 191 95 284 -18 q 126 368 98 208 q 287 642 154 528 q 580 755 420 755 m 555 610 q 371 539 454 610 q 270 368 288 468 q 311 197 252 268 q 469 127 369 127 q 653 197 570 127 q 754 368 736 268 q 713 539 772 468 q 555 610 655 610 m 648 799 l 596 854 l 526 799 l 377 799 l 564 960 l 663 960 l 798 799 l 648 799 z "},"õ":{"ha":894,"x_min":98,"x_max":926,"o":"m 580 755 q 833 642 740 755 q 898 368 926 528 q 736 95 869 208 q 444 -18 604 -18 q 191 95 284 -18 q 126 368 98 208 q 287 642 154 528 q 580 755 420 755 m 555 610 q 371 539 454 610 q 270 368 288 468 q 311 197 252 268 q 469 127 369 127 q 653 197 570 127 q 754 368 736 268 q 713 539 772 468 q 555 610 655 610 m 628 932 q 646 913 628 932 q 681 893 663 893 l 680 892 q 705 919 701 892 q 705 966 709 937 l 831 966 q 701 795 779 817 q 663 789 682 789 q 579 828 612 789 q 526 867 545 867 l 524 867 q 498 840 503 865 q 500 795 495 823 l 373 795 q 505 966 426 945 q 543 972 524 972 q 628 932 593 972 z "},"ö":{"ha":894,"x_min":98,"x_max":926,"o":"m 580 755 q 833 642 740 755 q 898 368 926 528 q 736 95 869 208 q 444 -18 604 -18 q 191 95 284 -18 q 126 368 98 208 q 287 642 154 528 q 580 755 420 755 m 555 610 q 371 539 454 610 q 270 368 288 468 q 311 197 252 268 q 469 127 369 127 q 653 197 570 127 q 754 368 736 268 q 713 539 772 468 q 555 610 655 610 m 491 975 q 555 947 531 975 q 572 878 580 918 q 531 808 565 836 q 456 779 496 779 q 392 808 416 779 q 376 878 368 836 q 417 947 383 918 q 491 975 450 975 m 746 975 q 810 947 786 975 q 827 878 835 918 q 786 808 820 836 q 711 779 751 779 q 647 808 671 779 q 631 878 623 836 q 672 947 638 918 q 746 975 705 975 z "},"÷":{"ha":754,"x_min":85,"x_max":669,"o":"m 85 496 l 669 496 l 669 356 l 85 356 l 85 496 m 377 717 q 447 688 418 717 q 475 619 475 660 q 447 549 475 578 q 377 521 418 521 q 308 549 336 521 q 279 619 279 578 q 308 688 279 660 q 377 717 336 717 m 377 331 q 447 302 418 331 q 475 233 475 274 q 447 163 475 192 q 377 135 418 135 q 308 163 336 135 q 279 233 279 192 q 308 302 279 274 q 377 331 336 331 z "},"ø":{"ha":893,"x_min":98,"x_max":925,"o":"m 612 609 q 553 610 608 610 q 370 539 454 610 q 269 369 287 469 q 302 199 252 269 l 612 609 m 411 129 q 469 127 414 127 q 652 198 569 127 q 753 369 735 269 q 712 540 770 469 l 411 129 m 212 71 l 191 96 q 125 369 98 210 q 287 642 154 529 q 579 755 420 755 q 707 735 670 755 l 807 869 l 921 804 l 812 667 l 832 642 q 897 369 925 529 q 736 96 869 210 q 443 -17 603 -17 q 316 3 353 -17 l 216 -130 l 100 -70 l 212 71 z "},"ù":{"ha":788,"x_min":130,"x_max":809,"o":"m 395 -9 q 197 71 263 -9 q 150 273 130 152 l 224 698 l 366 698 l 292 279 q 317 175 281 218 q 420 132 354 132 q 532 175 480 132 q 595 279 584 218 l 669 698 l 809 698 l 734 273 q 616 71 711 152 q 395 -9 522 -9 m 635 765 l 501 765 l 350 954 l 521 954 l 635 765 z "},"ú":{"ha":788,"x_min":130,"x_max":809,"o":"m 395 -9 q 197 71 263 -9 q 150 273 130 152 l 224 698 l 366 698 l 292 279 q 317 175 281 218 q 420 132 354 132 q 532 175 480 132 q 595 279 584 218 l 669 698 l 809 698 l 734 273 q 616 71 711 152 q 395 -9 522 -9 m 603 954 l 774 954 l 556 765 l 422 765 l 603 954 z "},"û":{"ha":788,"x_min":130,"x_max":809,"o":"m 395 -9 q 197 71 263 -9 q 150 273 130 152 l 224 698 l 366 698 l 292 279 q 317 175 281 218 q 420 132 354 132 q 532 175 480 132 q 595 279 584 218 l 669 698 l 809 698 l 734 273 q 616 71 711 152 q 395 -9 522 -9 m 595 799 l 543 854 l 473 799 l 324 799 l 511 960 l 610 960 l 745 799 l 595 799 z "},"ü":{"ha":788,"x_min":130,"x_max":809,"o":"m 395 -9 q 197 71 263 -9 q 150 273 130 152 l 224 698 l 366 698 l 292 279 q 317 175 281 218 q 420 132 354 132 q 532 175 480 132 q 595 279 584 218 l 669 698 l 809 698 l 734 273 q 616 71 711 152 q 395 -9 522 -9 m 438 975 q 502 947 478 975 q 519 878 526 918 q 478 808 512 836 q 404 779 444 779 q 339 808 363 779 q 323 878 315 836 q 363 947 330 918 q 438 975 397 975 m 693 975 q 757 947 733 975 q 774 878 781 918 q 733 808 767 836 q 659 779 699 779 q 594 808 618 779 q 578 878 570 836 q 618 947 585 918 q 693 975 652 975 z "},"ý":{"ha":772,"x_min":83,"x_max":843,"o":"m 232 -235 l 83 -235 l 338 155 l 174 698 l 332 698 l 441 316 l 686 698 l 843 698 l 232 -235 m 595 954 l 766 954 l 548 765 l 414 765 l 595 954 z "},"þ":{"ha":932,"x_min":60,"x_max":957,"o":"m 297 313 q 342 197 299 250 q 500 126 401 126 q 684 197 601 126 q 785 368 767 268 q 744 539 803 469 q 585 610 686 610 q 402 539 486 610 q 317 422 340 487 l 297 313 m 261 107 l 201 -234 l 60 -234 l 293 1085 l 433 1085 l 352 625 q 611 753 477 753 q 864 641 771 753 q 929 368 957 528 q 768 96 901 209 q 475 -17 635 -17 q 261 107 340 -17 z "},"ÿ":{"ha":772,"x_min":83,"x_max":843,"o":"m 232 -235 l 83 -235 l 338 155 l 174 698 l 332 698 l 441 316 l 686 698 l 843 698 l 232 -235 m 430 975 q 494 947 470 975 q 511 878 518 918 q 470 808 504 836 q 395 779 435 779 q 331 808 355 779 q 315 878 307 836 q 355 947 321 918 q 430 975 389 975 m 685 975 q 749 947 725 975 q 766 878 773 918 q 725 808 759 836 q 650 779 690 779 q 586 808 610 779 q 570 878 562 836 q 610 947 576 918 q 685 975 644 975 z "},"Ā":{"ha":933,"x_min":34,"x_max":899,"o":"m 652 524 l 604 779 l 467 524 l 652 524 m 696 1085 l 899 0 l 750 0 l 678 384 l 391 384 l 184 0 l 34 0 l 620 1085 l 696 1085 m 515 1362 l 899 1362 l 874 1221 l 490 1221 l 515 1362 z "},"ā":{"ha":950,"x_min":121,"x_max":970,"o":"m 762 316 l 781 419 q 736 538 780 485 q 578 609 677 609 q 394 538 477 609 q 294 368 311 468 q 334 197 276 268 q 493 126 393 126 q 676 197 593 126 q 762 316 739 250 m 821 649 l 829 698 l 970 698 l 848 -1 l 707 -1 l 722 87 q 467 -18 602 -18 q 214 95 307 -18 q 150 368 121 208 q 311 641 178 528 q 604 753 444 753 q 821 649 738 753 m 446 975 l 830 975 l 806 834 l 421 834 l 446 975 z "},"Ă":{"ha":933,"x_min":34,"x_max":899,"o":"m 652 524 l 604 779 l 467 524 l 652 524 m 696 1085 l 899 0 l 750 0 l 678 384 l 391 384 l 184 0 l 34 0 l 620 1085 l 696 1085 m 644 1345 q 652 1293 644 1303 q 692 1276 667 1276 q 737 1294 716 1276 q 763 1345 749 1303 l 892 1345 q 816 1222 863 1262 q 673 1166 751 1166 q 548 1222 593 1166 q 515 1345 513 1265 l 644 1345 z "},"ă":{"ha":950,"x_min":121,"x_max":970,"o":"m 762 316 l 781 419 q 736 538 780 485 q 578 609 677 609 q 394 538 477 609 q 294 368 311 468 q 334 197 276 268 q 493 126 393 126 q 676 197 593 126 q 762 316 739 250 m 821 649 l 829 698 l 970 698 l 848 -1 l 707 -1 l 722 87 q 467 -18 602 -18 q 214 95 307 -18 q 150 368 121 208 q 311 641 178 528 q 604 753 444 753 q 821 649 738 753 m 575 958 q 584 906 575 916 q 623 888 598 888 q 669 907 648 888 q 694 958 680 916 l 823 958 q 747 835 794 875 q 604 779 683 779 q 479 835 525 779 q 447 958 444 878 l 575 958 z "},"Ą":{"ha":933,"x_min":34,"x_max":899,"o":"m 652 524 l 604 779 l 467 524 l 652 524 m 741 51 l 678 384 l 391 384 l 184 0 l 34 0 l 620 1085 l 696 1085 l 899 0 l 794 0 q 745 -81 751 -48 q 746 -100 743 -92 q 772 -125 751 -125 q 844 -91 798 -125 l 865 -195 q 734 -229 777 -229 q 637 -184 669 -229 q 620 -96 611 -147 q 625 -72 622 -84 q 741 51 646 -7 z "},"ą":{"ha":950,"x_min":121,"x_max":970,"o":"m 762 316 l 781 419 q 736 538 780 485 q 578 609 677 609 q 394 538 477 609 q 294 368 311 468 q 334 197 276 268 q 493 126 393 126 q 676 197 593 126 q 762 316 739 250 m 714 41 l 722 87 q 467 -18 602 -18 q 214 95 307 -18 q 150 368 121 208 q 311 641 178 528 q 604 753 444 753 q 821 649 738 753 l 829 698 l 970 698 l 848 -1 l 783 -1 q 734 -81 740 -49 q 735 -100 732 -92 q 762 -125 741 -125 q 833 -91 787 -125 l 854 -195 q 723 -229 766 -229 q 626 -184 659 -229 q 609 -96 600 -147 q 614 -72 611 -84 q 714 41 634 -12 z "},"Ć":{"ha":1114,"x_min":140,"x_max":1208,"o":"m 987 258 l 1075 164 q 637 -12 852 -12 q 273 151 407 -12 q 180 543 140 313 q 411 935 220 772 q 832 1097 602 1097 q 1208 922 1047 1097 l 1086 826 q 807 955 964 955 q 494 834 637 955 q 322 543 352 713 q 391 250 292 371 q 661 130 491 130 q 987 258 819 130 m 843 1341 l 1014 1341 l 796 1152 l 663 1152 l 843 1341 z "},"ć":{"ha":856,"x_min":98,"x_max":892,"o":"m 696 239 l 828 189 q 737 95 764 118 q 444 -18 604 -18 q 191 95 284 -18 q 126 368 98 208 q 287 642 154 528 q 580 755 420 755 q 833 642 740 755 q 892 549 852 618 l 742 497 q 713 540 721 530 q 555 610 655 610 q 372 539 455 610 q 271 368 288 469 q 311 198 253 269 q 469 127 370 127 q 653 197 570 127 q 696 239 664 207 m 637 954 l 808 954 l 590 765 l 456 765 l 637 954 z "},"Ĉ":{"ha":1114,"x_min":140,"x_max":1208,"o":"m 987 258 l 1075 164 q 637 -12 852 -12 q 273 151 407 -12 q 180 543 140 313 q 411 935 220 772 q 832 1097 602 1097 q 1208 922 1047 1097 l 1086 826 q 807 955 964 955 q 494 834 637 955 q 322 543 352 713 q 391 250 292 371 q 661 130 491 130 q 987 258 819 130 m 836 1186 l 783 1242 l 713 1186 l 564 1186 l 751 1348 l 850 1348 l 985 1186 l 836 1186 z "},"ĉ":{"ha":856,"x_min":98,"x_max":892,"o":"m 696 239 l 828 189 q 737 95 764 118 q 444 -18 604 -18 q 191 95 284 -18 q 126 368 98 208 q 287 642 154 528 q 580 755 420 755 q 833 642 740 755 q 892 549 852 618 l 742 497 q 713 540 721 530 q 555 610 655 610 q 372 539 455 610 q 271 368 288 469 q 311 198 253 269 q 469 127 370 127 q 653 197 570 127 q 696 239 664 207 m 629 799 l 577 854 l 507 799 l 358 799 l 545 960 l 644 960 l 779 799 l 629 799 z "},"Ċ":{"ha":1114,"x_min":140,"x_max":1208,"o":"m 987 258 l 1075 164 q 637 -12 852 -12 q 273 151 407 -12 q 180 543 140 313 q 411 935 220 772 q 832 1097 602 1097 q 1208 922 1047 1097 l 1086 826 q 807 955 964 955 q 494 834 637 955 q 322 543 352 713 q 391 250 292 371 q 661 130 491 130 q 987 258 819 130 m 806 1361 q 864 1335 842 1361 q 880 1272 886 1310 q 842 1208 873 1234 q 774 1182 811 1182 q 715 1208 737 1182 q 700 1272 693 1234 q 738 1335 707 1310 q 806 1361 768 1361 z "},"ċ":{"ha":856,"x_min":98,"x_max":892,"o":"m 696 239 l 828 189 q 737 95 764 118 q 444 -18 604 -18 q 191 95 284 -18 q 126 368 98 208 q 287 642 154 528 q 580 755 420 755 q 833 642 740 755 q 892 549 852 618 l 742 497 q 713 540 721 530 q 555 610 655 610 q 372 539 455 610 q 271 368 288 469 q 311 198 253 269 q 469 127 370 127 q 653 197 570 127 q 696 239 664 207 m 600 974 q 659 948 637 974 q 673 884 680 922 q 636 821 667 846 q 568 795 605 795 q 509 821 531 795 q 494 884 487 846 q 532 948 500 922 q 600 974 563 974 z "},"Č":{"ha":1114,"x_min":140,"x_max":1208,"o":"m 987 258 l 1075 164 q 637 -12 852 -12 q 273 151 407 -12 q 180 543 140 313 q 411 935 220 772 q 832 1097 602 1097 q 1208 922 1047 1097 l 1086 826 q 807 955 964 955 q 494 834 637 955 q 322 543 352 713 q 391 250 292 371 q 661 130 491 130 q 987 258 819 130 m 1014 1348 l 822 1186 l 722 1186 l 593 1348 l 741 1348 l 791 1292 l 864 1348 l 1014 1348 z "},"č":{"ha":856,"x_min":98,"x_max":892,"o":"m 696 239 l 828 189 q 737 95 764 118 q 444 -18 604 -18 q 191 95 284 -18 q 126 368 98 208 q 287 642 154 528 q 580 755 420 755 q 833 642 740 755 q 892 549 852 618 l 742 497 q 713 540 721 530 q 555 610 655 610 q 372 539 455 610 q 271 368 288 469 q 311 198 253 269 q 469 127 370 127 q 653 197 570 127 q 696 239 664 207 m 808 960 l 616 799 l 516 799 l 387 960 l 535 960 l 586 905 l 658 960 l 808 960 z "},"Ď":{"ha":848,"x_min":102,"x_max":916,"o":"m 408 942 l 267 142 q 561 250 435 142 q 733 543 703 371 q 664 835 763 713 q 408 942 576 942 m 396 1085 q 782 935 661 1084 q 875 543 916 772 q 644 150 834 313 q 205 0 469 1 l 102 0 l 293 1085 l 396 1085 m 888 1348 l 696 1186 l 597 1186 l 467 1348 l 616 1348 l 667 1292 l 739 1348 l 888 1348 z "},"ď":{"ha":1098,"x_min":121,"x_max":1274,"o":"m 763 316 l 781 420 q 736 539 781 486 q 578 610 679 610 q 395 539 478 610 q 294 368 311 468 q 334 197 276 268 q 493 127 393 127 q 676 197 593 127 q 763 316 739 251 m 822 650 l 899 1085 l 1040 1085 l 848 0 l 707 0 l 722 87 q 467 -18 602 -18 q 214 95 307 -18 q 150 368 121 208 q 311 642 178 528 q 604 755 444 755 q 822 650 739 755 m 1086 924 q 1069 994 1063 953 q 1111 1063 1077 1035 q 1185 1092 1145 1092 q 1250 1063 1225 1092 q 1266 994 1274 1035 q 1251 952 1263 972 l 1152 804 l 1023 804 l 1086 924 z "},"Đ":{"ha":848,"x_min":56,"x_max":916,"o":"m 210 612 l 293 1085 l 396 1085 q 782 935 661 1084 q 875 543 916 772 q 644 150 834 313 q 205 0 469 1 l 102 0 l 185 473 l 56 473 l 81 612 l 210 612 m 350 612 l 585 612 l 561 473 l 326 473 l 267 142 q 561 250 435 142 q 733 543 703 371 q 664 835 764 713 q 408 942 576 942 l 350 612 z "},"đ":{"ha":950,"x_min":121,"x_max":1135,"o":"m 763 316 l 781 420 q 736 539 781 486 q 578 610 679 610 q 395 539 478 610 q 294 368 311 468 q 334 197 276 268 q 493 127 393 127 q 676 197 593 127 q 763 316 739 251 m 995 831 l 848 0 l 707 0 l 722 87 q 467 -18 602 -18 q 214 95 307 -18 q 150 368 121 208 q 311 642 178 528 q 604 755 444 755 q 822 650 739 755 l 854 831 l 538 831 l 562 970 l 878 970 l 899 1085 l 1040 1085 l 1019 970 l 1135 970 l 1110 831 l 995 831 z "},"Ē":{"ha":771,"x_min":102,"x_max":878,"o":"m 878 1085 l 853 945 l 409 945 l 350 613 l 794 613 l 770 473 l 326 473 l 267 141 l 711 141 l 686 0 l 102 0 l 293 1085 l 878 1085 m 442 1362 l 827 1362 l 802 1221 l 417 1221 l 442 1362 z "},"ē":{"ha":856,"x_min":98,"x_max":865,"o":"m 347 158 q 469 127 376 127 q 653 197 570 127 q 696 239 664 207 l 828 189 q 737 95 764 118 q 444 -18 604 -18 q 191 95 284 -18 q 126 368 98 208 q 287 642 154 528 q 580 755 420 755 q 806 672 717 755 q 833 642 820 658 q 865 599 839 635 l 781 528 l 347 158 m 658 592 q 555 610 637 610 q 372 539 455 610 q 271 368 288 469 q 270 262 256 286 l 658 592 m 408 975 l 792 975 l 767 834 l 382 834 l 408 975 z "},"Ĕ":{"ha":771,"x_min":102,"x_max":878,"o":"m 878 1085 l 853 945 l 409 945 l 350 613 l 794 613 l 770 473 l 326 473 l 267 141 l 711 141 l 686 0 l 102 0 l 293 1085 l 878 1085 m 571 1345 q 580 1293 571 1303 q 619 1276 594 1276 q 665 1294 644 1276 q 690 1345 676 1303 l 819 1345 q 743 1222 790 1262 q 600 1166 679 1166 q 475 1222 521 1166 q 443 1345 440 1265 l 571 1345 z "},"ĕ":{"ha":856,"x_min":98,"x_max":865,"o":"m 347 158 q 469 127 376 127 q 653 197 570 127 q 696 239 664 207 l 828 189 q 737 95 764 118 q 444 -18 604 -18 q 191 95 284 -18 q 126 368 98 208 q 287 642 154 528 q 580 755 420 755 q 806 672 717 755 q 833 642 820 658 q 865 599 839 635 l 781 528 l 347 158 m 658 592 q 555 610 637 610 q 372 539 455 610 q 271 368 288 469 q 270 262 256 286 l 658 592 m 537 958 q 545 906 537 916 q 585 888 559 888 q 630 907 609 888 q 656 958 642 916 l 785 958 q 709 835 755 875 q 566 779 644 779 q 441 835 486 779 q 409 958 406 878 l 537 958 z "},"Ė":{"ha":771,"x_min":102,"x_max":878,"o":"m 878 1085 l 853 945 l 409 945 l 350 613 l 794 613 l 770 473 l 326 473 l 267 141 l 711 141 l 686 0 l 102 0 l 293 1085 l 878 1085 m 634 1361 q 693 1335 671 1361 q 708 1272 715 1310 q 670 1208 701 1234 q 603 1182 640 1182 q 544 1208 566 1182 q 528 1272 522 1234 q 566 1335 535 1310 q 634 1361 597 1361 z "},"ė":{"ha":856,"x_min":98,"x_max":865,"o":"m 347 158 q 469 127 376 127 q 653 197 570 127 q 696 239 664 207 l 828 189 q 737 95 764 118 q 444 -18 604 -18 q 191 95 284 -18 q 126 368 98 208 q 287 642 154 528 q 580 755 420 755 q 806 672 717 755 q 833 642 820 658 q 865 599 839 635 l 781 528 l 347 158 m 658 592 q 555 610 637 610 q 372 539 455 610 q 271 368 288 469 q 270 262 256 286 l 658 592 m 600 974 q 659 948 637 974 q 673 884 680 922 q 636 821 667 846 q 568 795 605 795 q 509 821 531 795 q 494 884 487 846 q 532 948 500 922 q 600 974 563 974 z "},"Ę":{"ha":771,"x_min":102,"x_max":878,"o":"m 460 0 l 102 0 l 293 1085 l 878 1085 l 853 945 l 409 945 l 350 613 l 794 613 l 770 473 l 326 473 l 267 141 l 711 141 l 686 0 l 581 0 q 532 -81 538 -48 q 533 -100 530 -92 q 559 -125 538 -125 q 631 -91 585 -125 l 652 -195 q 521 -229 564 -229 q 424 -184 456 -229 q 407 -96 398 -147 q 412 -72 409 -84 q 460 0 425 -35 z "},"ę":{"ha":856,"x_min":98,"x_max":865,"o":"m 658 592 q 555 610 637 610 q 372 539 455 610 q 271 368 288 469 q 270 262 256 286 l 658 592 m 494 -16 q 444 -18 469 -18 q 191 95 284 -18 q 126 368 98 208 q 287 642 154 528 q 580 755 420 755 q 806 672 717 755 q 833 642 820 658 q 865 599 839 635 l 781 528 l 347 158 q 469 127 376 127 q 653 197 570 127 q 696 239 664 207 l 828 189 q 737 95 764 118 q 689 58 713 75 q 580 -81 589 -31 q 581 -101 578 -92 q 607 -126 586 -126 q 678 -92 632 -126 l 699 -195 q 568 -229 610 -229 q 471 -184 503 -229 q 454 -96 445 -148 q 460 -73 456 -85 q 494 -16 469 -43 z "},"Ě":{"ha":771,"x_min":102,"x_max":878,"o":"m 878 1085 l 853 945 l 409 945 l 350 613 l 794 613 l 770 473 l 326 473 l 267 141 l 711 141 l 686 0 l 102 0 l 293 1085 l 878 1085 m 842 1348 l 650 1186 l 551 1186 l 421 1348 l 570 1348 l 620 1292 l 692 1348 l 842 1348 z "},"ě":{"ha":856,"x_min":98,"x_max":865,"o":"m 347 158 q 469 127 376 127 q 653 197 570 127 q 696 239 664 207 l 828 189 q 737 95 764 118 q 444 -18 604 -18 q 191 95 284 -18 q 126 368 98 208 q 287 642 154 528 q 580 755 420 755 q 806 672 717 755 q 833 642 820 658 q 865 599 839 635 l 781 528 l 347 158 m 658 592 q 555 610 637 610 q 372 539 455 610 q 271 368 288 469 q 270 262 256 286 l 658 592 m 808 960 l 616 799 l 516 799 l 387 960 l 535 960 l 586 905 l 658 960 l 808 960 z "},"Ĝ":{"ha":1131,"x_min":140,"x_max":1208,"o":"m 1048 149 q 637 -12 852 -12 q 273 151 407 -12 q 180 543 140 313 q 411 935 220 772 q 832 1097 602 1097 q 1208 922 1047 1097 l 1086 826 q 807 955 964 955 q 494 834 637 955 q 322 543 352 713 q 391 250 292 371 q 661 130 491 130 q 918 207 808 130 l 976 534 l 1116 534 l 1048 149 m 836 1186 l 783 1242 l 713 1186 l 564 1186 l 751 1348 l 850 1348 l 985 1186 l 836 1186 z "},"ĝ":{"ha":953,"x_min":110,"x_max":971,"o":"m 781 422 q 736 539 779 487 q 578 610 678 610 q 394 539 477 610 q 294 368 311 468 q 334 197 275 268 q 493 126 393 126 q 676 197 593 126 q 762 312 737 249 l 781 422 m 822 650 l 830 698 l 971 698 l 880 179 q 714 -135 844 -24 q 423 -235 583 -235 q 168 -135 263 -235 q 110 -41 149 -112 l 258 9 q 288 -33 280 -24 q 446 -104 347 -104 q 717 116 614 -104 q 469 -12 629 -12 q 215 98 309 -12 q 150 368 121 208 q 311 641 178 528 q 604 754 444 754 q 822 650 739 754 m 668 799 l 615 854 l 545 799 l 397 799 l 583 960 l 683 960 l 818 799 l 668 799 z "},"Ğ":{"ha":1131,"x_min":140,"x_max":1208,"o":"m 1048 149 q 637 -12 852 -12 q 273 151 407 -12 q 180 543 140 313 q 411 935 220 772 q 832 1097 602 1097 q 1208 922 1047 1097 l 1086 826 q 807 955 964 955 q 494 834 637 955 q 322 543 352 713 q 391 250 292 371 q 661 130 491 130 q 918 207 808 130 l 976 534 l 1116 534 l 1048 149 m 743 1345 q 751 1293 743 1303 q 791 1276 766 1276 q 836 1294 815 1276 q 862 1345 848 1303 l 991 1345 q 915 1222 961 1262 q 771 1166 850 1166 q 647 1222 692 1166 q 614 1345 612 1265 l 743 1345 z "},"ğ":{"ha":953,"x_min":110,"x_max":971,"o":"m 781 422 q 736 539 779 487 q 578 610 678 610 q 394 539 477 610 q 294 368 311 468 q 334 197 275 268 q 493 126 393 126 q 676 197 593 126 q 762 312 737 249 l 781 422 m 822 650 l 830 698 l 971 698 l 880 179 q 714 -135 844 -24 q 423 -235 583 -235 q 168 -135 263 -235 q 110 -41 149 -112 l 258 9 q 288 -33 280 -24 q 446 -104 347 -104 q 717 116 614 -104 q 469 -12 629 -12 q 215 98 309 -12 q 150 368 121 208 q 311 641 178 528 q 604 754 444 754 q 822 650 739 754 m 575 958 q 584 906 575 916 q 623 888 598 888 q 669 907 648 888 q 694 958 680 916 l 823 958 q 747 835 794 875 q 604 779 683 779 q 479 835 525 779 q 447 958 444 878 l 575 958 z "},"Ġ":{"ha":1131,"x_min":140,"x_max":1208,"o":"m 1048 149 q 637 -12 852 -12 q 273 151 407 -12 q 180 543 140 313 q 411 935 220 772 q 832 1097 602 1097 q 1208 922 1047 1097 l 1086 826 q 807 955 964 955 q 494 834 637 955 q 322 543 352 713 q 391 250 292 371 q 661 130 491 130 q 918 207 808 130 l 976 534 l 1116 534 l 1048 149 m 806 1361 q 864 1335 842 1361 q 880 1272 886 1310 q 842 1208 873 1234 q 774 1182 811 1182 q 715 1208 737 1182 q 700 1272 693 1234 q 738 1335 707 1310 q 806 1361 768 1361 z "},"ġ":{"ha":953,"x_min":110,"x_max":971,"o":"m 781 422 q 736 539 779 487 q 578 610 678 610 q 394 539 477 610 q 294 368 311 468 q 334 197 275 268 q 493 126 393 126 q 676 197 593 126 q 762 312 737 249 l 781 422 m 822 650 l 830 698 l 971 698 l 880 179 q 714 -135 844 -24 q 423 -235 583 -235 q 168 -135 263 -235 q 110 -41 149 -112 l 258 9 q 288 -33 280 -24 q 446 -104 347 -104 q 717 116 614 -104 q 469 -12 629 -12 q 215 98 309 -12 q 150 368 121 208 q 311 641 178 528 q 604 754 444 754 q 822 650 739 754 m 638 974 q 697 948 675 974 q 712 884 719 922 q 674 821 705 846 q 607 795 644 795 q 548 821 570 795 q 532 884 526 846 q 570 948 539 922 q 638 974 601 974 z "},"Ģ":{"ha":1131,"x_min":140,"x_max":1208,"o":"m 528 -1 q 273 151 374 28 q 180 543 140 313 q 411 935 220 772 q 832 1097 602 1097 q 1208 922 1047 1097 l 1086 826 q 807 955 964 955 q 494 834 637 955 q 322 543 352 713 q 391 250 292 371 q 661 130 491 130 q 918 207 808 130 l 976 534 l 1116 534 l 1048 149 q 637 -12 852 -12 l 624 -12 l 614 -30 q 667 -90 659 -56 q 669 -109 669 -100 q 668 -126 669 -117 q 637 -181 663 -155 q 531 -231 597 -221 q 500 -233 517 -233 q 401 -222 461 -233 l 440 -137 q 500 -155 476 -155 q 508 -154 505 -155 q 539 -130 529 -151 q 543 -120 542 -125 q 543 -115 543 -117 q 488 -77 543 -96 l 528 -1 z "},"ģ":{"ha":953,"x_min":110,"x_max":971,"o":"m 781 422 q 736 539 779 487 q 578 610 678 610 q 394 539 477 610 q 294 368 311 468 q 334 197 275 268 q 493 126 393 126 q 676 197 593 126 q 762 312 737 249 l 781 422 m 822 650 l 830 698 l 971 698 l 880 179 q 714 -135 844 -24 q 423 -235 583 -235 q 168 -135 263 -235 q 110 -41 149 -112 l 258 9 q 288 -33 280 -24 q 446 -104 347 -104 q 717 116 614 -104 q 469 -12 629 -12 q 215 98 309 -12 q 150 368 121 208 q 311 641 178 528 q 604 754 444 754 q 822 650 739 754 m 705 971 q 722 901 729 943 q 681 832 715 861 q 606 804 647 804 q 542 832 566 804 q 525 901 518 861 q 541 943 529 923 l 640 1092 l 768 1092 l 705 971 z "},"Ĥ":{"ha":819,"x_min":102,"x_max":909,"o":"m 321 449 l 242 0 l 102 0 l 293 1085 l 433 1085 l 346 589 l 681 589 l 768 1085 l 909 1085 l 718 0 l 577 0 l 656 449 l 321 449 m 680 1186 l 627 1242 l 557 1186 l 408 1186 l 595 1348 l 694 1348 l 829 1186 l 680 1186 z "},"ĥ":{"ha":763,"x_min":102,"x_max":829,"o":"m 293 1085 l 434 1085 l 353 623 q 543 736 431 736 q 708 655 655 736 q 741 454 761 575 l 661 0 l 521 0 l 600 448 q 584 552 610 509 q 484 595 557 595 q 331 501 396 595 l 243 0 l 102 0 l 293 1085 m 680 1186 l 627 1242 l 557 1186 l 408 1186 l 595 1348 l 694 1348 l 829 1186 l 680 1186 z "},"Ħ":{"ha":819,"x_min":102,"x_max":979,"o":"m 861 810 l 718 0 l 577 0 l 656 449 l 321 449 l 242 0 l 102 0 l 245 810 l 151 810 l 176 949 l 269 949 l 293 1085 l 433 1085 l 410 949 l 745 949 l 768 1085 l 909 1085 l 885 949 l 979 949 l 954 810 l 861 810 m 385 810 l 346 589 l 681 589 l 720 810 l 385 810 z "},"ħ":{"ha":763,"x_min":102,"x_max":761,"o":"m 273 970 l 293 1085 l 434 1085 l 414 970 l 716 970 l 692 831 l 389 831 l 353 623 q 543 736 431 736 q 708 655 655 736 q 741 454 761 575 l 661 0 l 521 0 l 600 448 q 584 552 610 509 q 484 595 557 595 q 331 501 396 595 l 243 0 l 102 0 l 248 831 l 153 831 l 178 970 l 273 970 z "},"Ĩ":{"ha":372,"x_min":115,"x_max":638,"o":"m 447 1085 l 256 0 l 115 0 l 307 1085 l 447 1085 m 435 1320 q 452 1300 435 1320 q 488 1280 470 1280 l 488 1280 q 513 1306 508 1280 q 512 1353 515 1324 l 638 1353 q 508 1182 586 1204 q 469 1177 488 1177 q 386 1215 419 1177 q 333 1254 352 1254 l 330 1254 q 305 1227 310 1253 q 307 1183 302 1211 l 180 1183 q 311 1354 233 1332 q 350 1359 331 1359 q 435 1320 399 1359 z "},"ĩ":{"ha":372,"x_min":112,"x_max":570,"o":"m 379 699 l 256 0 l 115 0 l 239 699 l 379 699 m 367 932 q 384 913 367 932 q 419 893 401 893 l 419 892 q 444 919 439 892 q 444 966 448 937 l 570 966 q 440 795 517 817 q 401 789 420 789 q 317 828 351 789 q 265 867 284 867 l 262 867 q 237 840 241 865 q 239 795 234 823 l 112 795 q 243 966 165 945 q 282 972 263 972 q 367 932 332 972 z "},"Ī":{"ha":372,"x_min":115,"x_max":618,"o":"m 447 1085 l 256 0 l 115 0 l 307 1085 l 447 1085 m 233 1362 l 618 1362 l 593 1221 l 209 1221 l 233 1362 z "},"ī":{"ha":372,"x_min":115,"x_max":549,"o":"m 379 699 l 256 0 l 115 0 l 239 699 l 379 699 m 165 975 l 549 975 l 525 834 l 140 834 l 165 975 z "},"Ĭ":{"ha":372,"x_min":115,"x_max":611,"o":"m 447 1085 l 256 0 l 115 0 l 307 1085 l 447 1085 m 363 1345 q 371 1293 363 1303 q 411 1276 386 1276 q 456 1294 435 1276 q 482 1345 468 1303 l 611 1345 q 535 1222 581 1262 q 391 1166 470 1166 q 267 1222 312 1166 q 235 1345 232 1265 l 363 1345 z "},"ĭ":{"ha":372,"x_min":115,"x_max":543,"o":"m 379 699 l 256 0 l 115 0 l 239 699 l 379 699 m 294 958 q 303 906 294 916 q 342 888 317 888 q 388 907 367 888 q 414 958 399 916 l 543 958 q 467 835 513 875 q 323 779 402 779 q 199 835 244 779 q 166 958 163 878 l 294 958 z "},"Į":{"ha":372,"x_min":-33,"x_max":447,"o":"m 127 68 l 307 1085 l 447 1085 l 256 0 l 151 0 q 102 -81 108 -48 q 102 -100 100 -92 q 130 -125 109 -125 q 201 -91 155 -125 l 222 -195 q 90 -229 133 -229 q -7 -184 26 -229 q -24 -96 -33 -147 q -18 -72 -22 -84 q 127 68 6 3 z "},"į":{"ha":367,"x_min":-6,"x_max":446,"o":"m 357 985 q 421 956 397 985 q 439 886 446 928 q 397 817 431 845 q 322 788 363 788 q 258 817 282 788 q 241 886 234 845 q 282 956 248 928 q 357 985 317 985 m 122 50 l 237 698 l 377 698 l 254 0 l 178 0 q 128 -81 134 -48 q 129 -100 126 -92 q 156 -125 135 -125 q 227 -91 181 -125 l 248 -195 q 117 -229 159 -229 q 20 -184 52 -229 q 3 -96 -6 -147 q 9 -72 5 -84 q 122 50 29 -7 z "},"ı":{"ha":372,"x_min":115,"x_max":379,"o":"m 379 699 l 256 0 l 115 0 l 239 699 l 379 699 z "},"Ĳ":{"ha":1007,"x_min":115,"x_max":1093,"o":"m 447 1085 l 256 0 l 115 0 l 307 1085 l 447 1085 m 942 233 q 850 58 922 120 q 679 -9 772 -9 q 532 57 586 -9 q 498 233 478 123 l 616 277 q 642 150 617 174 q 697 132 661 132 l 700 132 q 768 157 739 132 q 803 239 792 178 l 952 1085 l 1093 1085 l 942 233 z "},"ĳ":{"ha":747,"x_min":113,"x_max":808,"o":"m 376 698 l 254 0 l 113 0 l 236 698 l 376 698 m 357 985 q 421 956 397 985 q 438 886 446 928 q 397 817 431 845 q 322 788 363 788 q 258 817 282 788 q 241 886 234 845 q 282 956 248 928 q 357 985 317 985 m 399 -7 q 484 41 476 1 l 599 698 l 739 698 l 624 42 q 374 -146 593 -130 l 399 -7 m 720 985 q 784 956 760 985 q 801 886 808 928 q 760 817 794 845 q 685 788 726 788 q 621 817 645 788 q 604 886 597 845 q 645 956 611 928 q 720 985 680 985 z "},"Ĵ":{"ha":635,"x_min":106,"x_max":863,"o":"m 570 233 q 478 58 551 120 q 307 -9 401 -9 q 160 57 214 -9 q 126 233 106 123 l 245 277 q 271 150 245 174 q 326 132 289 132 l 328 132 q 397 157 367 132 q 431 239 420 178 l 581 1085 l 721 1085 l 570 233 m 713 1186 l 660 1242 l 590 1186 l 441 1186 l 628 1348 l 728 1348 l 863 1186 l 713 1186 z "},"ĵ":{"ha":465,"x_min":76,"x_max":587,"o":"m 100 -7 q 185 41 178 1 l 301 698 l 441 698 l 326 42 q 76 -146 295 -130 l 100 -7 m 437 779 l 385 835 l 315 779 l 166 779 l 353 941 l 452 941 l 587 779 l 437 779 z "},"Ķ":{"ha":818,"x_min":102,"x_max":867,"o":"m 332 512 l 242 0 l 102 0 l 293 1085 l 433 1085 l 373 743 l 690 1085 l 867 1085 l 456 639 l 758 0 l 587 0 l 344 524 l 332 512 m 456 12 l 433 -30 q 488 -90 479 -56 q 489 -109 488 -100 q 488 -126 489 -117 q 457 -181 483 -155 q 351 -231 417 -221 q 321 -233 338 -233 q 221 -222 281 -233 l 260 -137 q 320 -155 296 -155 q 328 -154 324 -155 q 359 -130 349 -151 q 363 -120 361 -125 q 363 -115 363 -117 q 307 -77 362 -96 l 355 12 l 456 12 z "},"ķ":{"ha":640,"x_min":102,"x_max":655,"o":"m 655 698 l 425 465 l 606 0 l 439 0 l 310 348 l 303 340 l 243 0 l 102 0 l 271 960 l 412 960 l 342 565 l 474 698 l 655 698 m 425 12 l 402 -30 q 456 -90 448 -56 q 458 -109 457 -100 q 456 -126 458 -117 q 426 -181 452 -155 q 319 -231 386 -221 q 290 -233 307 -233 q 190 -222 250 -233 l 229 -137 q 289 -155 264 -155 q 296 -154 293 -155 q 328 -130 318 -151 q 332 -120 330 -125 q 332 -115 332 -117 q 276 -77 331 -96 l 324 12 l 425 12 z "},"ĸ":{"ha":640,"x_min":102,"x_max":655,"o":"m 655 699 l 425 465 l 606 0 l 438 0 l 310 349 l 302 341 l 242 0 l 102 0 l 225 699 l 366 699 l 342 565 l 474 699 l 655 699 z "},"Ĺ":{"ha":691,"x_min":102,"x_max":767,"o":"m 102 0 l 293 1085 l 433 1085 l 267 141 l 655 141 l 630 0 l 102 0 m 638 1314 l 767 1314 l 595 1124 l 494 1124 l 638 1314 z "},"ĺ":{"ha":345,"x_min":102,"x_max":564,"o":"m 435 1086 l 243 0 l 102 0 l 294 1086 l 435 1086 m 435 1314 l 564 1314 l 392 1124 l 292 1124 l 435 1314 z "},"Ļ":{"ha":691,"x_min":102,"x_max":655,"o":"m 330 0 l 102 0 l 293 1085 l 433 1085 l 267 141 l 655 141 l 630 0 l 431 0 l 414 -30 q 469 -90 460 -56 q 470 -109 469 -100 q 469 -126 470 -117 q 438 -181 464 -155 q 332 -231 398 -221 q 302 -233 319 -233 q 202 -222 262 -233 l 241 -137 q 301 -155 277 -155 q 309 -154 305 -155 q 340 -130 330 -151 q 344 -120 342 -125 q 344 -115 344 -117 q 288 -77 343 -96 l 330 0 z "},"ļ":{"ha":345,"x_min":-1,"x_max":435,"o":"m 127 0 l 102 0 l 294 1086 l 435 1086 l 243 0 l 227 0 l 211 -30 q 264 -90 256 -56 q 267 -109 266 -100 q 265 -126 267 -117 q 235 -181 260 -155 q 128 -231 194 -221 q 98 -233 115 -233 q -1 -222 58 -233 l 37 -137 q 98 -155 73 -155 q 105 -154 102 -155 q 136 -130 127 -151 q 140 -120 139 -125 q 140 -115 140 -117 q 85 -77 140 -96 l 127 0 z "},"Ľ":{"ha":648,"x_min":86,"x_max":765,"o":"m 86 0 l 277 1085 l 418 1085 l 252 141 l 633 141 l 608 0 l 86 0 m 577 924 q 561 994 554 953 q 602 1063 568 1035 q 677 1092 636 1092 q 741 1063 717 1092 q 758 994 765 1035 q 743 952 754 972 l 643 804 l 515 804 l 577 924 z "},"ľ":{"ha":460,"x_min":86,"x_max":629,"o":"m 418 1085 l 227 0 l 86 0 l 277 1085 l 418 1085 m 441 924 q 425 994 418 953 q 467 1063 433 1035 q 541 1092 500 1092 q 605 1063 581 1092 q 622 994 629 1035 q 607 952 618 972 l 507 804 l 379 804 l 441 924 z "},"Ŀ":{"ha":648,"x_min":86,"x_max":682,"o":"m 86 0 l 277 1085 l 418 1085 l 252 141 l 633 141 l 608 0 l 86 0 m 602 632 q 660 606 638 632 q 675 543 682 580 q 638 479 669 505 q 570 453 607 453 q 511 479 534 453 q 496 543 489 505 q 534 606 503 580 q 602 632 565 632 z "},"ŀ":{"ha":404,"x_min":76,"x_max":540,"o":"m 408 1085 l 217 0 l 76 0 l 267 1085 l 408 1085 m 459 632 q 517 606 495 632 q 533 543 540 580 q 495 479 526 505 q 428 453 464 453 q 369 479 391 453 q 353 543 347 505 q 391 606 360 580 q 459 632 422 632 z "},"Ł":{"ha":704,"x_min":38,"x_max":719,"o":"m 394 623 l 719 854 l 688 680 l 363 448 l 309 141 l 690 141 l 665 0 l 143 0 l 201 333 l 38 217 l 68 392 l 233 508 l 334 1085 l 475 1085 l 394 623 z "},"ł":{"ha":351,"x_min":54,"x_max":486,"o":"m 204 566 l 296 1085 l 437 1085 l 366 681 l 486 766 l 454 591 l 334 505 l 245 0 l 104 0 l 173 391 l 54 305 l 84 480 l 204 566 z "},"Ń":{"ha":920,"x_min":102,"x_max":1010,"o":"m 293 1085 l 421 1085 l 732 311 l 869 1085 l 1010 1085 l 819 0 l 696 0 l 380 784 l 242 0 l 102 0 l 293 1085 m 738 1341 l 909 1341 l 691 1152 l 557 1152 l 738 1341 z "},"ń":{"ha":772,"x_min":102,"x_max":768,"o":"m 333 511 l 243 0 l 102 0 l 224 698 l 366 698 l 351 616 q 549 736 416 736 q 715 655 663 736 q 749 454 768 575 l 669 0 l 528 0 l 608 448 q 582 552 618 509 q 484 595 545 595 q 372 553 424 595 q 333 511 343 528 m 595 954 l 766 954 l 548 765 l 414 765 l 595 954 z "},"Ņ":{"ha":920,"x_min":102,"x_max":1010,"o":"m 293 1085 l 421 1085 l 732 311 l 869 1085 l 1010 1085 l 819 0 l 696 0 l 380 784 l 242 0 l 102 0 l 293 1085 m 531 12 l 509 -30 q 562 -90 554 -56 q 564 -109 564 -100 q 563 -126 564 -117 q 532 -181 557 -155 q 426 -231 492 -221 q 395 -233 412 -233 q 296 -222 356 -233 l 335 -137 q 395 -155 370 -155 q 402 -154 399 -155 q 434 -130 424 -151 q 437 -120 437 -125 q 438 -115 438 -117 q 382 -77 437 -96 l 430 12 l 531 12 z "},"ņ":{"ha":772,"x_min":102,"x_max":768,"o":"m 333 511 l 243 0 l 102 0 l 224 698 l 366 698 l 351 616 q 549 736 416 736 q 715 655 663 736 q 749 454 768 575 l 669 0 l 528 0 l 608 448 q 582 552 618 509 q 484 595 545 595 q 372 553 424 595 q 333 511 343 528 m 456 12 l 433 -30 q 488 -90 479 -56 q 489 -109 488 -100 q 488 -126 489 -117 q 457 -181 483 -155 q 351 -231 417 -221 q 321 -233 338 -233 q 221 -222 281 -233 l 260 -137 q 320 -155 296 -155 q 328 -154 324 -155 q 359 -130 349 -151 q 363 -120 361 -125 q 363 -115 363 -117 q 307 -77 362 -96 l 355 12 l 456 12 z "},"Ň":{"ha":920,"x_min":102,"x_max":1010,"o":"m 293 1085 l 421 1085 l 732 311 l 869 1085 l 1010 1085 l 819 0 l 696 0 l 380 784 l 242 0 l 102 0 l 293 1085 m 908 1348 l 716 1186 l 616 1186 l 487 1348 l 635 1348 l 686 1292 l 758 1348 l 908 1348 z "},"ň":{"ha":772,"x_min":102,"x_max":768,"o":"m 333 511 l 243 0 l 102 0 l 224 698 l 366 698 l 351 616 q 549 736 416 736 q 715 655 663 736 q 749 454 768 575 l 669 0 l 528 0 l 608 448 q 582 552 618 509 q 484 595 545 595 q 372 553 424 595 q 333 511 343 528 m 765 960 l 573 799 l 473 799 l 344 960 l 492 960 l 543 905 l 615 960 l 765 960 z "},"ŉ":{"ha":772,"x_min":40,"x_max":768,"o":"m 333 511 l 243 0 l 102 0 l 224 698 l 366 698 l 351 616 q 549 736 416 736 q 715 655 663 736 q 749 454 768 575 l 669 0 l 528 0 l 608 448 q 582 552 618 509 q 484 595 545 595 q 372 553 424 595 q 333 511 343 528 m 102 924 q 87 994 79 953 q 127 1063 94 1035 q 202 1092 161 1092 q 266 1063 242 1092 q 283 994 290 1035 q 268 952 279 972 l 168 804 l 40 804 l 102 924 z "},"Ŋ":{"ha":920,"x_min":102,"x_max":1010,"o":"m 684 31 l 380 784 l 242 0 l 102 0 l 293 1085 l 421 1085 l 732 311 l 795 675 l 796 675 l 869 1085 l 1010 1085 l 819 0 l 816 0 q 631 -226 783 -157 l 570 -143 q 681 10 667 -68 q 684 31 683 24 z "},"ŋ":{"ha":770,"x_min":102,"x_max":768,"o":"m 602 425 l 607 448 q 581 552 617 509 q 484 595 545 595 q 372 553 424 595 q 332 511 342 528 l 242 0 l 102 0 l 225 699 l 366 699 l 351 616 q 536 736 410 736 q 701 655 635 736 q 748 454 768 575 l 668 0 l 665 0 q 486 -229 629 -136 l 416 -143 q 530 19 501 -90 l 602 425 l 602 425 z "},"Ō":{"ha":1281,"x_min":140,"x_max":1333,"o":"m 834 1099 q 1198 937 1064 1099 q 1292 544 1333 774 q 1060 151 1251 314 q 638 -12 868 -12 q 274 151 408 -12 q 181 544 140 314 q 413 937 222 774 q 834 1099 604 1099 m 809 958 q 495 837 637 958 q 323 544 353 715 q 392 251 292 372 q 663 130 492 130 q 977 251 835 130 q 1150 544 1120 372 q 1080 837 1180 715 q 809 958 981 958 m 688 1362 l 1073 1362 l 1048 1221 l 663 1221 l 688 1362 z "},"ō":{"ha":894,"x_min":98,"x_max":926,"o":"m 580 755 q 833 642 740 755 q 898 368 926 528 q 736 95 869 208 q 444 -18 604 -18 q 191 95 284 -18 q 126 368 98 208 q 287 642 154 528 q 580 755 420 755 m 555 610 q 371 539 454 610 q 270 368 288 468 q 311 197 252 268 q 469 127 369 127 q 653 197 570 127 q 754 368 736 268 q 713 539 772 468 q 555 610 655 610 m 427 975 l 811 975 l 786 834 l 401 834 l 427 975 z "},"Ŏ":{"ha":1281,"x_min":140,"x_max":1333,"o":"m 834 1099 q 1198 937 1064 1099 q 1292 544 1333 774 q 1060 151 1251 314 q 638 -12 868 -12 q 274 151 408 -12 q 181 544 140 314 q 413 937 222 774 q 834 1099 604 1099 m 809 958 q 495 837 637 958 q 323 544 353 715 q 392 251 292 372 q 663 130 492 130 q 977 251 835 130 q 1150 544 1120 372 q 1080 837 1180 715 q 809 958 981 958 m 818 1345 q 826 1293 818 1303 q 866 1276 841 1276 q 911 1294 890 1276 q 937 1345 923 1303 l 1066 1345 q 990 1222 1036 1262 q 846 1166 925 1166 q 722 1222 767 1166 q 690 1345 687 1265 l 818 1345 z "},"ŏ":{"ha":894,"x_min":98,"x_max":926,"o":"m 580 755 q 833 642 740 755 q 898 368 926 528 q 736 95 869 208 q 444 -18 604 -18 q 191 95 284 -18 q 126 368 98 208 q 287 642 154 528 q 580 755 420 755 m 555 610 q 371 539 454 610 q 270 368 288 468 q 311 197 252 268 q 469 127 369 127 q 653 197 570 127 q 754 368 736 268 q 713 539 772 468 q 555 610 655 610 m 556 958 q 564 906 556 916 q 604 888 578 888 q 649 907 628 888 q 675 958 661 916 l 804 958 q 728 835 774 875 q 585 779 663 779 q 460 835 505 779 q 428 958 425 878 l 556 958 z "},"Ő":{"ha":1281,"x_min":140,"x_max":1333,"o":"m 834 1099 q 1198 937 1064 1099 q 1292 544 1333 774 q 1060 151 1251 314 q 638 -12 868 -12 q 274 151 408 -12 q 181 544 140 314 q 413 937 222 774 q 834 1099 604 1099 m 809 958 q 495 837 637 958 q 323 544 353 715 q 392 251 292 372 q 663 130 492 130 q 977 251 835 130 q 1150 544 1120 372 q 1080 837 1180 715 q 809 958 981 958 m 895 1358 l 713 1175 l 587 1175 l 682 1358 l 895 1358 m 1140 1358 l 958 1175 l 832 1175 l 926 1358 l 1140 1358 z "},"ő":{"ha":894,"x_min":98,"x_max":926,"o":"m 580 755 q 833 642 740 755 q 898 368 926 528 q 736 95 869 208 q 444 -18 604 -18 q 191 95 284 -18 q 126 368 98 208 q 287 642 154 528 q 580 755 420 755 m 555 610 q 371 539 454 610 q 270 368 288 468 q 311 197 252 268 q 469 127 369 127 q 653 197 570 127 q 754 368 736 268 q 713 539 772 468 q 555 610 655 610 m 633 971 l 451 787 l 326 787 l 420 971 l 633 971 m 878 971 l 696 787 l 570 787 l 665 971 l 878 971 z "},"Œ":{"ha":1531,"x_min":117,"x_max":1637,"o":"m 1176 945 q 1278 613 1300 784 l 1554 613 l 1529 473 l 1253 473 q 1033 141 1214 302 l 1471 141 l 1446 0 l 782 0 q 614 -12 704 -12 q 251 151 385 -12 q 157 544 117 314 q 389 937 198 774 q 810 1099 581 1099 q 974 1085 901 1099 l 1637 1085 l 1613 945 l 1176 945 m 1130 569 q 1057 837 1150 724 q 975 909 1021 881 q 928 932 952 922 q 785 958 865 958 q 471 837 614 958 q 299 544 329 715 q 369 251 269 372 q 640 130 469 130 q 791 155 719 130 q 846 179 819 165 q 954 251 901 206 q 1121 517 1085 363 q 1126 544 1124 530 q 1130 569 1128 557 z "},"œ":{"ha":1481,"x_min":98,"x_max":1490,"o":"m 901 395 q 898 368 900 382 q 890 336 895 352 q 895 262 884 281 l 1283 592 q 1180 610 1263 610 q 997 540 1080 610 q 901 395 924 478 m 747 338 q 751 368 749 353 q 758 398 754 383 q 713 539 762 479 q 555 610 655 610 q 371 539 454 610 q 270 368 288 468 q 311 197 252 268 q 469 127 369 127 q 653 197 570 127 q 747 338 724 257 m 785 141 q 736 95 762 117 q 444 -18 604 -18 q 191 95 284 -18 q 126 368 98 208 q 287 642 154 528 q 580 755 420 755 q 833 642 740 755 q 865 595 851 619 q 913 642 886 619 q 1205 755 1046 755 q 1431 672 1342 755 q 1459 642 1445 658 q 1490 599 1464 635 l 1407 528 l 972 158 q 1095 127 1002 127 q 1278 197 1195 127 q 1322 239 1289 207 l 1453 189 q 1362 95 1390 118 q 1069 -18 1229 -18 q 817 95 909 -18 q 785 141 798 117 z "},"Ŕ":{"ha":794,"x_min":102,"x_max":892,"o":"m 408 944 l 328 488 l 456 488 q 629 555 550 488 q 724 717 707 622 q 685 878 741 811 q 536 944 630 944 l 408 944 m 431 347 l 303 347 l 242 0 l 102 0 l 293 1085 l 601 1085 q 803 977 729 1067 q 865 717 892 869 q 711 455 838 564 q 582 371 623 380 l 758 0 l 587 0 l 431 347 m 707 1341 l 878 1341 l 661 1152 l 527 1152 l 707 1341 z "},"ŕ":{"ha":470,"x_min":102,"x_max":649,"o":"m 349 604 q 562 715 446 710 l 536 570 q 405 520 458 566 q 305 359 325 452 l 242 0 l 102 0 l 224 698 l 365 698 l 349 604 m 478 954 l 649 954 l 431 765 l 298 765 l 478 954 z "},"Ŗ":{"ha":794,"x_min":102,"x_max":892,"o":"m 408 944 l 328 488 l 456 488 q 629 555 550 488 q 724 717 707 622 q 685 878 741 811 q 536 944 630 944 l 408 944 m 431 347 l 303 347 l 242 0 l 102 0 l 293 1085 l 601 1085 q 803 977 729 1067 q 865 717 892 869 q 711 455 838 564 q 582 371 623 380 l 758 0 l 587 0 l 431 347 m 362 12 q 494 -90 484 -28 q 496 -109 496 -100 q 495 -126 496 -117 q 464 -181 490 -155 q 358 -231 424 -221 q 328 -233 345 -233 q 229 -222 288 -233 l 267 -137 q 327 -155 302 -155 q 334 -154 331 -155 q 366 -130 356 -151 q 370 -120 369 -125 q 370 -115 370 -117 q 315 -77 370 -96 l 362 12 z "},"ŗ":{"ha":470,"x_min":102,"x_max":562,"o":"m 349 604 q 562 715 447 710 l 536 570 q 406 520 459 566 q 306 359 326 452 l 243 0 l 102 0 l 225 698 l 366 698 l 349 604 m 261 12 q 393 -90 383 -28 q 395 -109 394 -100 q 393 -126 395 -117 q 363 -181 389 -155 q 256 -231 323 -221 q 227 -233 243 -233 q 127 -222 187 -233 l 165 -137 q 226 -155 201 -155 q 233 -154 230 -155 q 264 -130 255 -151 q 269 -120 267 -125 q 269 -115 269 -117 q 213 -77 268 -96 l 261 12 z "},"Ř":{"ha":794,"x_min":102,"x_max":892,"o":"m 408 944 l 328 488 l 456 488 q 629 555 550 488 q 724 717 707 622 q 685 878 741 811 q 536 944 630 944 l 408 944 m 431 347 l 303 347 l 242 0 l 102 0 l 293 1085 l 601 1085 q 803 977 729 1067 q 865 717 892 869 q 711 455 838 564 q 582 371 623 380 l 758 0 l 587 0 l 431 347 m 878 1348 l 686 1186 l 586 1186 l 456 1348 l 605 1348 l 656 1292 l 728 1348 l 878 1348 z "},"ř":{"ha":470,"x_min":102,"x_max":649,"o":"m 349 604 q 562 715 447 710 l 536 570 q 406 520 459 566 q 306 359 326 452 l 243 0 l 102 0 l 225 698 l 366 698 l 349 604 m 649 960 l 457 799 l 357 799 l 228 960 l 376 960 l 427 905 l 499 960 l 649 960 z "},"Ś":{"ha":747,"x_min":85,"x_max":822,"o":"m 476 557 q 309 667 368 595 q 269 844 250 739 q 374 1023 287 948 q 568 1097 462 1097 q 734 1023 672 1097 q 781 894 768 983 l 645 844 q 617 925 633 906 q 543 958 589 958 q 456 925 495 958 q 409 844 417 892 q 428 764 401 797 q 519 696 458 727 q 713 566 640 655 q 770 328 795 468 q 628 88 745 187 q 372 -12 511 -12 q 150 88 231 -12 q 88 307 85 168 l 233 357 q 267 186 225 237 q 397 128 315 128 q 547 186 479 128 q 631 328 616 245 q 597 468 645 410 q 476 557 551 524 m 651 1341 l 822 1341 l 604 1152 l 471 1152 l 651 1341 z "},"ś":{"ha":598,"x_min":113,"x_max":686,"o":"m 258 194 q 269 150 259 163 q 325 125 290 125 q 389 150 359 125 q 424 210 418 174 q 410 269 430 245 q 347 321 396 286 q 252 395 278 363 q 220 528 205 450 q 299 663 233 607 q 443 719 364 719 q 564 666 522 719 q 597 583 595 629 l 454 543 q 448 566 452 560 q 418 578 439 578 q 381 563 398 578 q 360 528 363 549 q 368 494 356 508 q 419 452 379 481 q 526 368 495 406 q 564 210 581 302 q 471 51 548 117 q 300 -16 393 -16 q 153 51 207 -16 q 113 164 115 96 l 258 194 m 515 954 l 686 954 l 468 765 l 334 765 l 515 954 z "},"Ŝ":{"ha":747,"x_min":85,"x_max":795,"o":"m 476 557 q 309 667 368 595 q 269 844 250 739 q 374 1023 287 948 q 568 1097 462 1097 q 734 1023 672 1097 q 781 894 768 983 l 645 844 q 617 925 633 906 q 543 958 589 958 q 456 925 495 958 q 409 844 417 892 q 428 764 401 797 q 519 696 458 727 q 713 566 640 655 q 770 328 795 468 q 628 88 745 187 q 372 -12 511 -12 q 150 88 231 -12 q 88 307 85 168 l 233 357 q 267 186 225 237 q 397 128 315 128 q 547 186 479 128 q 631 328 616 245 q 597 468 645 410 q 476 557 551 524 m 643 1186 l 591 1242 l 520 1186 l 372 1186 l 558 1348 l 658 1348 l 793 1186 l 643 1186 z "},"ŝ":{"ha":598,"x_min":113,"x_max":657,"o":"m 258 194 q 269 150 259 163 q 325 125 290 125 q 389 150 359 125 q 424 210 418 174 q 410 269 430 245 q 347 321 396 286 q 252 395 278 363 q 220 528 205 450 q 299 663 233 607 q 443 719 364 719 q 564 666 522 719 q 597 583 595 629 l 454 543 q 448 566 452 560 q 418 578 439 578 q 381 563 398 578 q 360 528 363 549 q 368 494 356 508 q 419 452 379 481 q 526 368 495 406 q 564 210 581 302 q 471 51 548 117 q 300 -16 393 -16 q 153 51 207 -16 q 113 164 115 96 l 258 194 m 507 799 l 455 854 l 385 799 l 236 799 l 422 960 l 522 960 l 657 799 l 507 799 z "},"Ş":{"ha":747,"x_min":85,"x_max":795,"o":"m 332 -9 q 150 88 220 3 q 88 307 85 168 l 233 357 q 267 186 225 237 q 397 128 315 128 q 547 186 479 128 q 631 328 616 245 q 597 468 645 410 q 476 557 551 524 q 309 667 368 595 q 269 844 250 739 q 374 1023 287 948 q 568 1097 462 1097 q 734 1023 672 1097 q 781 894 768 983 l 645 844 q 617 925 633 906 q 543 958 589 958 q 456 925 495 958 q 409 844 417 892 q 428 764 401 797 q 519 696 458 727 q 713 566 640 655 q 770 328 795 468 q 629 88 745 187 q 435 -6 538 11 l 422 -30 q 475 -90 467 -56 q 477 -109 477 -100 q 476 -126 477 -117 q 445 -181 471 -155 q 338 -231 405 -221 q 309 -233 326 -233 q 210 -222 269 -233 l 248 -137 q 308 -155 283 -155 q 315 -154 312 -155 q 347 -130 337 -151 q 351 -120 350 -125 q 351 -115 351 -117 q 296 -77 351 -96 l 332 -9 z "},"ş":{"ha":598,"x_min":113,"x_max":597,"o":"m 263 -13 q 153 51 196 -2 q 113 164 115 96 l 258 194 q 269 150 259 163 q 325 125 290 125 q 389 150 359 125 q 424 210 418 174 q 410 269 430 245 q 347 321 396 286 q 252 395 278 363 q 220 528 205 450 q 299 663 233 607 q 443 719 364 719 q 564 666 522 719 q 597 583 595 629 l 454 543 q 448 566 452 560 q 418 578 439 578 q 381 563 398 578 q 360 528 363 549 q 368 494 356 508 q 419 452 379 481 q 526 368 495 406 q 564 210 581 302 q 471 51 548 117 q 368 -6 422 9 l 355 -30 q 408 -90 400 -56 q 410 -109 409 -100 q 409 -126 410 -117 q 378 -181 404 -155 q 271 -231 338 -221 q 241 -233 258 -233 q 142 -222 202 -233 l 181 -137 q 241 -155 216 -155 q 248 -154 245 -155 q 279 -130 270 -151 q 283 -120 283 -125 q 284 -115 284 -117 q 228 -77 283 -96 l 263 -13 z "},"Š":{"ha":747,"x_min":85,"x_max":821,"o":"m 476 557 q 309 667 368 595 q 269 844 250 739 q 374 1023 287 948 q 568 1097 462 1097 q 734 1023 672 1097 q 781 894 768 983 l 645 844 q 617 925 633 906 q 543 958 589 958 q 456 925 495 958 q 409 844 417 892 q 428 764 401 797 q 519 696 458 727 q 713 566 640 655 q 770 328 795 468 q 628 88 745 187 q 372 -12 511 -12 q 150 88 231 -12 q 88 307 85 168 l 233 357 q 267 186 225 237 q 397 128 315 128 q 547 186 479 128 q 631 328 616 245 q 597 468 645 410 q 476 557 551 524 m 821 1348 l 629 1186 l 530 1186 l 400 1348 l 549 1348 l 600 1292 l 671 1348 l 821 1348 z "},"š":{"ha":598,"x_min":113,"x_max":686,"o":"m 258 194 q 269 150 259 163 q 325 125 290 125 q 389 150 359 125 q 424 210 418 174 q 410 269 430 245 q 347 321 396 286 q 252 395 278 363 q 220 528 205 450 q 299 663 233 607 q 443 719 364 719 q 564 666 522 719 q 597 583 595 629 l 454 543 q 448 566 452 560 q 418 578 439 578 q 381 563 398 578 q 360 528 363 549 q 368 494 356 508 q 419 452 379 481 q 526 368 495 406 q 564 210 581 302 q 471 51 548 117 q 300 -16 393 -16 q 153 51 207 -16 q 113 164 115 96 l 258 194 m 686 960 l 494 799 l 394 799 l 264 960 l 413 960 l 464 905 l 536 960 l 686 960 z "},"Ţ":{"ha":715,"x_min":193,"x_max":872,"o":"m 321 0 l 287 0 l 453 945 l 200 945 l 225 1085 l 872 1085 l 847 945 l 594 945 l 428 0 l 422 0 l 406 -30 q 459 -90 451 -56 q 461 -109 460 -100 q 460 -126 461 -117 q 429 -181 454 -155 q 323 -231 389 -221 q 292 -233 309 -233 q 193 -222 253 -233 l 232 -137 q 292 -155 268 -155 q 300 -154 296 -155 q 331 -130 321 -151 q 335 -120 334 -125 q 335 -115 335 -117 q 279 -77 334 -96 l 321 0 z "},"ţ":{"ha":514,"x_min":93,"x_max":575,"o":"m 221 0 l 186 0 l 285 557 l 159 557 l 184 698 l 309 698 l 355 960 l 496 960 l 450 698 l 575 698 l 551 557 l 425 557 l 327 0 l 321 0 l 305 -30 q 359 -90 351 -56 q 361 -109 360 -100 q 359 -126 361 -117 q 329 -181 354 -155 q 222 -231 288 -221 q 192 -233 209 -233 q 93 -222 153 -233 l 132 -137 q 192 -155 168 -155 q 199 -154 196 -155 q 231 -130 221 -151 q 235 -120 233 -125 q 235 -115 235 -117 q 179 -77 234 -96 l 221 0 z "},"Ť":{"ha":715,"x_min":201,"x_max":872,"o":"m 595 945 l 428 0 l 287 0 l 454 945 l 201 945 l 225 1085 l 872 1085 l 848 945 l 595 945 m 806 1348 l 614 1186 l 514 1186 l 385 1348 l 533 1348 l 584 1292 l 656 1348 l 806 1348 z "},"ť":{"ha":514,"x_min":159,"x_max":765,"o":"m 309 698 l 356 960 l 496 960 l 450 698 l 575 698 l 551 557 l 425 557 l 327 0 l 186 0 l 285 557 l 159 557 l 184 698 l 309 698 m 577 924 q 562 994 554 953 q 602 1063 568 1035 q 677 1092 636 1092 q 741 1063 717 1092 q 758 994 765 1035 q 743 952 754 972 l 643 804 l 515 804 l 577 924 z "},"Ŧ":{"ha":715,"x_min":201,"x_max":872,"o":"m 395 612 l 454 945 l 201 945 l 225 1085 l 872 1085 l 848 945 l 595 945 l 536 612 l 684 612 l 659 473 l 511 473 l 428 0 l 287 0 l 370 473 l 222 473 l 248 612 l 395 612 z "},"ŧ":{"ha":432,"x_min":76,"x_max":535,"o":"m 226 454 l 244 557 l 119 557 l 144 698 l 269 698 l 315 960 l 456 960 l 410 698 l 535 698 l 510 557 l 385 557 l 366 454 l 492 454 l 467 314 l 342 314 l 286 0 l 146 0 l 201 314 l 76 314 l 100 454 l 226 454 z "},"Ũ":{"ha":941,"x_min":138,"x_max":1031,"o":"m 890 1085 l 1031 1085 l 896 321 q 749 100 854 190 q 469 -9 622 -9 q 228 99 317 -9 q 165 360 138 208 l 293 1085 l 434 1085 l 307 360 q 345 200 290 267 q 494 133 400 133 q 667 199 589 133 q 762 360 745 266 l 890 1085 m 720 1320 q 737 1300 720 1320 q 772 1280 755 1280 l 772 1280 q 798 1306 793 1280 q 797 1353 801 1324 l 923 1353 q 793 1182 871 1204 q 754 1177 773 1177 q 671 1215 704 1177 q 618 1254 637 1254 l 616 1254 q 591 1227 595 1253 q 592 1183 587 1211 l 465 1183 q 596 1354 518 1332 q 635 1359 616 1359 q 720 1320 685 1359 z "},"ũ":{"ha":788,"x_min":130,"x_max":809,"o":"m 395 -9 q 197 71 263 -9 q 150 273 130 152 l 224 698 l 366 698 l 292 279 q 317 175 281 218 q 420 132 354 132 q 532 175 480 132 q 595 279 584 218 l 669 698 l 809 698 l 734 273 q 616 71 711 152 q 395 -9 522 -9 m 575 932 q 592 913 575 932 q 627 893 610 893 l 627 892 q 652 919 648 892 q 652 966 656 937 l 778 966 q 648 795 726 817 q 609 789 628 789 q 525 828 559 789 q 473 867 492 867 l 470 867 q 445 840 450 865 q 447 795 442 823 l 320 795 q 451 966 373 945 q 490 972 471 972 q 575 932 540 972 z "},"Ū":{"ha":941,"x_min":138,"x_max":1031,"o":"m 890 1085 l 1031 1085 l 896 321 q 749 100 854 190 q 469 -9 622 -9 q 228 99 317 -9 q 165 360 138 208 l 293 1085 l 434 1085 l 307 360 q 345 200 290 267 q 494 133 400 133 q 667 199 589 133 q 762 360 745 266 l 890 1085 m 519 1362 l 903 1362 l 878 1221 l 494 1221 l 519 1362 z "},"ū":{"ha":788,"x_min":130,"x_max":809,"o":"m 395 -9 q 197 71 263 -9 q 150 273 130 152 l 224 698 l 366 698 l 292 279 q 317 175 281 218 q 420 132 354 132 q 532 175 480 132 q 595 279 584 218 l 669 698 l 809 698 l 734 273 q 616 71 711 152 q 395 -9 522 -9 m 373 975 l 758 975 l 733 834 l 349 834 l 373 975 z "},"Ŭ":{"ha":941,"x_min":138,"x_max":1031,"o":"m 890 1085 l 1031 1085 l 896 321 q 749 100 854 190 q 469 -9 622 -9 q 228 99 317 -9 q 165 360 138 208 l 293 1085 l 434 1085 l 307 360 q 345 200 290 267 q 494 133 400 133 q 667 199 589 133 q 762 360 745 266 l 890 1085 m 648 1345 q 656 1293 648 1303 q 696 1276 671 1276 q 741 1294 720 1276 q 767 1345 753 1303 l 896 1345 q 820 1222 867 1262 q 677 1166 755 1166 q 552 1222 597 1166 q 519 1345 517 1265 l 648 1345 z "},"ŭ":{"ha":788,"x_min":130,"x_max":809,"o":"m 395 -9 q 197 71 263 -9 q 150 273 130 152 l 224 698 l 366 698 l 292 279 q 317 175 281 218 q 420 132 354 132 q 532 175 480 132 q 595 279 584 218 l 669 698 l 809 698 l 734 273 q 616 71 711 152 q 395 -9 522 -9 m 503 958 q 511 906 503 916 q 551 888 526 888 q 596 907 575 888 q 622 958 608 916 l 751 958 q 675 835 721 875 q 532 779 610 779 q 407 835 452 779 q 374 958 372 878 l 503 958 z "},"Ů":{"ha":941,"x_min":138,"x_max":1031,"o":"m 890 1085 l 1031 1085 l 896 321 q 749 100 854 190 q 469 -9 622 -9 q 228 99 317 -9 q 165 360 138 208 l 293 1085 l 434 1085 l 307 360 q 345 200 290 267 q 494 133 400 133 q 667 199 589 133 q 762 360 745 266 l 890 1085 m 705 1327 q 781 1293 753 1327 q 800 1211 808 1259 q 752 1130 791 1164 q 664 1096 712 1096 q 588 1130 616 1096 q 568 1211 560 1164 q 617 1293 577 1259 q 705 1327 656 1327 m 680 1173 q 707 1184 694 1173 q 722 1210 720 1194 q 717 1239 726 1229 q 693 1250 708 1250 q 662 1239 674 1250 q 646 1210 649 1229 q 652 1184 643 1194 q 680 1173 661 1173 z "},"ů":{"ha":788,"x_min":130,"x_max":809,"o":"m 395 -9 q 197 71 263 -9 q 150 273 130 152 l 224 698 l 366 698 l 292 279 q 317 175 281 218 q 420 132 354 132 q 532 175 480 132 q 595 279 584 218 l 669 698 l 809 698 l 734 273 q 616 71 711 152 q 395 -9 522 -9 m 559 940 q 635 906 608 940 q 654 824 663 872 q 607 743 646 777 q 519 709 567 709 q 443 743 471 709 q 423 824 415 777 q 472 906 432 872 q 559 940 511 940 m 534 786 q 562 797 549 786 q 577 823 574 807 q 571 852 581 842 q 547 863 562 863 q 516 852 528 863 q 500 823 504 842 q 506 797 498 807 q 534 786 515 786 z "},"Ű":{"ha":941,"x_min":138,"x_max":1031,"o":"m 890 1085 l 1031 1085 l 896 321 q 749 100 854 190 q 469 -9 622 -9 q 228 99 317 -9 q 165 360 138 208 l 293 1085 l 434 1085 l 307 360 q 345 200 290 267 q 494 133 400 133 q 667 199 589 133 q 762 360 745 266 l 890 1085 m 726 1358 l 543 1175 l 418 1175 l 512 1358 l 726 1358 m 970 1358 l 788 1175 l 663 1175 l 757 1358 l 970 1358 z "},"ű":{"ha":788,"x_min":130,"x_max":825,"o":"m 395 -9 q 197 71 263 -9 q 150 273 130 152 l 224 698 l 366 698 l 292 279 q 317 175 281 218 q 420 132 354 132 q 532 175 480 132 q 595 279 584 218 l 669 698 l 809 698 l 734 273 q 616 71 711 152 q 395 -9 522 -9 m 581 971 l 398 787 l 273 787 l 367 971 l 581 971 m 825 971 l 643 787 l 517 787 l 612 971 l 825 971 z "},"Ų":{"ha":941,"x_min":138,"x_max":1031,"o":"m 452 -8 q 227 100 311 -3 q 165 360 138 208 l 293 1085 l 434 1085 l 307 360 q 345 200 290 267 q 494 133 400 133 q 667 199 589 133 q 762 360 745 266 l 890 1085 l 1031 1085 l 896 321 q 749 100 854 190 q 589 9 674 35 q 528 -85 534 -49 q 528 -105 526 -96 q 555 -130 534 -130 q 626 -96 580 -130 l 647 -199 q 515 -233 558 -233 q 419 -189 451 -233 q 402 -100 393 -152 q 408 -77 404 -89 q 452 -8 419 -41 z "},"ų":{"ha":788,"x_min":130,"x_max":809,"o":"m 410 -9 l 395 -9 q 197 71 263 -9 q 150 273 130 152 l 224 698 l 366 698 l 292 279 q 317 175 281 218 q 420 132 354 132 q 532 175 480 132 q 595 279 584 218 l 669 698 l 809 698 l 734 273 q 616 71 711 152 q 596 55 606 63 q 492 -81 500 -31 q 492 -100 490 -92 q 519 -125 498 -125 q 590 -91 544 -125 l 611 -195 q 479 -229 522 -229 q 383 -184 415 -229 q 366 -96 357 -147 q 372 -72 368 -84 q 410 -9 382 -39 z "},"Ŵ":{"ha":1143,"x_min":115,"x_max":1250,"o":"m 537 203 l 692 1085 l 833 1085 l 677 203 q 695 174 682 191 q 792 132 732 132 q 904 175 852 132 q 966 279 956 218 l 1109 1085 l 1250 1085 l 1107 273 q 987 77 1084 159 q 768 -9 888 -9 q 585 75 648 -9 q 372 -9 492 -9 q 183 77 252 -9 q 133 273 115 158 l 276 1085 l 416 1085 l 274 279 q 300 175 264 218 q 397 132 336 132 q 509 174 458 132 q 537 203 529 191 m 842 1186 l 789 1242 l 719 1186 l 570 1186 l 757 1348 l 857 1348 l 991 1186 l 842 1186 z "},"ŵ":{"ha":962,"x_min":125,"x_max":982,"o":"m 446 207 l 532 698 l 673 698 l 589 218 q 603 156 582 181 q 658 132 623 132 q 760 235 741 132 l 841 698 l 982 698 l 896 209 q 804 57 877 119 q 633 -9 726 -9 q 490 56 539 -9 q 324 -9 417 -9 q 177 57 231 -9 q 138 209 125 119 l 224 698 l 365 698 l 283 235 q 349 132 265 132 q 414 156 384 132 q 446 207 438 177 m 682 799 l 629 854 l 559 799 l 411 799 l 597 960 l 697 960 l 832 799 l 682 799 z "},"Ŷ":{"ha":959,"x_min":225,"x_max":1116,"o":"m 486 435 l 225 1085 l 387 1085 l 583 594 l 954 1085 l 1116 1085 l 626 435 l 549 0 l 409 0 l 486 435 m 749 1186 l 696 1242 l 627 1186 l 478 1186 l 665 1348 l 764 1348 l 899 1186 l 749 1186 z "},"ŷ":{"ha":772,"x_min":83,"x_max":843,"o":"m 232 -235 l 83 -235 l 338 155 l 174 698 l 332 698 l 441 316 l 686 698 l 843 698 l 232 -235 m 587 799 l 534 854 l 465 799 l 316 799 l 503 960 l 602 960 l 737 799 l 587 799 z "},"Ÿ":{"ha":959,"x_min":225,"x_max":1116,"o":"m 486 435 l 225 1085 l 387 1085 l 583 594 l 954 1085 l 1116 1085 l 626 435 l 549 0 l 409 0 l 486 435 m 592 1362 q 656 1334 632 1362 q 673 1265 680 1305 q 632 1195 666 1223 q 557 1166 597 1166 q 493 1195 517 1166 q 477 1265 469 1223 q 517 1334 484 1305 q 592 1362 551 1362 m 847 1362 q 911 1334 887 1362 q 928 1265 935 1305 q 887 1195 921 1223 q 812 1166 852 1166 q 748 1195 772 1166 q 732 1265 724 1223 q 772 1334 739 1305 q 847 1362 806 1362 z "},"Ź":{"ha":992,"x_min":102,"x_max":1081,"o":"m 814 945 l 300 945 l 324 1085 l 1081 1085 l 369 141 l 884 141 l 859 0 l 102 0 l 814 945 m 773 1341 l 944 1341 l 726 1152 l 593 1152 l 773 1341 z "},"ź":{"ha":763,"x_min":102,"x_max":784,"o":"m 517 557 l 231 557 l 255 698 l 784 698 l 368 141 l 680 141 l 654 0 l 102 0 l 517 557 m 591 954 l 762 954 l 544 765 l 410 765 l 591 954 z "},"Ż":{"ha":992,"x_min":102,"x_max":1081,"o":"m 814 945 l 300 945 l 324 1085 l 1081 1085 l 369 141 l 884 141 l 859 0 l 102 0 l 814 945 m 736 1361 q 794 1335 772 1361 q 810 1272 817 1310 q 772 1208 803 1234 q 705 1182 741 1182 q 645 1208 667 1182 q 630 1272 623 1234 q 668 1335 637 1310 q 736 1361 699 1361 z "},"ż":{"ha":763,"x_min":102,"x_max":784,"o":"m 517 557 l 231 557 l 255 698 l 784 698 l 368 141 l 680 141 l 654 0 l 102 0 l 517 557 m 553 974 q 612 948 590 974 q 627 884 634 922 q 590 821 621 846 q 522 795 559 795 q 463 821 485 795 q 448 884 441 846 q 485 948 454 922 q 553 974 516 974 z "},"Ž":{"ha":992,"x_min":102,"x_max":1081,"o":"m 814 945 l 300 945 l 324 1085 l 1081 1085 l 369 141 l 884 141 l 859 0 l 102 0 l 814 945 m 944 1348 l 752 1186 l 652 1186 l 523 1348 l 671 1348 l 722 1292 l 794 1348 l 944 1348 z "},"ž":{"ha":763,"x_min":102,"x_max":784,"o":"m 517 557 l 231 557 l 255 698 l 784 698 l 368 141 l 680 141 l 654 0 l 102 0 l 517 557 m 762 960 l 570 799 l 470 799 l 340 960 l 489 960 l 539 905 l 612 960 l 762 960 z "},"ſ":{"ha":368,"x_min":84,"x_max":603,"o":"m 225 0 l 84 0 l 229 824 q 321 972 250 910 q 479 1032 396 1032 q 603 1002 522 1032 l 532 869 q 461 895 477 895 q 403 871 433 895 q 370 818 376 849 l 225 0 z "},"ƒ":{"ha":367,"x_min":-82,"x_max":602,"o":"m 224 0 l 223 0 l 222 -8 q -82 -227 175 -227 l -58 -90 q 82 -7 63 -90 l 182 557 l 119 557 l 144 698 l 207 698 l 229 824 q 321 972 249 910 q 478 1032 395 1032 q 602 1002 521 1032 l 531 869 q 460 895 476 895 q 401 871 433 895 q 368 818 375 849 l 347 698 l 473 698 l 448 557 l 322 557 l 224 0 z "},"Ǻ":{"ha":913,"x_min":-1,"x_max":952,"o":"m 649 531 l 596 790 l 452 531 l 649 531 m 641 1032 q 661 1041 651 1032 q 673 1060 671 1050 q 669 1086 676 1077 q 652 1095 662 1095 q 624 1086 634 1095 q 611 1060 614 1077 q 616 1041 609 1050 q 641 1032 623 1032 m 621 1176 l 709 1275 l 952 1275 l 742 1147 q 762 1063 770 1112 q 711 969 753 1014 l 910 0 l 761 0 l 677 391 l 374 391 l 149 0 l -1 0 l 544 968 q 524 1063 515 1014 q 574 1147 532 1112 q 621 1176 603 1172 z "},"ǻ":{"ha":950,"x_min":121,"x_max":970,"o":"m 762 316 l 781 419 q 736 538 780 485 q 578 609 677 609 q 394 538 477 609 q 294 368 311 468 q 334 197 276 268 q 493 126 393 126 q 676 197 593 126 q 762 316 739 250 m 606 786 q 634 797 621 786 q 650 823 647 807 q 644 852 653 842 q 620 863 635 863 q 589 852 601 863 q 573 823 576 842 q 579 797 570 807 q 606 786 587 786 m 680 744 q 821 649 763 722 l 829 698 l 970 698 l 848 -1 l 707 -1 l 722 87 q 467 -18 602 -18 q 214 95 307 -18 q 150 368 121 208 q 311 641 178 528 q 514 744 406 721 q 496 824 488 778 q 545 906 505 872 q 591 933 566 925 l 542 933 l 722 1122 l 893 1122 l 675 933 l 671 933 q 708 906 692 925 q 727 824 736 872 q 680 744 719 777 z "},"Ǽ":{"ha":1163,"x_min":27,"x_max":1270,"o":"m 1270 1085 l 1246 945 l 802 945 l 743 613 l 1187 613 l 1162 473 l 718 473 l 660 141 l 1104 141 l 1079 0 l 494 0 l 562 384 l 431 384 l 199 0 l 27 0 l 680 1050 l 686 1085 l 1270 1085 m 617 697 l 512 524 l 587 524 l 617 697 m 831 1341 l 1002 1341 l 784 1152 l 650 1152 l 831 1341 z "},"ǽ":{"ha":1453,"x_min":98,"x_max":1481,"o":"m 745 484 q 712 539 733 513 q 553 610 654 610 q 371 539 454 610 q 269 368 288 469 q 310 197 252 268 q 469 127 369 127 q 652 198 569 127 q 703 252 683 224 q 739 317 728 284 l 758 420 q 745 484 757 452 m 1311 499 l 1278 539 q 1120 610 1220 610 q 937 539 1019 610 q 916 520 919 524 l 911 499 l 1311 499 m 802 673 l 806 699 l 947 699 q 1145 754 995 754 q 1398 641 1305 754 q 1455 358 1481 540 l 887 359 l 862 216 q 876 198 864 212 q 1035 127 935 127 q 1218 198 1135 127 q 1270 248 1234 211 l 1398 199 q 1303 96 1346 133 q 1009 -17 1169 -17 q 827 18 859 -17 l 824 0 l 684 0 l 694 64 q 443 -17 578 -17 q 191 96 283 -17 q 125 368 98 209 q 287 641 154 528 q 579 754 420 754 q 802 673 714 754 m 935 954 l 1106 954 l 888 765 l 755 765 l 935 954 z "},"Ǿ":{"ha":1281,"x_min":140,"x_max":1333,"o":"m 918 947 q 809 958 891 958 q 495 837 637 958 q 323 544 353 715 q 393 251 292 372 q 439 201 429 207 l 918 947 m 555 141 q 663 130 581 130 q 977 251 835 130 q 1150 544 1120 372 q 1081 837 1180 715 q 1034 887 1044 881 l 555 141 m 1117 1016 q 1199 937 1149 997 q 1292 544 1333 774 q 1060 151 1251 314 q 638 -12 868 -12 q 473 12 527 -12 l 397 -105 l 280 -45 l 355 72 q 275 151 324 91 q 181 544 140 314 q 413 937 222 774 q 834 1099 604 1099 q 1000 1076 945 1099 l 1076 1193 l 1193 1133 l 1117 1016 m 918 1341 l 1089 1341 l 871 1152 l 738 1152 l 918 1341 z "},"ǿ":{"ha":893,"x_min":98,"x_max":925,"o":"m 612 609 q 553 610 608 610 q 370 539 454 610 q 269 369 287 469 q 302 199 252 269 l 612 609 m 411 129 q 469 127 414 127 q 652 198 569 127 q 753 369 735 269 q 712 540 770 469 l 411 129 m 212 71 l 191 96 q 125 369 98 210 q 287 642 154 529 q 579 755 420 755 q 707 735 670 755 l 807 869 l 921 804 l 812 667 l 832 642 q 897 369 925 529 q 736 96 869 210 q 443 -17 603 -17 q 316 3 353 -17 l 216 -130 l 100 -70 l 212 71 m 656 954 l 827 954 l 609 765 l 475 765 l 656 954 z "},"ˆ":{"ha":723,"x_min":291,"x_max":712,"o":"m 562 799 l 509 854 l 439 799 l 291 799 l 477 960 l 577 960 l 712 799 l 562 799 z "},"ˇ":{"ha":723,"x_min":319,"x_max":741,"o":"m 741 960 l 549 799 l 449 799 l 319 960 l 468 960 l 519 905 l 591 960 l 741 960 z "},"ˉ":{"ha":486,"x_min":198,"x_max":607,"o":"m 222 975 l 607 975 l 583 834 l 198 834 l 222 975 z "},"˘":{"ha":663,"x_min":309,"x_max":688,"o":"m 439 958 q 448 906 439 916 q 488 888 463 888 q 533 907 512 888 q 559 958 545 916 l 688 958 q 612 835 658 875 q 468 779 547 779 q 344 835 389 779 q 311 958 309 878 l 439 958 z "},"˙":{"ha":350,"x_min":234,"x_max":427,"o":"m 347 974 q 405 948 383 974 q 420 884 427 922 q 383 821 414 846 q 315 795 352 795 q 256 821 278 795 q 241 884 234 846 q 278 948 248 922 q 347 974 309 974 z "},"˚":{"ha":589,"x_min":317,"x_max":565,"o":"m 461 940 q 537 906 509 940 q 556 824 565 872 q 508 743 548 777 q 420 709 469 709 q 345 743 372 709 q 325 824 317 777 q 373 906 334 872 q 461 940 413 940 m 435 786 q 463 797 450 786 q 479 823 476 807 q 473 852 482 842 q 449 863 464 863 q 418 852 430 863 q 402 823 406 842 q 408 797 399 807 q 435 786 416 786 z "},"˛":{"ha":296,"x_min":-9,"x_max":248,"o":"m 248 71 q 125 -81 135 -27 q 126 -100 123 -92 q 153 -125 132 -125 q 224 -91 178 -125 l 245 -195 q 114 -229 157 -229 q 17 -184 50 -229 q 0 -96 -9 -147 q 6 -72 2 -84 q 193 89 34 16 l 248 71 z "},"˜":{"ha":631,"x_min":242,"x_max":700,"o":"m 497 932 q 514 913 497 932 q 549 893 532 893 l 549 892 q 574 919 570 892 q 574 966 578 937 l 700 966 q 570 795 648 817 q 531 789 550 789 q 448 828 481 789 q 395 867 414 867 l 393 867 q 368 840 372 865 q 369 795 364 823 l 242 795 q 373 966 295 945 q 412 972 393 972 q 497 932 462 972 z "},"˝":{"ha":554,"x_min":156,"x_max":709,"o":"m 464 971 l 281 787 l 156 787 l 250 971 l 464 971 m 709 971 l 526 787 l 401 787 l 495 971 l 709 971 z "},"΄":{"ha":454,"x_min":203,"x_max":554,"o":"m 383 954 l 554 954 l 336 765 l 203 765 l 383 954 z "},"΅":{"ha":602,"x_min":202,"x_max":734,"o":"m 661 977 q 714 954 694 977 q 728 897 734 930 q 694 839 722 863 q 633 815 665 815 q 579 839 600 815 q 565 897 559 863 q 600 954 571 930 q 661 977 628 977 m 304 977 q 357 954 337 977 q 371 897 377 930 q 337 839 365 863 q 276 815 309 815 q 222 839 242 815 q 208 897 202 863 q 242 954 214 930 q 304 977 271 977 m 484 1028 l 622 1028 l 462 799 l 354 799 l 484 1028 z "},"Ά":{"ha":933,"x_min":102,"x_max":967,"o":"m 424 954 l 595 954 l 377 765 l 243 765 l 424 954 m 720 524 l 671 779 l 534 524 l 720 524 m 764 1085 l 967 0 l 818 0 l 746 384 l 458 384 l 252 0 l 102 0 l 688 1085 l 764 1085 z "},"·":{"ha":264,"x_min":159,"x_max":353,"o":"m 272 793 q 331 767 309 793 q 346 704 353 741 q 308 640 339 666 q 241 614 277 614 q 182 640 204 614 q 166 704 159 666 q 204 767 173 741 q 272 793 235 793 z "},"Έ":{"ha":1055,"x_min":203,"x_max":1423,"o":"m 383 954 l 554 954 l 336 765 l 203 765 l 383 954 m 1423 1085 l 1398 945 l 954 945 l 895 613 l 1339 613 l 1315 473 l 871 473 l 812 141 l 1256 141 l 1232 0 l 647 0 l 838 1085 l 1423 1085 z "},"Ή":{"ha":1103,"x_min":203,"x_max":1454,"o":"m 383 954 l 554 954 l 336 765 l 203 765 l 383 954 m 866 449 l 787 0 l 647 0 l 838 1085 l 979 1085 l 891 589 l 1226 589 l 1314 1085 l 1454 1085 l 1263 0 l 1122 0 l 1201 449 l 866 449 z "},"Ί":{"ha":780,"x_min":203,"x_max":878,"o":"m 383 954 l 554 954 l 336 765 l 203 765 l 383 954 m 878 1085 l 686 0 l 545 0 l 736 1085 l 878 1085 z "},"Ό":{"ha":1582,"x_min":203,"x_max":1559,"o":"m 383 954 l 554 954 l 336 765 l 203 765 l 383 954 m 1061 1099 q 1425 937 1291 1099 q 1518 544 1559 774 q 1286 151 1478 314 q 865 -12 1095 -12 q 501 151 635 -12 q 408 544 367 314 q 640 937 448 774 q 1061 1099 831 1099 m 1036 958 q 722 837 865 958 q 549 544 580 715 q 619 251 519 372 q 890 130 719 130 q 1204 251 1061 130 q 1377 544 1346 372 q 1308 837 1407 715 q 1036 958 1208 958 z "},"Ύ":{"ha":1311,"x_min":203,"x_max":1662,"o":"m 383 954 l 554 954 l 336 765 l 203 765 l 383 954 m 1031 435 l 770 1085 l 932 1085 l 1128 594 l 1499 1085 l 1662 1085 l 1171 435 l 1095 0 l 954 0 l 1031 435 z "},"Ώ":{"ha":1295,"x_min":169,"x_max":1332,"o":"m 349 954 l 520 954 l 302 765 l 169 765 l 349 954 m 474 140 q 402 209 444 162 q 320 528 286 338 q 522 932 364 779 q 897 1085 680 1085 l 907 1085 q 1228 932 1124 1085 q 1288 528 1332 779 q 1093 209 1254 338 q 997 140 1036 162 l 1156 140 l 1131 0 l 780 0 l 803 132 q 1007 266 897 168 q 1147 528 1118 365 q 1108 840 1181 726 q 880 954 1036 954 l 878 954 q 609 840 722 954 q 460 528 495 726 q 507 266 431 365 q 665 132 583 168 l 642 0 l 290 0 l 315 140 l 474 140 z "},"ΐ":{"ha":363,"x_min":73,"x_max":606,"o":"m 374 699 l 252 0 l 111 0 l 234 699 l 374 699 m 532 977 q 585 954 565 977 q 600 897 606 930 q 565 839 593 863 q 504 815 536 815 q 450 839 471 815 q 436 897 430 863 q 471 954 442 930 q 532 977 499 977 m 176 977 q 228 954 208 977 q 242 897 248 930 q 208 839 236 863 q 147 815 180 815 q 93 839 113 815 q 79 897 73 863 q 114 954 85 930 q 176 977 142 977 m 355 1028 l 493 1028 l 333 799 l 225 799 l 355 1028 z "},"Α":{"ha":933,"x_min":34,"x_max":899,"o":"m 652 524 l 604 779 l 467 524 l 652 524 m 696 1085 l 899 0 l 750 0 l 678 384 l 391 384 l 184 0 l 34 0 l 620 1085 l 696 1085 z "},"Β":{"ha":764,"x_min":102,"x_max":799,"o":"m 513 1085 q 662 1018 607 1085 q 701 857 718 951 q 583 737 684 760 q 725 637 651 727 q 771 387 799 547 q 610 112 743 228 q 380 1 486 3 l 380 0 l 102 0 l 293 1085 l 513 1085 m 353 629 l 267 141 l 405 141 l 405 143 q 525 213 449 146 q 627 387 609 286 q 586 558 645 487 q 428 629 528 629 l 353 629 m 409 945 l 378 773 l 470 773 q 528 797 502 776 q 563 857 556 819 q 549 920 570 895 q 488 945 528 945 l 409 945 z "},"Γ":{"ha":625,"x_min":86,"x_max":800,"o":"m 800 1085 l 774 944 l 393 944 l 227 0 l 86 0 l 277 1085 l 800 1085 z "},"Δ":{"ha":899,"x_min":-23,"x_max":899,"o":"m 37 1 l -23 1 l 564 1085 l 691 1085 l 899 0 l 37 0 l 37 1 m 722 141 l 586 850 l 201 141 l 722 141 z "},"Ε":{"ha":771,"x_min":102,"x_max":878,"o":"m 878 1085 l 853 945 l 409 945 l 350 613 l 794 613 l 770 473 l 326 473 l 267 141 l 711 141 l 686 0 l 102 0 l 293 1085 l 878 1085 z "},"Ζ":{"ha":992,"x_min":102,"x_max":1081,"o":"m 814 945 l 300 945 l 324 1085 l 1081 1085 l 369 141 l 884 141 l 859 0 l 102 0 l 814 945 z "},"Η":{"ha":819,"x_min":102,"x_max":909,"o":"m 321 449 l 242 0 l 102 0 l 293 1085 l 433 1085 l 346 589 l 681 589 l 768 1085 l 909 1085 l 718 0 l 577 0 l 656 449 l 321 449 z "},"Θ":{"ha":1206,"x_min":102,"x_max":1295,"o":"m 796 1099 q 1160 937 1026 1099 q 1254 544 1295 774 q 1022 151 1213 313 q 600 -12 830 -12 q 236 151 370 -12 q 143 544 102 313 q 375 937 184 774 q 796 1099 566 1099 m 772 958 q 458 836 601 958 q 285 544 315 715 q 354 251 254 372 q 625 130 454 130 q 939 251 796 130 q 1112 544 1082 372 q 1042 836 1142 715 q 772 958 943 958 m 386 614 l 1036 614 l 1012 473 l 361 473 l 386 614 z "},"Ι":{"ha":328,"x_min":94,"x_max":426,"o":"m 426 1085 l 235 0 l 94 0 l 285 1085 l 426 1085 z "},"Κ":{"ha":818,"x_min":102,"x_max":867,"o":"m 332 512 l 242 0 l 102 0 l 293 1085 l 433 1085 l 373 743 l 690 1085 l 867 1085 l 456 639 l 758 0 l 587 0 l 344 524 l 332 512 z "},"Λ":{"ha":922,"x_min":0,"x_max":922,"o":"m 714 1085 l 922 0 l 773 0 l 609 850 l 149 1 l 0 1 l 587 1085 l 714 1085 z "},"Μ":{"ha":1229,"x_min":135,"x_max":1285,"o":"m 454 1085 l 699 477 l 1157 1085 l 1285 1085 l 1094 0 l 954 0 l 1092 784 l 650 198 l 414 784 l 275 0 l 135 0 l 326 1085 l 454 1085 z "},"Ν":{"ha":920,"x_min":102,"x_max":1010,"o":"m 293 1085 l 421 1085 l 732 311 l 869 1085 l 1010 1085 l 819 0 l 696 0 l 380 784 l 242 0 l 102 0 l 293 1085 z "},"Ξ":{"ha":869,"x_min":39,"x_max":1022,"o":"m 217 614 l 867 614 l 842 473 l 192 473 l 217 614 m 230 1085 l 1022 1085 l 997 944 l 205 944 l 230 1085 m 64 141 l 856 141 l 831 0 l 39 0 l 64 141 z "},"Ο":{"ha":1281,"x_min":140,"x_max":1333,"o":"m 834 1099 q 1198 937 1064 1099 q 1292 544 1333 774 q 1060 151 1251 314 q 638 -12 868 -12 q 274 151 408 -12 q 181 544 140 314 q 413 937 222 774 q 834 1099 604 1099 m 809 958 q 495 837 637 958 q 323 544 353 715 q 392 251 292 372 q 663 130 492 130 q 977 251 835 130 q 1150 544 1120 372 q 1080 837 1180 715 q 809 958 981 958 z "},"Π":{"ha":854,"x_min":72,"x_max":973,"o":"m 379 944 l 213 0 l 72 0 l 263 1085 l 973 1085 l 782 0 l 641 0 l 807 944 l 379 944 z "},"Ρ":{"ha":777,"x_min":102,"x_max":892,"o":"m 303 347 l 242 0 l 102 0 l 293 1085 l 601 1085 q 803 977 729 1067 q 865 717 892 869 q 711 455 838 564 q 431 347 584 347 l 303 347 m 408 944 l 328 488 l 456 488 q 629 555 550 488 q 724 717 707 622 q 685 878 741 811 q 536 944 630 944 l 408 944 z "},"Σ":{"ha":838,"x_min":18,"x_max":1011,"o":"m 210 1085 l 1011 1085 l 986 944 l 377 944 l 637 542 l 236 141 l 845 141 l 820 0 l 18 0 l 43 140 l 454 542 l 185 945 l 210 1085 z "},"Τ":{"ha":715,"x_min":201,"x_max":872,"o":"m 595 945 l 428 0 l 287 0 l 454 945 l 201 945 l 225 1085 l 872 1085 l 848 945 l 595 945 z "},"Υ":{"ha":959,"x_min":225,"x_max":1116,"o":"m 486 435 l 225 1085 l 387 1085 l 583 594 l 954 1085 l 1116 1085 l 626 435 l 549 0 l 409 0 l 486 435 z "},"Φ":{"ha":1210,"x_min":119,"x_max":1279,"o":"m 585 294 l 670 774 q 422 701 534 770 q 292 534 309 629 q 363 368 275 439 q 585 294 450 298 m 701 151 l 675 0 l 534 0 l 560 151 q 253 258 372 155 q 148 535 119 371 q 350 811 176 699 q 695 918 506 913 l 725 1085 l 866 1085 l 836 918 q 1145 811 1025 913 q 1251 535 1279 699 q 1048 258 1221 371 q 701 151 892 155 m 811 774 l 726 294 q 976 368 863 298 q 1105 534 1089 439 q 1035 701 1122 629 q 811 774 947 770 z "},"Χ":{"ha":913,"x_min":34,"x_max":1013,"o":"m 34 0 l 479 592 l 282 1085 l 444 1085 l 585 732 l 852 1085 l 1013 1085 l 641 592 l 879 0 l 718 0 l 536 452 l 195 0 l 34 0 z "},"Ψ":{"ha":1237,"x_min":151,"x_max":1359,"o":"m 726 221 l 687 0 l 546 0 l 585 221 q 277 330 397 227 q 176 607 151 442 l 260 1085 l 401 1085 l 317 605 q 388 439 300 509 q 610 365 475 368 l 737 1085 l 878 1085 l 751 365 q 1001 439 888 368 q 1139 650 1114 509 l 1142 650 l 1219 1085 l 1359 1085 l 1274 604 q 1074 329 1245 441 q 726 221 916 227 z "},"Ω":{"ha":1168,"x_min":160,"x_max":1206,"o":"m 348 140 q 275 209 317 162 q 193 528 160 338 q 396 932 238 779 q 770 1085 553 1085 l 781 1085 q 1101 932 997 1085 q 1161 528 1206 779 q 966 209 1128 338 q 870 140 909 162 l 1029 140 l 1004 0 l 653 0 l 676 132 q 881 266 771 168 q 1020 528 991 365 q 982 840 1055 726 q 753 954 909 954 l 751 954 q 482 840 595 954 q 334 528 369 726 q 381 266 305 365 q 538 132 457 168 l 515 0 l 163 0 l 189 140 l 348 140 z "},"Ϊ":{"ha":328,"x_min":94,"x_max":620,"o":"m 426 1085 l 235 0 l 94 0 l 285 1085 l 426 1085 m 277 1362 q 341 1334 317 1362 q 358 1265 365 1305 q 316 1195 351 1223 q 242 1166 282 1166 q 178 1195 201 1166 q 161 1265 154 1223 q 202 1334 168 1305 q 277 1362 236 1362 m 532 1362 q 596 1334 572 1362 q 613 1265 620 1305 q 571 1195 606 1223 q 497 1166 537 1166 q 433 1195 456 1166 q 416 1265 409 1223 q 457 1334 423 1305 q 532 1362 491 1362 z "},"Ϋ":{"ha":959,"x_min":225,"x_max":1116,"o":"m 486 435 l 225 1085 l 387 1085 l 583 594 l 954 1085 l 1116 1085 l 626 435 l 549 0 l 409 0 l 486 435 m 592 1362 q 656 1334 632 1362 q 673 1265 680 1305 q 632 1195 666 1223 q 557 1166 597 1166 q 493 1195 517 1166 q 477 1265 469 1223 q 517 1334 484 1305 q 592 1362 551 1362 m 847 1362 q 911 1334 887 1362 q 928 1265 935 1305 q 887 1195 921 1223 q 812 1166 852 1166 q 748 1195 772 1166 q 732 1265 724 1223 q 772 1334 739 1305 q 847 1362 806 1362 z "},"ά":{"ha":925,"x_min":98,"x_max":1017,"o":"m 713 539 q 554 610 654 610 q 371 539 454 610 q 270 368 288 468 q 311 197 252 268 q 469 127 370 127 q 653 197 570 127 q 733 353 713 249 q 713 539 756 484 m 835 638 l 877 698 l 1017 698 l 861 349 l 894 0 l 754 0 l 737 98 l 737 96 q 444 -18 604 -18 q 192 96 285 -18 q 126 368 98 209 q 288 641 155 528 q 580 754 421 754 q 833 641 741 754 q 835 638 834 640 m 687 954 l 858 954 l 640 765 l 507 765 l 687 954 z "},"έ":{"ha":631,"x_min":87,"x_max":694,"o":"m 543 534 q 431 565 497 565 q 333 550 366 565 q 296 514 300 535 q 313 448 288 468 q 348 425 338 427 l 539 425 l 515 285 l 322 285 q 280 262 312 283 q 241 203 248 242 q 264 154 237 178 q 353 131 292 131 q 485 176 423 134 l 576 96 q 329 -13 449 -13 q 155 45 222 -13 q 106 211 87 104 q 193 356 125 319 q 159 508 138 393 q 265 663 178 618 q 456 709 351 709 q 665 606 572 709 l 543 534 m 524 954 l 694 954 l 477 765 l 343 765 l 524 954 z "},"ή":{"ha":689,"x_min":69,"x_max":734,"o":"m 300 511 l 210 0 l 69 0 l 193 699 l 334 699 l 318 610 q 527 735 391 735 q 699 655 663 735 q 715 454 734 574 l 594 -234 l 454 -234 l 574 448 q 548 552 585 509 q 452 595 512 595 q 340 552 391 595 q 300 511 311 528 m 562 954 l 732 954 l 515 765 l 381 765 l 562 954 z "},"ί":{"ha":363,"x_min":111,"x_max":562,"o":"m 375 699 l 252 0 l 111 0 l 235 699 l 375 699 m 391 954 l 562 954 l 344 765 l 210 765 l 391 954 z "},"ΰ":{"ha":787,"x_min":130,"x_max":817,"o":"m 395 -9 q 196 72 262 -9 q 150 273 130 152 l 224 698 l 365 698 l 291 279 q 317 176 280 218 q 420 132 354 132 q 532 175 480 132 q 594 279 583 218 l 668 698 l 808 698 l 734 273 q 616 72 710 152 q 395 -9 521 -9 m 745 977 q 797 954 777 977 q 812 897 817 930 q 777 839 806 863 q 715 815 748 815 q 662 839 682 815 q 648 897 642 863 q 683 954 654 930 q 745 977 711 977 m 388 977 q 440 954 420 977 q 454 897 460 930 q 420 839 448 863 q 359 815 391 815 q 305 839 325 815 q 292 897 286 863 q 326 954 297 930 q 388 977 354 977 m 568 1028 l 705 1028 l 545 799 l 437 799 l 568 1028 z "},"α":{"ha":925,"x_min":98,"x_max":1017,"o":"m 713 539 q 554 610 654 610 q 371 539 454 610 q 270 368 288 468 q 311 197 252 268 q 469 127 370 127 q 653 197 570 127 q 733 353 713 249 q 713 539 756 484 m 835 638 l 877 698 l 1017 698 l 861 349 l 894 0 l 754 0 l 737 98 l 737 96 q 444 -18 604 -18 q 192 96 285 -18 q 126 368 98 209 q 288 641 155 528 q 580 754 421 754 q 833 641 741 754 q 835 638 834 640 z "},"β":{"ha":740,"x_min":52,"x_max":777,"o":"m 357 699 q 477 712 447 701 q 550 760 509 724 q 600 844 591 797 q 581 923 608 891 q 508 956 554 956 q 427 921 463 956 q 378 823 390 887 l 357 699 m 332 561 l 193 -232 l 52 -232 l 239 831 q 343 1023 260 948 q 533 1099 426 1099 q 701 1023 640 1099 q 744 844 762 948 q 547 637 722 718 q 698 571 642 636 q 751 328 777 467 q 610 86 727 186 q 351 -14 492 -14 q 279 3 305 -14 l 363 131 q 376 130 370 130 q 526 188 458 130 q 608 328 594 245 q 576 473 623 410 q 414 559 530 536 l 332 561 z "},"γ":{"ha":764,"x_min":153,"x_max":857,"o":"m 315 34 l 153 698 l 311 698 l 422 239 l 699 698 l 857 698 l 459 37 l 412 -233 l 268 -233 l 315 34 z "},"δ":{"ha":881,"x_min":92,"x_max":918,"o":"m 364 539 q 322 504 364 539 q 263 368 281 468 q 304 197 245 268 q 463 127 363 127 q 646 197 563 127 q 746 368 728 268 q 706 539 764 468 q 547 610 648 610 q 364 539 448 610 m 710 745 q 737 731 710 745 q 841 623 764 717 q 890 368 918 528 q 730 96 862 209 q 437 -18 597 -18 q 185 96 278 -18 q 119 368 92 209 q 281 641 148 528 q 499 751 397 740 l 284 1085 l 861 1085 l 836 944 l 565 944 q 710 745 656 774 z "},"ε":{"ha":631,"x_min":87,"x_max":665,"o":"m 543 534 q 431 565 497 565 q 333 550 366 565 q 296 514 300 535 q 313 448 288 468 q 348 425 338 427 l 539 425 l 515 285 l 322 285 q 280 262 312 283 q 241 203 248 242 q 264 154 237 178 q 353 131 292 131 q 485 176 423 134 l 576 96 q 329 -13 449 -13 q 155 45 222 -13 q 106 211 87 104 q 193 356 125 319 q 159 508 138 393 q 265 663 178 618 q 456 709 351 709 q 665 606 572 709 l 543 534 z "},"ζ":{"ha":648,"x_min":75,"x_max":854,"o":"m 840 1007 q 287 359 384 617 q 267 288 273 320 q 439 128 240 135 q 623 -53 653 121 q 383 -210 568 -203 l 409 -65 q 484 -40 478 -65 l 484 -38 q 416 -14 488 -14 q 125 278 75 -6 q 142 345 131 310 q 585 944 240 663 l 269 944 l 294 1085 l 854 1085 l 840 1007 z "},"η":{"ha":689,"x_min":69,"x_max":734,"o":"m 300 511 l 210 0 l 69 0 l 193 699 l 334 699 l 318 610 q 527 735 391 735 q 699 655 663 735 q 715 454 734 574 l 594 -234 l 454 -234 l 574 448 q 548 552 585 509 q 452 595 512 595 q 340 552 391 595 q 300 511 311 528 z "},"θ":{"ha":894,"x_min":112,"x_max":970,"o":"m 783 534 q 763 837 818 733 q 613 941 709 941 q 426 837 517 941 q 300 534 335 733 q 319 231 264 334 q 469 127 374 127 q 656 231 565 127 q 783 534 747 334 m 926 534 q 745 133 882 283 q 445 -18 608 -18 q 197 133 281 -18 q 156 534 112 283 q 338 935 200 784 q 640 1085 476 1085 q 887 935 803 1085 q 926 534 970 784 m 347 604 l 762 604 l 736 464 l 322 464 l 347 604 z "},"ι":{"ha":363,"x_min":111,"x_max":375,"o":"m 375 699 l 252 0 l 111 0 l 235 699 l 375 699 z "},"κ":{"ha":642,"x_min":77,"x_max":701,"o":"m 701 699 l 470 465 l 651 0 l 484 0 l 354 351 l 265 269 l 218 0 l 77 0 l 200 699 l 341 699 l 304 489 l 521 699 l 701 699 z "},"λ":{"ha":741,"x_min":39,"x_max":701,"o":"m 701 0 l 545 0 l 435 372 l 195 0 l 39 0 l 387 543 l 265 960 l 422 960 l 701 0 z "},"μ":{"ha":753,"x_min":61,"x_max":774,"o":"m 522 55 q 370 -4 450 -4 q 250 41 254 -4 l 201 -233 l 61 -233 l 225 698 l 366 698 l 279 210 q 298 178 283 197 q 395 136 335 136 q 507 180 456 136 q 554 237 541 208 l 635 698 l 774 698 l 652 1 l 513 1 l 522 55 z "},"ν":{"ha":806,"x_min":157,"x_max":894,"o":"m 367 0 l 157 698 l 315 698 l 445 245 l 735 698 l 894 698 l 437 0 l 367 0 z "},"ξ":{"ha":721,"x_min":94,"x_max":862,"o":"m 424 -4 q 343 3 424 -4 q 179 97 263 9 q 119 328 94 184 q 377 640 157 542 q 307 831 288 722 q 667 1085 366 1085 l 862 1085 l 838 949 l 663 949 q 459 835 479 949 l 458 830 q 476 754 450 784 q 556 701 501 724 l 789 700 l 765 559 l 539 562 q 347 473 416 536 q 262 328 277 410 q 297 199 248 248 q 547 127 347 150 q 716 -71 747 104 l 713 -90 q 471 -227 662 -208 l 498 -72 q 576 -61 574 -72 l 577 -59 q 424 -4 585 -17 z "},"ο":{"ha":894,"x_min":98,"x_max":926,"o":"m 580 755 q 833 642 740 755 q 898 368 926 528 q 736 95 869 208 q 444 -18 604 -18 q 191 95 284 -18 q 126 368 98 208 q 287 642 154 528 q 580 755 420 755 m 555 610 q 371 539 454 610 q 270 368 288 468 q 311 197 252 268 q 469 127 369 127 q 653 197 570 127 q 754 368 736 268 q 713 539 772 468 q 555 610 655 610 z "},"π":{"ha":881,"x_min":144,"x_max":958,"o":"m 467 557 l 369 0 l 229 0 l 327 557 l 144 557 l 170 699 l 958 699 l 932 557 l 750 557 l 652 0 l 512 0 l 610 557 l 467 557 z "},"ρ":{"ha":879,"x_min":29,"x_max":926,"o":"m 286 422 l 267 313 q 311 197 268 249 q 470 126 370 126 q 653 197 570 126 q 753 368 736 268 q 713 539 771 468 q 555 610 655 610 q 371 539 455 610 q 286 422 309 486 m 222 63 l 170 -234 l 29 -234 l 151 456 q 312 664 203 576 q 581 753 421 753 q 833 641 740 753 q 897 368 926 528 q 736 96 869 209 q 444 -18 604 -18 q 222 63 309 -18 z "},"ς":{"ha":734,"x_min":109,"x_max":804,"o":"m 417 -5 q 362 6 417 -5 q 208 100 307 18 q 134 328 109 182 q 274 571 159 467 q 625 698 399 687 l 804 698 l 779 560 l 635 560 q 375 482 458 555 q 277 328 292 410 q 327 203 264 250 q 539 121 390 156 q 664 -49 688 86 l 661 -68 q 416 -219 608 -201 l 444 -65 q 524 -40 519 -65 l 525 -38 q 417 -5 527 -27 z "},"σ":{"ha":941,"x_min":100,"x_max":1010,"o":"m 372 539 q 331 504 372 539 q 271 368 289 468 q 312 197 254 268 q 471 127 371 127 q 654 197 571 127 q 754 368 736 268 q 714 539 772 468 q 555 610 656 610 q 372 539 456 610 m 897 557 q 898 368 925 519 q 738 96 870 209 q 445 -18 606 -18 q 193 96 286 -18 q 127 368 100 209 q 289 641 156 528 q 581 754 422 754 q 772 698 701 754 l 1010 698 l 985 557 l 897 557 z "},"τ":{"ha":742,"x_min":146,"x_max":818,"o":"m 539 557 l 441 0 l 301 0 l 399 557 l 146 557 l 171 698 l 818 698 l 793 557 l 539 557 z "},"υ":{"ha":787,"x_min":130,"x_max":808,"o":"m 395 -9 q 196 72 262 -9 q 150 273 130 152 l 224 698 l 365 698 l 291 279 q 317 176 280 218 q 420 132 354 132 q 532 175 480 132 q 594 279 583 218 l 668 698 l 808 698 l 734 273 q 616 72 710 152 q 395 -9 521 -9 z "},"φ":{"ha":895,"x_min":100,"x_max":939,"o":"m 625 584 l 548 154 q 654 203 608 163 q 755 374 737 274 q 685 554 777 496 q 625 584 646 579 m 405 140 l 490 622 q 626 727 525 727 q 755 692 680 727 q 899 374 939 601 q 739 102 871 215 q 525 -6 623 3 l 485 -231 l 344 -231 l 383 -8 q 193 102 279 -3 q 127 374 100 215 q 289 647 156 534 q 407 725 333 685 l 431 588 q 374 545 389 558 q 272 374 290 474 q 313 203 254 274 q 405 140 355 153 z "},"χ":{"ha":842,"x_min":-2,"x_max":889,"o":"m 444 130 l 160 -231 l -2 -231 l 385 263 l 197 698 l 360 698 l 490 397 l 726 698 l 889 698 l 548 263 l 762 -231 l 599 -231 l 444 130 z "},"ψ":{"ha":920,"x_min":107,"x_max":975,"o":"m 557 140 q 672 203 612 153 q 772 374 755 274 l 830 698 l 975 698 l 917 374 q 756 102 889 215 q 532 -7 635 -1 l 494 -224 l 349 -224 l 387 -7 q 201 102 285 -1 q 135 374 107 215 l 193 698 l 337 698 l 279 374 q 320 203 262 274 q 412 140 362 153 l 511 698 l 656 698 l 557 140 z "},"ω":{"ha":1055,"x_min":88,"x_max":1095,"o":"m 631 188 q 722 119 638 119 q 848 179 796 119 q 926 385 899 239 q 906 698 949 519 l 1027 698 q 1069 385 1095 533 q 942 89 1036 195 q 706 -18 848 -18 q 536 43 562 -18 q 345 -18 488 -18 q 145 89 202 -18 q 122 385 88 195 q 280 698 149 536 l 402 698 q 266 385 291 530 q 270 179 239 239 q 375 119 301 119 q 492 189 444 119 l 556 555 l 696 555 l 631 188 z "},"ϊ":{"ha":363,"x_min":103,"x_max":569,"o":"m 375 699 l 252 0 l 111 0 l 235 699 l 375 699 m 226 975 q 290 947 266 975 q 307 878 314 918 q 266 808 300 836 q 191 779 231 779 q 127 808 151 779 q 111 878 103 836 q 151 947 117 918 q 226 975 185 975 m 481 975 q 545 947 521 975 q 562 878 569 918 q 520 808 555 836 q 446 779 486 779 q 382 808 406 779 q 366 878 358 836 q 406 947 372 918 q 481 975 440 975 z "},"ϋ":{"ha":787,"x_min":130,"x_max":808,"o":"m 395 -9 q 196 72 262 -9 q 150 273 130 152 l 224 698 l 365 698 l 291 279 q 317 176 280 218 q 420 132 354 132 q 532 175 480 132 q 594 279 583 218 l 668 698 l 808 698 l 734 273 q 616 72 710 152 q 395 -9 521 -9 m 438 975 q 502 947 478 975 q 519 878 526 918 q 477 808 511 836 q 404 779 444 779 q 339 808 363 779 q 322 878 315 836 q 363 947 330 918 q 438 975 397 975 m 693 975 q 757 947 733 975 q 774 878 781 918 q 732 808 766 836 q 659 779 699 779 q 594 808 618 779 q 577 878 570 836 q 618 947 585 918 q 693 975 652 975 z "},"ό":{"ha":894,"x_min":98,"x_max":926,"o":"m 580 755 q 833 642 740 755 q 898 368 926 528 q 736 95 869 208 q 444 -18 604 -18 q 191 95 284 -18 q 126 368 98 208 q 287 642 154 528 q 580 755 420 755 m 555 610 q 371 539 454 610 q 270 368 288 468 q 311 197 252 268 q 469 127 369 127 q 653 197 570 127 q 754 368 736 268 q 713 539 772 468 q 555 610 655 610 m 656 954 l 827 954 l 609 765 l 475 765 l 656 954 z "},"ύ":{"ha":787,"x_min":130,"x_max":808,"o":"m 395 -9 q 196 72 262 -9 q 150 273 130 152 l 224 698 l 365 698 l 291 279 q 317 176 280 218 q 420 132 354 132 q 532 175 480 132 q 594 279 583 218 l 668 698 l 808 698 l 734 273 q 616 72 710 152 q 395 -9 521 -9 m 603 954 l 774 954 l 556 765 l 422 765 l 603 954 z "},"ώ":{"ha":1055,"x_min":88,"x_max":1095,"o":"m 631 188 q 722 119 638 119 q 848 179 796 119 q 926 385 899 239 q 906 698 949 519 l 1027 698 q 1069 385 1095 533 q 942 89 1036 195 q 706 -18 848 -18 q 536 43 562 -18 q 345 -18 488 -18 q 145 89 202 -18 q 122 385 88 195 q 280 698 149 536 l 402 698 q 266 385 291 530 q 270 179 239 239 q 375 119 301 119 q 492 189 444 119 l 556 555 l 696 555 l 631 188 m 737 954 l 908 954 l 690 765 l 556 765 l 737 954 z "},"Ё":{"ha":771,"x_min":102,"x_max":878,"o":"m 878 1085 l 853 945 l 409 945 l 350 613 l 794 613 l 770 473 l 326 473 l 267 141 l 711 141 l 686 0 l 102 0 l 293 1085 l 878 1085 m 507 1362 q 571 1334 547 1362 q 588 1265 595 1305 q 546 1195 581 1223 q 472 1166 512 1166 q 408 1195 431 1166 q 391 1265 384 1223 q 432 1334 398 1305 q 507 1362 466 1362 m 762 1362 q 826 1334 802 1362 q 843 1265 850 1305 q 801 1195 836 1223 q 727 1166 767 1166 q 663 1195 686 1166 q 646 1265 639 1223 q 687 1334 653 1305 q 762 1362 721 1362 z "},"Ђ":{"ha":1116,"x_min":212,"x_max":1150,"o":"m 545 599 q 802 718 664 718 q 1056 622 964 718 q 1114 336 1150 540 q 955 45 1078 134 q 852 -18 921 19 l 775 86 q 868 142 846 125 q 972 330 948 202 q 935 517 993 456 q 772 581 873 581 q 595 517 671 581 q 508 392 526 462 l 439 0 l 300 0 l 466 944 l 212 944 l 237 1085 l 884 1085 l 859 944 l 606 944 l 545 599 z "},"Ѓ":{"ha":648,"x_min":86,"x_max":800,"o":"m 800 1085 l 774 944 l 393 944 l 227 0 l 86 0 l 277 1085 l 800 1085 m 625 1341 l 795 1341 l 578 1152 l 444 1152 l 625 1341 z "},"Є":{"ha":1208,"x_min":130,"x_max":1279,"o":"m 941 614 l 917 473 l 302 473 q 382 251 289 363 q 652 130 481 130 q 966 251 823 130 q 1102 422 1043 316 l 1251 422 q 1050 151 1162 247 q 627 -12 857 -12 q 263 151 397 -12 q 170 544 130 313 q 402 937 211 774 q 823 1099 593 1099 q 1188 937 1053 1099 q 1279 771 1227 888 l 1113 771 q 1069 836 1089 812 q 799 958 970 958 q 485 836 628 958 q 327 614 353 724 l 941 614 z "},"Ѕ":{"ha":747,"x_min":85,"x_max":795,"o":"m 476 557 q 309 667 368 595 q 269 844 250 739 q 374 1023 287 948 q 568 1097 462 1097 q 734 1023 672 1097 q 781 894 768 983 l 645 844 q 617 925 633 906 q 543 958 589 958 q 456 925 495 958 q 409 844 417 892 q 428 764 401 797 q 519 696 458 727 q 713 566 640 655 q 770 328 795 468 q 628 88 745 187 q 372 -12 511 -12 q 150 88 231 -12 q 88 307 85 168 l 233 357 q 267 186 225 237 q 397 128 315 128 q 547 186 479 128 q 631 328 616 245 q 597 468 645 410 q 476 557 551 524 z "},"І":{"ha":372,"x_min":115,"x_max":447,"o":"m 447 1085 l 256 0 l 115 0 l 307 1085 l 447 1085 z "},"Ї":{"ha":372,"x_min":116,"x_max":642,"o":"m 448 1085 l 256 0 l 116 0 l 307 1085 l 448 1085 m 299 1362 q 363 1334 339 1362 q 380 1265 387 1305 q 339 1195 373 1223 q 264 1166 304 1166 q 200 1195 224 1166 q 183 1265 176 1223 q 224 1334 191 1305 q 299 1362 258 1362 m 554 1362 q 618 1334 594 1362 q 635 1265 642 1305 q 594 1195 628 1223 q 519 1166 559 1166 q 455 1195 479 1166 q 438 1265 431 1223 q 479 1334 446 1305 q 554 1362 513 1362 z "},"Ј":{"ha":635,"x_min":106,"x_max":721,"o":"m 570 233 q 478 58 551 120 q 307 -9 401 -9 q 160 57 214 -9 q 126 233 106 123 l 245 277 q 271 150 245 174 q 326 132 289 132 l 328 132 q 397 157 367 132 q 431 239 420 178 l 581 1085 l 721 1085 l 570 233 z "},"Љ":{"ha":1498,"x_min":38,"x_max":1515,"o":"m 730 0 l 896 944 l 468 944 l 340 219 q 249 61 324 125 q 38 -3 174 -3 l 63 138 q 168 161 140 138 q 201 227 193 183 l 353 1085 l 1062 1085 l 979 612 l 1265 612 q 1451 522 1386 609 q 1493 310 1515 434 q 1375 91 1470 178 q 1157 0 1280 3 l 730 0 m 954 471 l 896 141 l 1177 141 q 1288 191 1235 141 q 1352 309 1341 241 q 1328 421 1363 371 q 1234 471 1293 471 l 954 471 z "},"Њ":{"ha":1414,"x_min":77,"x_max":1437,"o":"m 646 0 l 729 472 l 301 472 l 218 0 l 77 0 l 268 1085 l 409 1085 l 326 613 l 753 613 l 837 1085 l 978 1085 l 895 612 l 1187 612 q 1373 522 1308 609 q 1415 310 1437 434 q 1297 91 1392 178 q 1079 0 1202 3 l 646 0 m 869 471 l 812 141 l 1099 141 q 1210 191 1157 141 q 1274 309 1263 241 q 1250 421 1285 371 q 1156 471 1215 471 l 869 471 z "},"Ћ":{"ha":1116,"x_min":206,"x_max":1131,"o":"m 537 591 q 796 718 658 718 q 1046 620 959 718 q 1095 319 1131 521 l 1039 0 l 893 0 l 951 325 q 920 522 974 456 q 776 584 869 584 l 767 584 q 589 517 666 581 q 502 391 521 462 l 433 0 l 294 0 l 460 944 l 206 944 l 231 1085 l 878 1085 l 853 944 l 600 944 l 537 591 z "},"Ќ":{"ha":818,"x_min":102,"x_max":867,"o":"m 332 512 l 242 0 l 102 0 l 293 1085 l 433 1085 l 373 743 l 690 1085 l 867 1085 l 456 639 l 758 0 l 587 0 l 344 524 l 332 512 m 625 1341 l 795 1341 l 578 1152 l 444 1152 l 625 1341 z "},"Ѝ":{"ha":1045,"x_min":83,"x_max":1152,"o":"m 1152 1085 l 961 0 l 820 0 l 964 821 l 234 0 l 83 0 l 275 1085 l 416 1085 l 267 243 l 1017 1085 l 1152 1085 m 806 1152 l 673 1152 l 522 1341 l 692 1341 l 806 1152 z "},"Ў":{"ha":941,"x_min":73,"x_max":1164,"o":"m 1164 1085 q 340 50 463 134 q 189 -7 256 -7 q 73 40 142 -7 l 162 161 q 233 129 215 129 q 246 131 239 129 q 390 282 270 138 l 486 403 l 161 1085 l 326 1085 l 587 537 l 1004 1085 l 1164 1085 m 648 1345 q 656 1293 648 1303 q 696 1276 671 1276 q 742 1294 721 1276 q 768 1345 753 1303 l 897 1345 q 821 1222 867 1262 q 677 1166 755 1166 q 553 1222 597 1166 q 520 1345 517 1265 l 648 1345 z "},"Џ":{"ha":892,"x_min":69,"x_max":1015,"o":"m 374 0 l 69 0 l 260 1085 l 401 1085 l 235 142 l 708 142 l 874 1085 l 1015 1085 l 823 0 l 513 0 l 472 -234 l 332 -234 l 374 0 z "},"А":{"ha":933,"x_min":34,"x_max":899,"o":"m 652 524 l 604 779 l 467 524 l 652 524 m 696 1085 l 899 0 l 750 0 l 678 384 l 391 384 l 184 0 l 34 0 l 620 1085 l 696 1085 z "},"Б":{"ha":823,"x_min":77,"x_max":857,"o":"m 268 1085 l 790 1085 l 765 944 l 384 944 l 326 613 l 607 613 q 793 523 730 610 q 836 311 857 435 q 717 90 812 180 q 499 0 622 0 l 77 0 l 268 1085 m 301 472 l 243 142 l 519 142 q 631 193 578 142 q 696 311 684 243 q 671 422 707 372 q 577 472 636 472 l 301 472 z "},"В":{"ha":764,"x_min":102,"x_max":799,"o":"m 513 1085 q 662 1018 607 1085 q 701 857 718 951 q 583 737 684 760 q 725 637 651 727 q 771 387 799 547 q 610 112 743 228 q 380 1 486 3 l 380 0 l 102 0 l 293 1085 l 513 1085 m 353 629 l 267 141 l 405 141 l 405 143 q 525 213 449 146 q 627 387 609 286 q 586 558 645 487 q 428 629 528 629 l 353 629 m 409 945 l 378 773 l 470 773 q 528 797 502 776 q 563 857 556 819 q 549 920 570 895 q 488 945 528 945 l 409 945 z "},"Г":{"ha":648,"x_min":86,"x_max":800,"o":"m 800 1085 l 774 944 l 393 944 l 227 0 l 86 0 l 277 1085 l 800 1085 z "},"Д":{"ha":918,"x_min":-26,"x_max":985,"o":"m 678 146 l 819 944 l 551 944 q 531 768 552 889 q 254 146 452 326 l 678 146 m 820 146 l 875 146 l 808 -234 l 668 -234 l 709 0 l 156 0 l 115 -234 l -26 -234 l 41 146 l 71 146 q 391 768 323 387 q 399 1085 410 881 l 985 1085 l 820 146 z "},"Е":{"ha":771,"x_min":102,"x_max":878,"o":"m 878 1085 l 853 945 l 409 945 l 350 613 l 794 613 l 770 473 l 326 473 l 267 141 l 711 141 l 686 0 l 102 0 l 293 1085 l 878 1085 z "},"Ж":{"ha":1358,"x_min":-11,"x_max":1382,"o":"m 873 699 l 1211 1085 l 1382 1085 l 1020 667 l 1369 0 l 1197 0 l 911 547 l 830 454 l 750 0 l 608 0 l 688 454 l 640 547 l 161 0 l -11 0 l 574 667 l 359 1085 l 530 1085 l 732 699 l 800 1085 l 941 1085 l 873 699 z "},"З":{"ha":748,"x_min":88,"x_max":857,"o":"m 584 429 q 568 452 584 429 q 476 475 552 475 l 198 475 l 222 616 l 500 616 q 626 663 576 616 q 688 789 675 709 q 656 910 702 866 q 536 954 610 954 q 216 830 404 954 l 243 989 q 546 1090 396 1090 q 773 1010 689 1090 q 834 798 857 931 q 713 550 798 597 q 745 295 783 511 q 609 81 722 161 q 354 1 497 1 q 88 107 201 1 l 124 310 q 380 144 239 144 q 523 186 456 144 q 602 301 589 227 q 584 429 616 382 z "},"И":{"ha":1045,"x_min":83,"x_max":1152,"o":"m 1152 1085 l 961 0 l 820 0 l 964 821 l 234 0 l 83 0 l 275 1085 l 416 1085 l 267 243 l 1017 1085 l 1152 1085 z "},"Й":{"ha":1045,"x_min":83,"x_max":1152,"o":"m 1152 1085 l 961 0 l 820 0 l 964 821 l 234 0 l 83 0 l 275 1085 l 416 1085 l 267 243 l 1017 1085 l 1152 1085 m 699 1345 q 708 1293 699 1303 q 747 1276 722 1276 q 793 1294 772 1276 q 819 1345 804 1303 l 947 1345 q 871 1222 918 1262 q 728 1166 807 1166 q 604 1222 649 1166 q 571 1345 568 1265 l 699 1345 z "},"К":{"ha":818,"x_min":102,"x_max":867,"o":"m 332 512 l 242 0 l 102 0 l 293 1085 l 433 1085 l 373 743 l 690 1085 l 867 1085 l 456 639 l 758 0 l 587 0 l 344 524 l 332 512 z "},"Л":{"ha":943,"x_min":38,"x_max":1062,"o":"m 340 219 q 249 61 324 125 q 38 -3 174 -3 l 63 138 q 168 161 140 138 q 201 227 193 183 l 353 1085 l 1062 1085 l 871 0 l 730 0 l 896 944 l 468 944 l 340 219 z "},"М":{"ha":1229,"x_min":135,"x_max":1285,"o":"m 454 1085 l 699 477 l 1157 1085 l 1285 1085 l 1094 0 l 954 0 l 1092 784 l 650 198 l 414 784 l 275 0 l 135 0 l 326 1085 l 454 1085 z "},"Н":{"ha":819,"x_min":102,"x_max":909,"o":"m 321 449 l 242 0 l 102 0 l 293 1085 l 433 1085 l 346 589 l 681 589 l 768 1085 l 909 1085 l 718 0 l 577 0 l 656 449 l 321 449 z "},"О":{"ha":1281,"x_min":140,"x_max":1333,"o":"m 834 1099 q 1198 937 1064 1099 q 1292 544 1333 774 q 1060 151 1251 314 q 638 -12 868 -12 q 274 151 408 -12 q 181 544 140 314 q 413 937 222 774 q 834 1099 604 1099 m 809 958 q 495 837 637 958 q 323 544 353 715 q 392 251 292 372 q 663 130 492 130 q 977 251 835 130 q 1150 544 1120 372 q 1080 837 1180 715 q 809 958 981 958 z "},"П":{"ha":854,"x_min":72,"x_max":973,"o":"m 379 944 l 213 0 l 72 0 l 263 1085 l 973 1085 l 782 0 l 641 0 l 807 944 l 379 944 z "},"Р":{"ha":777,"x_min":102,"x_max":892,"o":"m 303 347 l 242 0 l 102 0 l 293 1085 l 601 1085 q 803 977 729 1067 q 865 717 892 869 q 711 455 838 564 q 431 347 584 347 l 303 347 m 408 944 l 328 488 l 456 488 q 629 555 550 488 q 724 717 707 622 q 685 878 741 811 q 536 944 630 944 l 408 944 z "},"С":{"ha":1114,"x_min":140,"x_max":1208,"o":"m 987 258 l 1075 164 q 637 -12 852 -12 q 273 151 407 -12 q 180 543 140 313 q 411 935 220 772 q 832 1097 602 1097 q 1208 922 1047 1097 l 1086 826 q 807 955 964 955 q 494 834 637 955 q 322 543 352 713 q 391 250 292 371 q 661 130 491 130 q 987 258 819 130 z "},"Т":{"ha":715,"x_min":201,"x_max":872,"o":"m 595 945 l 428 0 l 287 0 l 454 945 l 201 945 l 225 1085 l 872 1085 l 848 945 l 595 945 z "},"У":{"ha":941,"x_min":73,"x_max":1164,"o":"m 1164 1085 q 340 50 463 134 q 189 -7 256 -7 q 73 40 142 -7 l 162 161 q 233 129 215 129 q 246 131 239 129 q 390 282 270 138 l 486 403 l 161 1085 l 326 1085 l 587 537 l 1004 1085 l 1164 1085 z "},"Ф":{"ha":1210,"x_min":119,"x_max":1279,"o":"m 585 294 l 670 774 q 422 701 534 770 q 292 534 309 629 q 363 368 275 439 q 585 294 450 298 m 701 151 l 675 0 l 534 0 l 560 151 q 253 258 372 155 q 148 535 119 371 q 350 811 176 699 q 695 918 506 913 l 725 1085 l 866 1085 l 836 918 q 1145 811 1025 913 q 1251 535 1279 699 q 1048 258 1221 371 q 701 151 892 155 m 811 774 l 726 294 q 976 368 863 298 q 1105 534 1089 439 q 1035 701 1122 629 q 811 774 947 770 z "},"Х":{"ha":913,"x_min":34,"x_max":1013,"o":"m 34 0 l 479 592 l 282 1085 l 444 1085 l 585 732 l 852 1085 l 1013 1085 l 641 592 l 879 0 l 718 0 l 536 452 l 195 0 l 34 0 z "},"Ц":{"ha":900,"x_min":77,"x_max":1022,"o":"m 744 0 l 77 0 l 268 1085 l 409 1085 l 243 141 l 715 141 l 882 1085 l 1022 1085 l 857 145 l 910 145 l 843 -234 l 703 -234 l 744 0 z "},"Ч":{"ha":871,"x_min":162,"x_max":1000,"o":"m 751 475 q 496 368 635 368 q 248 467 334 368 q 198 767 162 565 l 254 1085 l 399 1085 l 342 761 q 373 564 319 629 q 517 502 424 502 l 527 502 q 705 568 627 505 q 791 694 772 624 l 859 1085 l 1000 1085 l 808 0 l 668 0 l 751 475 z "},"Ш":{"ha":1238,"x_min":77,"x_max":1353,"o":"m 268 1085 l 409 1085 l 243 142 l 574 142 l 740 1085 l 881 1085 l 715 142 l 1046 142 l 1212 1085 l 1353 1085 l 1162 0 l 77 0 l 268 1085 z "},"Щ":{"ha":1235,"x_min":77,"x_max":1353,"o":"m 1074 0 l 77 0 l 268 1085 l 409 1085 l 243 142 l 574 142 l 740 1085 l 881 1085 l 715 142 l 1046 142 l 1212 1085 l 1353 1085 l 1187 146 l 1240 146 l 1173 -234 l 1033 -234 l 1074 0 z "},"Ъ":{"ha":1035,"x_min":182,"x_max":1038,"o":"m 422 944 l 182 944 l 207 1085 l 587 1085 l 504 612 l 789 612 q 975 522 911 609 q 1017 310 1038 434 q 899 91 994 178 q 681 0 804 3 l 256 0 l 422 944 m 479 471 l 420 141 l 700 141 q 811 191 759 141 q 876 309 864 241 q 852 421 887 371 q 758 471 817 471 l 479 471 z "},"Ы":{"ha":1083,"x_min":71,"x_max":1204,"o":"m 1204 1085 l 1013 0 l 872 0 l 1063 1085 l 1204 1085 m 71 0 l 262 1085 l 404 1085 l 320 612 l 611 612 q 797 522 732 609 q 840 310 861 434 q 721 91 816 178 q 503 0 626 3 l 71 0 m 295 471 l 237 141 l 523 141 q 634 191 581 141 q 699 309 687 241 q 674 421 709 371 q 581 471 639 471 l 295 471 z "},"Ь":{"ha":823,"x_min":71,"x_max":861,"o":"m 71 0 l 262 1085 l 404 1085 l 320 612 l 611 612 q 797 522 732 609 q 840 310 861 434 q 721 91 816 178 q 503 0 626 3 l 71 0 m 295 471 l 237 141 l 523 141 q 634 191 581 141 q 699 309 687 241 q 674 421 709 371 q 581 471 639 471 l 295 471 z "},"Э":{"ha":1219,"x_min":122,"x_max":1286,"o":"m 1114 614 q 1034 836 1126 724 q 763 958 934 958 q 450 836 592 958 q 383 771 421 812 l 215 771 q 366 937 311 889 q 788 1099 558 1099 q 1152 937 1018 1099 q 1246 544 1286 774 q 1014 151 1205 313 q 592 -12 822 -12 q 227 151 362 -12 q 122 422 148 247 l 270 422 q 346 251 292 316 q 617 130 446 130 q 930 251 788 130 q 1088 473 1063 363 l 474 473 l 499 614 l 1114 614 z "},"Ю":{"ha":1538,"x_min":77,"x_max":1627,"o":"m 1103 958 q 790 836 932 958 q 616 544 647 715 q 687 251 587 372 q 958 130 787 130 q 1272 251 1129 130 q 1444 544 1415 372 q 1375 836 1475 715 q 1103 958 1275 958 m 466 472 l 301 472 l 218 0 l 77 0 l 268 1085 l 409 1085 l 326 613 l 490 613 q 708 937 528 785 q 1128 1099 899 1099 q 1493 937 1359 1099 q 1586 544 1627 774 q 1354 151 1546 313 q 932 -12 1163 -12 q 569 151 703 -12 q 466 472 444 302 z "},"Я":{"ha":794,"x_min":62,"x_max":908,"o":"m 614 943 q 443 877 521 943 q 347 717 364 811 q 386 555 331 622 q 534 488 441 488 l 663 488 l 743 943 l 614 943 m 232 0 l 62 0 l 368 371 q 268 456 330 380 q 206 717 180 564 q 360 977 233 869 q 601 1085 466 1067 l 908 1085 l 717 0 l 576 0 l 637 347 l 514 347 l 232 0 z "},"а":{"ha":950,"x_min":121,"x_max":970,"o":"m 762 316 l 781 419 q 736 538 780 485 q 578 609 677 609 q 394 538 477 609 q 294 368 311 468 q 334 197 276 268 q 493 126 393 126 q 676 197 593 126 q 762 316 739 250 m 821 649 l 829 698 l 970 698 l 848 -1 l 707 -1 l 722 87 q 467 -18 602 -18 q 214 95 307 -18 q 150 368 121 208 q 311 641 178 528 q 604 753 444 753 q 821 649 738 753 z "},"б":{"ha":928,"x_min":149,"x_max":1002,"o":"m 311 368 q 352 197 294 268 q 510 127 410 127 q 693 197 610 127 q 794 368 777 268 q 753 539 812 468 q 595 610 695 610 q 412 539 495 610 q 311 368 329 468 m 338 648 q 621 754 467 754 q 873 641 781 754 q 938 368 966 528 q 777 96 909 209 q 484 -18 645 -18 q 233 96 325 -18 q 152 323 149 196 q 172 555 154 451 q 337 906 210 768 q 670 1080 496 1080 q 741 1073 706 1080 q 872 1056 822 1056 q 1002 1087 983 1056 l 982 971 q 851 917 935 917 q 710 936 795 917 q 656 942 682 942 q 429 815 537 942 q 338 648 370 745 z "},"в":{"ha":629,"x_min":77,"x_max":681,"o":"m 292 423 l 382 423 l 382 422 q 492 447 467 426 q 521 492 517 468 q 508 535 525 515 q 406 560 490 556 l 406 559 l 315 559 l 292 423 m 266 277 l 242 141 l 332 141 l 332 140 q 442 165 417 144 q 471 209 467 186 q 457 253 475 232 q 356 278 440 274 l 356 277 l 266 277 m 199 698 l 517 698 q 627 648 574 698 q 662 492 681 598 l 662 491 q 527 349 644 391 q 612 210 629 309 l 612 209 q 522 51 593 102 q 394 0 451 0 l 77 0 l 199 698 z "},"г":{"ha":524,"x_min":77,"x_max":593,"o":"m 315 557 l 217 0 l 77 0 l 199 698 l 593 698 l 568 557 l 315 557 z "},"д":{"ha":762,"x_min":-3,"x_max":797,"o":"m 700 146 l 749 146 l 682 -234 l 542 -234 l 583 0 l 179 0 l 138 -234 l -3 -234 l 64 146 l 139 146 q 133 140 134 141 l 134 140 q 312 498 269 256 q 324 595 321 549 q 323 698 326 622 l 797 698 l 700 146 m 319 141 l 559 141 l 632 557 l 465 557 l 454 498 q 319 141 407 231 z "},"е":{"ha":856,"x_min":98,"x_max":865,"o":"m 347 158 q 469 127 376 127 q 653 197 570 127 q 696 239 664 207 l 828 189 q 737 95 764 118 q 444 -18 604 -18 q 191 95 284 -18 q 126 368 98 208 q 287 642 154 528 q 580 755 420 755 q 806 672 717 755 q 833 642 820 658 q 865 599 839 635 l 781 528 l 347 158 m 658 592 q 555 610 637 610 q 372 539 455 610 q 271 368 288 469 q 270 262 256 286 l 658 592 z "},"ж":{"ha":989,"x_min":-9,"x_max":1046,"o":"m 651 490 l 867 698 l 1046 698 l 817 465 l 998 0 l 831 0 l 701 351 l 612 269 l 565 0 l 423 0 l 471 269 l 411 351 l 157 0 l -9 0 l 335 465 l 187 698 l 367 698 l 509 490 l 546 698 l 688 698 l 651 490 z "},"з":{"ha":631,"x_min":69,"x_max":679,"o":"m 519 351 q 613 210 633 321 q 508 60 597 120 q 313 -1 418 -1 q 138 60 206 -1 q 85 210 69 120 l 94 258 l 238 258 l 229 210 q 253 155 224 180 q 335 130 281 130 q 426 155 388 130 q 469 210 464 180 q 448 263 474 240 q 411 298 429 279 l 253 298 l 273 411 l 448 411 q 479 440 462 429 q 519 493 513 463 q 495 548 524 523 q 414 573 467 573 q 319 547 360 573 q 269 464 288 526 l 126 464 q 243 646 160 589 q 437 703 330 703 q 611 643 543 703 q 663 493 679 583 q 519 351 644 382 z "},"и":{"ha":731,"x_min":69,"x_max":785,"o":"m 192 698 l 332 698 l 256 262 l 662 698 l 785 698 l 662 0 l 522 0 l 600 441 l 215 29 l 210 0 l 69 0 l 192 698 z "},"й":{"ha":731,"x_min":69,"x_max":785,"o":"m 192 698 l 332 698 l 256 262 l 662 698 l 785 698 l 662 0 l 522 0 l 600 441 l 215 29 l 210 0 l 69 0 l 192 698 m 475 958 q 483 906 475 916 q 522 888 497 888 q 568 907 547 888 q 594 958 580 916 l 723 958 q 647 835 693 875 q 503 779 582 779 q 379 835 424 779 q 347 958 344 878 l 475 958 z "},"к":{"ha":642,"x_min":77,"x_max":700,"o":"m 700 698 l 470 465 l 651 0 l 484 0 l 354 351 l 265 269 l 218 0 l 77 0 l 199 698 l 340 698 l 304 489 l 520 698 l 700 698 z "},"л":{"ha":789,"x_min":38,"x_max":843,"o":"m 843 698 l 720 0 l 580 0 l 678 557 l 353 557 l 287 184 q 38 -4 257 14 l 62 135 q 146 182 140 144 l 237 698 l 843 698 z "},"м":{"ha":787,"x_min":62,"x_max":848,"o":"m 435 233 l 718 698 l 848 698 l 726 0 l 585 0 l 641 315 l 449 0 l 338 0 l 258 315 l 202 0 l 62 0 l 184 698 l 315 698 l 435 233 z "},"н":{"ha":728,"x_min":62,"x_max":790,"o":"m 667 0 l 528 0 l 581 304 l 256 304 l 202 0 l 62 0 l 184 698 l 325 698 l 281 446 l 606 446 l 650 698 l 790 698 l 667 0 z "},"о":{"ha":894,"x_min":98,"x_max":926,"o":"m 580 755 q 833 642 740 755 q 898 368 926 528 q 736 95 869 208 q 444 -18 604 -18 q 191 95 284 -18 q 126 368 98 208 q 287 642 154 528 q 580 755 420 755 m 555 610 q 371 539 454 610 q 270 368 288 468 q 311 197 252 268 q 469 127 369 127 q 653 197 570 127 q 754 368 736 268 q 713 539 772 468 q 555 610 655 610 z "},"п":{"ha":744,"x_min":69,"x_max":798,"o":"m 308 557 l 210 0 l 69 0 l 192 698 l 798 698 l 675 0 l 535 0 l 633 557 l 308 557 z "},"р":{"ha":932,"x_min":60,"x_max":958,"o":"m 317 422 l 297 313 q 342 197 299 249 q 501 126 401 126 q 685 197 602 126 q 786 368 768 268 q 745 539 804 468 q 587 610 687 610 q 403 539 486 610 q 317 422 341 487 m 258 87 l 201 -235 l 60 -235 l 224 698 l 365 698 l 354 635 q 612 754 477 754 q 865 641 772 754 q 930 368 958 528 q 768 95 901 208 q 475 -18 635 -18 q 258 87 340 -18 z "},"с":{"ha":856,"x_min":98,"x_max":892,"o":"m 696 239 l 828 189 q 737 95 764 118 q 444 -18 604 -18 q 191 95 284 -18 q 126 368 98 208 q 287 642 154 528 q 580 755 420 755 q 833 642 740 755 q 892 549 852 618 l 742 497 q 713 540 721 530 q 555 610 655 610 q 372 539 455 610 q 271 368 288 469 q 311 198 253 269 q 469 127 370 127 q 653 197 570 127 q 696 239 664 207 z "},"т":{"ha":770,"x_min":160,"x_max":832,"o":"m 553 557 l 455 0 l 315 0 l 414 557 l 160 557 l 185 698 l 832 698 l 807 557 l 553 557 z "},"у":{"ha":772,"x_min":83,"x_max":843,"o":"m 232 -235 l 83 -235 l 338 155 l 174 698 l 332 698 l 441 316 l 686 698 l 843 698 l 232 -235 z "},"ф":{"ha":1486,"x_min":90,"x_max":1525,"o":"m 889 433 l 866 302 q 910 197 870 245 q 1067 126 968 126 q 1251 197 1168 126 q 1352 368 1335 268 q 1312 539 1370 468 q 1153 610 1253 610 q 970 539 1053 610 q 889 433 913 490 m 725 302 l 748 433 q 705 539 745 490 q 546 610 646 610 q 363 539 446 610 q 262 368 279 468 q 302 197 244 268 q 460 126 361 126 q 644 197 560 126 q 725 302 702 245 m 791 675 l 841 960 l 982 960 l 932 675 q 1178 753 1046 753 q 1432 641 1339 753 q 1496 368 1525 528 q 1336 96 1468 209 q 1042 -18 1203 -18 q 824 61 910 -18 l 774 -224 l 633 -224 l 683 61 q 435 -18 568 -18 q 183 96 275 -18 q 118 368 90 209 q 279 641 146 528 q 571 753 411 753 q 791 675 703 753 z "},"х":{"ha":699,"x_min":51,"x_max":737,"o":"m 737 698 l 497 379 l 648 0 l 486 0 l 391 235 l 214 0 l 51 0 l 337 379 l 209 698 l 371 698 l 442 524 l 574 698 l 737 698 z "},"ц":{"ha":764,"x_min":77,"x_max":806,"o":"m 592 0 l 77 0 l 200 699 l 340 699 l 242 141 l 568 141 l 666 699 l 806 699 l 708 146 l 758 146 l 690 -234 l 551 -234 l 592 0 z "},"ч":{"ha":842,"x_min":128,"x_max":895,"o":"m 690 331 q 448 222 581 222 q 206 321 285 222 q 163 621 128 420 l 177 698 l 323 698 l 308 614 q 332 416 284 482 q 468 355 377 355 l 478 355 q 647 420 578 359 q 728 547 711 476 l 754 698 l 895 698 l 772 0 l 631 0 l 690 331 z "},"ш":{"ha":941,"x_min":69,"x_max":994,"o":"m 192 698 l 333 698 l 235 142 l 425 142 l 522 698 l 663 698 l 566 142 l 755 142 l 853 698 l 994 698 l 871 0 l 69 0 l 192 698 z "},"щ":{"ha":970,"x_min":84,"x_max":1008,"o":"m 799 0 l 84 0 l 207 698 l 348 698 l 250 142 l 439 142 l 537 698 l 678 698 l 581 142 l 770 142 l 868 698 l 1008 698 l 911 146 l 965 146 l 898 -234 l 758 -234 l 799 0 z "},"ъ":{"ha":842,"x_min":121,"x_max":837,"o":"m 182 0 l 280 557 l 121 557 l 146 698 l 445 698 l 400 446 l 664 446 l 664 444 q 777 382 719 441 q 820 223 837 319 l 820 222 q 720 64 803 127 q 585 0 642 5 l 182 0 m 347 141 l 524 141 l 524 140 q 645 168 611 144 q 679 222 673 188 q 665 279 685 258 q 553 307 640 302 l 553 305 l 376 305 l 347 141 z "},"ы":{"ha":1001,"x_min":77,"x_max":1047,"o":"m 242 141 l 490 141 l 489 140 q 611 168 576 144 q 644 222 638 188 q 630 279 650 258 q 519 307 605 302 l 518 305 l 271 305 l 242 141 m 924 0 l 784 0 l 907 698 l 1047 698 l 924 0 m 77 0 l 199 698 l 340 698 l 296 446 l 629 446 l 629 444 q 741 382 685 441 q 785 223 802 319 l 785 222 q 686 64 768 127 q 551 0 607 0 l 77 0 z "},"ь":{"ha":729,"x_min":77,"x_max":732,"o":"m 242 141 l 418 141 l 418 140 q 540 168 506 144 q 574 222 568 188 q 559 279 580 258 q 448 307 534 302 l 447 305 l 271 305 l 242 141 m 77 0 l 199 698 l 340 698 l 296 446 l 559 446 l 558 444 q 671 382 614 441 q 715 223 732 319 l 715 222 q 615 64 698 127 q 480 0 536 0 l 77 0 z "},"э":{"ha":873,"x_min":100,"x_max":909,"o":"m 734 357 l 349 357 l 374 499 l 730 499 q 696 539 726 502 q 538 610 638 610 q 355 539 438 610 q 282 450 320 510 l 134 450 q 270 641 199 580 q 564 754 404 754 q 815 641 722 754 q 880 368 909 528 q 720 96 852 209 q 427 -18 587 -18 q 174 96 267 -18 q 100 201 157 116 l 291 201 q 453 127 359 127 q 636 197 553 127 q 734 357 715 264 z "},"ю":{"ha":1170,"x_min":77,"x_max":1208,"o":"m 654 539 q 613 504 654 539 q 553 368 571 468 q 594 197 536 268 q 753 127 652 127 q 936 197 852 127 q 1037 368 1019 268 q 996 539 1055 468 q 838 610 938 610 q 654 539 738 610 m 401 304 l 271 304 l 217 0 l 77 0 l 199 698 l 340 698 l 296 446 l 429 446 q 572 641 455 543 q 863 754 704 754 q 1116 641 1023 754 q 1181 368 1208 528 q 1020 96 1152 209 q 727 -18 887 -18 q 475 96 568 -18 q 401 304 389 200 z "},"я":{"ha":659,"x_min":87,"x_max":704,"o":"m 540 557 l 433 557 l 433 559 q 313 531 346 555 q 279 476 285 511 q 294 421 273 441 q 404 393 318 397 l 404 393 l 511 393 l 540 557 m 704 698 l 581 0 l 441 0 l 486 253 l 404 253 l 401 248 l 351 171 l 242 0 l 87 0 l 255 262 q 181 317 231 264 q 138 475 121 380 l 138 476 q 237 634 155 572 q 372 698 315 694 l 704 698 z "},"ё":{"ha":856,"x_min":98,"x_max":865,"o":"m 347 158 q 469 127 376 127 q 653 197 570 127 q 696 239 664 207 l 828 189 q 737 95 764 118 q 444 -18 604 -18 q 191 95 284 -18 q 126 368 98 208 q 287 642 154 528 q 580 755 420 755 q 806 672 717 755 q 833 642 820 658 q 865 599 839 635 l 781 528 l 347 158 m 658 592 q 555 610 637 610 q 372 539 455 610 q 271 368 288 469 q 270 262 256 286 l 658 592 m 472 975 q 536 947 512 975 q 553 878 561 918 q 512 808 546 836 q 437 779 477 779 q 373 808 397 779 q 357 878 349 836 q 398 947 364 918 q 472 975 431 975 m 727 975 q 791 947 767 975 q 808 878 816 918 q 767 808 801 836 q 692 779 732 779 q 628 808 652 779 q 612 878 604 836 q 653 947 619 918 q 727 975 686 975 z "},"ђ":{"ha":723,"x_min":86,"x_max":744,"o":"m 583 448 q 558 552 594 509 q 461 595 522 595 q 350 552 401 595 q 319 522 327 533 l 227 0 l 86 0 l 228 802 l 157 802 l 182 943 l 252 943 l 277 1085 l 418 1085 l 393 943 l 531 943 l 507 802 l 369 802 l 343 656 q 506 735 402 735 q 678 655 612 735 q 726 454 744 574 l 647 7 q 555 -151 630 -87 q 344 -216 479 -216 l 369 -75 q 473 -52 446 -75 q 507 14 499 -29 l 583 448 z "},"ѓ":{"ha":524,"x_min":77,"x_max":654,"o":"m 315 557 l 217 0 l 77 0 l 199 698 l 593 698 l 568 557 l 315 557 m 483 954 l 654 954 l 436 765 l 302 765 l 483 954 z "},"є":{"ha":873,"x_min":92,"x_max":895,"o":"m 316 499 l 673 499 l 648 357 l 262 357 q 304 197 249 264 q 463 127 363 127 q 651 201 557 127 l 842 201 q 730 96 755 116 q 437 -18 597 -18 q 185 96 278 -18 q 119 368 92 209 q 281 641 148 528 q 573 754 414 754 q 826 641 734 754 q 895 450 876 580 l 747 450 q 707 539 730 510 q 547 610 648 610 q 364 539 448 610 q 316 499 321 502 z "},"ѕ":{"ha":598,"x_min":113,"x_max":597,"o":"m 258 194 q 269 150 259 163 q 325 125 290 125 q 389 150 359 125 q 424 210 418 174 q 410 269 430 245 q 347 321 396 286 q 252 395 278 363 q 220 528 205 450 q 299 663 233 607 q 443 719 364 719 q 564 666 522 719 q 597 583 595 629 l 454 543 q 448 566 452 560 q 418 578 439 578 q 381 563 398 578 q 360 528 363 549 q 368 494 356 508 q 419 452 379 481 q 526 368 495 406 q 564 210 581 302 q 471 51 548 117 q 300 -16 393 -16 q 153 51 207 -16 q 113 164 115 96 l 258 194 z "},"і":{"ha":367,"x_min":113,"x_max":446,"o":"m 376 698 l 254 0 l 113 0 l 236 698 l 376 698 m 357 985 q 421 956 397 985 q 438 886 446 928 q 397 817 431 845 q 322 788 363 788 q 258 817 282 788 q 241 886 234 845 q 282 956 248 928 q 357 985 317 985 z "},"ї":{"ha":372,"x_min":107,"x_max":573,"o":"m 379 699 l 256 0 l 115 0 l 239 699 l 379 699 m 230 975 q 294 947 270 975 q 311 878 318 918 q 270 808 304 836 q 195 779 235 779 q 131 808 155 779 q 115 878 107 836 q 155 947 121 918 q 230 975 189 975 m 485 975 q 549 947 525 975 q 566 878 573 918 q 525 808 559 836 q 450 779 490 779 q 386 808 410 779 q 370 878 362 836 q 410 947 376 918 q 485 975 444 975 z "},"ј":{"ha":380,"x_min":7,"x_max":441,"o":"m 32 -7 q 117 41 109 1 l 233 698 l 373 698 l 257 42 q 7 -146 227 -130 l 32 -7 m 353 985 q 417 956 393 985 q 435 886 441 928 q 393 817 427 845 q 318 788 359 788 q 254 817 278 788 q 237 886 230 845 q 278 956 244 928 q 353 985 313 985 z "},"љ":{"ha":1235,"x_min":39,"x_max":1238,"o":"m 748 141 l 924 141 l 924 139 q 1046 168 1012 144 q 1080 222 1074 188 q 1065 279 1086 258 q 954 306 1040 302 l 953 305 l 777 305 l 748 141 m 680 557 l 354 557 l 288 184 q 39 -4 258 14 l 64 135 q 148 182 141 144 l 239 698 l 844 698 l 800 447 l 1065 446 l 1064 444 q 1177 382 1120 441 q 1221 223 1238 319 l 1221 222 q 1121 64 1204 127 q 986 0 1042 5 l 582 0 l 680 557 z "},"њ":{"ha":1187,"x_min":69,"x_max":1190,"o":"m 700 141 l 877 141 l 876 140 q 998 168 964 144 q 1032 222 1026 188 q 1017 279 1038 258 q 906 307 993 302 l 905 305 l 728 305 l 700 141 m 535 0 l 589 304 l 263 304 l 210 0 l 69 0 l 192 698 l 332 698 l 288 446 l 614 446 l 658 698 l 798 698 l 753 446 l 1017 446 l 1016 444 q 1129 382 1072 441 q 1173 223 1190 319 l 1173 222 q 1074 64 1156 127 q 938 0 995 5 l 535 0 z "},"ћ":{"ha":723,"x_min":86,"x_max":744,"o":"m 252 943 l 277 1085 l 418 1085 l 393 943 l 531 943 l 507 802 l 369 802 l 343 656 q 506 735 389 735 q 678 655 612 735 q 726 454 744 574 l 646 0 l 505 0 l 583 448 q 558 552 594 509 q 461 595 522 595 q 350 552 401 595 q 319 522 327 533 l 227 0 l 86 0 l 228 802 l 157 802 l 182 943 l 252 943 z "},"ќ":{"ha":642,"x_min":77,"x_max":744,"o":"m 700 698 l 470 465 l 651 0 l 484 0 l 354 351 l 265 269 l 218 0 l 77 0 l 199 698 l 340 698 l 304 489 l 520 698 l 700 698 m 573 954 l 744 954 l 526 765 l 393 765 l 573 954 z "},"ѝ":{"ha":731,"x_min":69,"x_max":785,"o":"m 192 698 l 332 698 l 256 262 l 662 698 l 785 698 l 662 0 l 522 0 l 600 441 l 215 29 l 210 0 l 69 0 l 192 698 m 593 765 l 459 765 l 308 954 l 479 954 l 593 765 z "},"ў":{"ha":772,"x_min":83,"x_max":843,"o":"m 232 -235 l 83 -235 l 338 155 l 174 698 l 332 698 l 441 316 l 686 698 l 843 698 l 232 -235 m 494 958 q 503 906 494 916 q 543 888 517 888 q 588 907 567 888 q 614 958 600 916 l 743 958 q 667 835 713 875 q 524 779 602 779 q 399 835 444 779 q 366 958 363 878 l 494 958 z "},"џ":{"ha":744,"x_min":69,"x_max":798,"o":"m 302 0 l 69 0 l 192 698 l 332 698 l 235 141 l 560 141 l 658 698 l 798 698 l 675 0 l 442 0 l 401 -234 l 260 -234 l 302 0 z "},"Ґ":{"ha":686,"x_min":86,"x_max":869,"o":"m 775 945 l 774 944 l 393 944 l 227 0 l 86 0 l 277 1085 l 699 1085 l 729 1255 l 869 1255 l 815 945 l 775 945 z "},"ґ":{"ha":547,"x_min":77,"x_max":662,"o":"m 315 557 l 217 0 l 77 0 l 199 698 l 491 698 l 522 867 l 662 867 l 607 557 l 315 557 z "},"Ẁ":{"ha":1143,"x_min":115,"x_max":1250,"o":"m 537 203 l 692 1085 l 833 1085 l 677 203 q 695 174 682 191 q 792 132 732 132 q 904 175 852 132 q 966 279 956 218 l 1109 1085 l 1250 1085 l 1107 273 q 987 77 1084 159 q 768 -9 888 -9 q 585 75 648 -9 q 372 -9 492 -9 q 183 77 252 -9 q 133 273 115 158 l 276 1085 l 416 1085 l 274 279 q 300 175 264 218 q 397 132 336 132 q 509 174 458 132 q 537 203 529 191 m 881 1152 l 747 1152 l 596 1341 l 767 1341 l 881 1152 z "},"ẁ":{"ha":962,"x_min":125,"x_max":982,"o":"m 446 207 l 532 698 l 673 698 l 589 218 q 603 156 582 181 q 658 132 623 132 q 760 235 741 132 l 841 698 l 982 698 l 896 209 q 804 57 877 119 q 633 -9 726 -9 q 490 56 539 -9 q 324 -9 417 -9 q 177 57 231 -9 q 138 209 125 119 l 224 698 l 365 698 l 283 235 q 349 132 265 132 q 414 156 384 132 q 446 207 438 177 m 722 765 l 588 765 l 437 954 l 608 954 l 722 765 z "},"Ẃ":{"ha":1143,"x_min":115,"x_max":1250,"o":"m 537 203 l 692 1085 l 833 1085 l 677 203 q 695 174 682 191 q 792 132 732 132 q 904 175 852 132 q 966 279 956 218 l 1109 1085 l 1250 1085 l 1107 273 q 987 77 1084 159 q 768 -9 888 -9 q 585 75 648 -9 q 372 -9 492 -9 q 183 77 252 -9 q 133 273 115 158 l 276 1085 l 416 1085 l 274 279 q 300 175 264 218 q 397 132 336 132 q 509 174 458 132 q 537 203 529 191 m 849 1341 l 1020 1341 l 802 1152 l 669 1152 l 849 1341 z "},"ẃ":{"ha":962,"x_min":125,"x_max":982,"o":"m 446 207 l 532 698 l 673 698 l 589 218 q 603 156 582 181 q 658 132 623 132 q 760 235 741 132 l 841 698 l 982 698 l 896 209 q 804 57 877 119 q 633 -9 726 -9 q 490 56 539 -9 q 324 -9 417 -9 q 177 57 231 -9 q 138 209 125 119 l 224 698 l 365 698 l 283 235 q 349 132 265 132 q 414 156 384 132 q 446 207 438 177 m 690 954 l 861 954 l 643 765 l 509 765 l 690 954 z "},"Ẅ":{"ha":1143,"x_min":115,"x_max":1250,"o":"m 537 203 l 692 1085 l 833 1085 l 677 203 q 695 174 682 191 q 792 132 732 132 q 904 175 852 132 q 966 279 956 218 l 1109 1085 l 1250 1085 l 1107 273 q 987 77 1084 159 q 768 -9 888 -9 q 585 75 648 -9 q 372 -9 492 -9 q 183 77 252 -9 q 133 273 115 158 l 276 1085 l 416 1085 l 274 279 q 300 175 264 218 q 397 132 336 132 q 509 174 458 132 q 537 203 529 191 m 684 1362 q 748 1334 724 1362 q 766 1265 772 1305 q 724 1195 758 1223 q 650 1166 690 1166 q 585 1195 609 1166 q 569 1265 562 1223 q 610 1334 576 1305 q 684 1362 644 1362 m 939 1362 q 1003 1334 979 1362 q 1021 1265 1027 1305 q 979 1195 1013 1223 q 905 1166 945 1166 q 840 1195 864 1166 q 824 1265 817 1223 q 865 1334 831 1305 q 939 1362 899 1362 z "},"ẅ":{"ha":962,"x_min":125,"x_max":982,"o":"m 446 207 l 532 698 l 673 698 l 589 218 q 603 156 582 181 q 658 132 623 132 q 760 235 741 132 l 841 698 l 982 698 l 896 209 q 804 57 877 119 q 633 -9 726 -9 q 490 56 539 -9 q 324 -9 417 -9 q 177 57 231 -9 q 138 209 125 119 l 224 698 l 365 698 l 283 235 q 349 132 265 132 q 414 156 384 132 q 446 207 438 177 m 525 975 q 589 947 565 975 q 606 878 613 918 q 565 808 599 836 q 490 779 530 779 q 426 808 450 779 q 410 878 402 836 q 450 947 416 918 q 525 975 484 975 m 780 975 q 844 947 820 975 q 861 878 868 918 q 820 808 854 836 q 745 779 785 779 q 681 808 705 779 q 665 878 657 836 q 705 947 671 918 q 780 975 739 975 z "},"Ỳ":{"ha":959,"x_min":225,"x_max":1116,"o":"m 486 435 l 225 1085 l 387 1085 l 583 594 l 954 1085 l 1116 1085 l 626 435 l 549 0 l 409 0 l 486 435 m 789 1152 l 655 1152 l 504 1341 l 675 1341 l 789 1152 z "},"ỳ":{"ha":772,"x_min":83,"x_max":843,"o":"m 232 -235 l 83 -235 l 338 155 l 174 698 l 332 698 l 441 316 l 686 698 l 843 698 l 232 -235 m 627 765 l 493 765 l 342 954 l 513 954 l 627 765 z "},"–":{"ha":634,"x_min":94,"x_max":685,"o":"m 119 483 l 685 483 l 661 342 l 94 342 l 119 483 z "},"—":{"ha":1032,"x_min":94,"x_max":1083,"o":"m 119 483 l 1083 483 l 1059 342 l 94 342 l 119 483 z "},"―":{"ha":2058,"x_min":9,"x_max":1438,"o":"m 34 483 l 1438 483 l 1414 342 l 9 342 l 34 483 z "},"‗":{"ha":743,"x_min":-21,"x_max":738,"o":"m 3 -75 l 713 -75 l 688 -216 l -21 -216 l 3 -75 m 28 66 l 738 66 l 713 -75 l 4 -75 l 28 66 z "},"‘":{"ha":278,"x_min":186,"x_max":436,"o":"m 374 971 q 390 901 397 943 q 349 832 382 861 q 274 804 315 804 q 210 832 234 804 q 193 901 186 861 q 209 943 197 923 l 308 1092 l 436 1092 l 374 971 z "},"’":{"ha":278,"x_min":176,"x_max":426,"o":"m 238 924 q 222 994 215 953 q 263 1063 229 1035 q 338 1092 297 1092 q 402 1063 378 1092 q 419 994 426 1035 q 404 952 415 972 l 304 804 l 176 804 l 238 924 z "},"‚":{"ha":278,"x_min":16,"x_max":266,"o":"m 78 16 q 62 85 55 44 q 103 155 69 126 q 178 183 137 183 q 242 155 218 183 q 259 85 266 126 q 243 43 255 64 l 144 -105 l 16 -105 l 78 16 z "},"‛":{"ha":278,"x_min":205,"x_max":413,"o":"m 385 804 l 257 804 l 210 952 q 210 994 205 972 q 251 1063 216 1035 q 325 1092 285 1092 q 389 1063 366 1092 q 406 994 413 1035 q 365 924 399 953 l 385 804 z "},"“":{"ha":505,"x_min":186,"x_max":663,"o":"m 374 971 q 391 901 397 943 q 349 832 383 861 q 275 804 315 804 q 211 832 235 804 q 194 901 186 861 q 210 943 197 923 l 309 1092 l 437 1092 l 374 971 m 600 971 q 616 901 623 943 q 575 832 609 861 q 500 804 541 804 q 436 832 460 804 q 419 901 412 861 q 435 943 423 923 l 534 1092 l 663 1092 l 600 971 z "},"”":{"ha":505,"x_min":176,"x_max":652,"o":"m 465 924 q 448 994 441 953 q 490 1063 456 1035 q 564 1092 524 1092 q 628 1063 604 1092 q 645 994 652 1035 q 629 952 642 972 l 530 804 l 402 804 l 465 924 m 239 924 q 223 994 216 953 q 264 1063 230 1035 q 338 1092 298 1092 q 402 1063 378 1092 q 420 994 427 1035 q 404 952 416 972 l 304 804 l 176 804 l 239 924 z "},"„":{"ha":504,"x_min":9,"x_max":485,"o":"m 71 -23 q 56 47 48 5 q 96 116 62 87 q 171 144 130 144 q 235 116 211 144 q 252 47 259 87 q 237 5 248 25 l 137 -144 l 9 -144 l 71 -23 m 297 -23 q 281 47 273 5 q 322 116 288 87 q 397 144 356 144 q 461 116 437 144 q 477 47 485 87 q 462 5 474 25 l 363 -144 l 235 -144 l 297 -23 z "},"†":{"ha":569,"x_min":237,"x_max":692,"o":"m 415 1082 l 439 1219 l 559 1219 l 535 1082 l 692 1082 l 671 962 l 514 962 l 363 109 l 243 109 l 394 962 l 237 962 l 258 1082 l 415 1082 z "},"‡":{"ha":569,"x_min":178,"x_max":692,"o":"m 394 962 l 237 962 l 259 1082 l 416 1082 l 439 1219 l 559 1219 l 536 1082 l 692 1082 l 671 962 l 514 962 l 475 743 l 632 743 l 611 623 l 454 623 l 363 109 l 243 109 l 334 623 l 178 623 l 199 743 l 355 743 l 394 962 z "},"•":{"ha":583,"x_min":233,"x_max":529,"o":"m 406 644 q 495 604 462 644 q 519 507 529 564 q 461 410 509 450 q 357 370 413 370 q 267 410 300 370 q 243 507 233 450 q 301 604 254 564 q 406 644 349 644 z "},"…":{"ha":1389,"x_min":77,"x_max":1215,"o":"m 199 188 q 264 159 240 188 q 281 90 288 131 q 239 20 273 48 q 165 -9 205 -9 q 101 20 125 -9 q 84 90 77 48 q 125 159 92 131 q 199 188 159 188 m 663 188 q 727 159 703 188 q 744 90 751 131 q 703 20 736 48 q 628 -9 669 -9 q 564 20 588 -9 q 547 90 540 48 q 589 159 555 131 q 663 188 623 188 m 1126 188 q 1191 159 1166 188 q 1207 90 1215 131 q 1166 20 1200 48 q 1091 -9 1132 -9 q 1027 20 1051 -9 q 1010 90 1003 48 q 1052 159 1018 131 q 1126 188 1086 188 z "},"‰":{"ha":1201,"x_min":71,"x_max":1211,"o":"m 365 705 q 329 691 345 705 q 309 658 313 677 q 317 624 306 637 q 348 610 328 610 q 385 624 368 610 q 405 658 401 637 q 396 691 408 677 q 365 705 385 705 m 1019 330 q 982 316 998 330 q 962 283 966 302 q 970 249 958 262 q 1002 235 981 235 q 1037 249 1021 235 q 1057 283 1054 262 q 1049 316 1061 302 q 1019 330 1038 330 m 674 330 q 638 316 654 330 q 618 283 622 302 q 626 249 614 262 q 657 235 637 235 q 693 249 677 235 q 713 283 710 262 q 706 316 718 302 q 674 330 694 330 m 951 875 l 172 -14 l 71 66 l 850 954 l 951 875 m 825 208 q 774 151 806 176 q 633 96 711 96 q 510 150 555 96 q 479 283 465 205 q 557 415 493 360 q 699 469 621 469 q 821 415 777 469 q 851 357 843 389 q 901 415 870 389 q 1043 469 965 469 q 1165 415 1120 469 q 1196 283 1211 360 q 1119 150 1183 205 q 977 96 1055 96 q 854 151 899 96 q 825 208 833 176 m 512 790 q 534 762 512 790 q 543 658 557 735 q 465 526 530 581 q 323 471 401 471 q 201 526 246 471 q 170 658 157 581 q 248 790 184 735 q 389 844 312 844 q 512 790 467 844 z "},"′":{"ha":311,"x_min":85,"x_max":225,"o":"m 85 624 l 85 1083 l 225 1083 l 225 624 l 85 624 z "},"″":{"ha":423,"x_min":37,"x_max":385,"o":"m 37 624 l 37 1083 l 178 1083 l 178 624 l 37 624 m 245 624 l 245 1083 l 385 1083 l 385 624 l 245 624 z "},"‹":{"ha":505,"x_min":126,"x_max":564,"o":"m 126 332 l 564 726 l 530 537 l 302 332 l 458 125 l 425 -64 l 126 332 z "},"›":{"ha":505,"x_min":56,"x_max":494,"o":"m 56 -64 l 90 125 l 318 332 l 162 537 l 195 726 l 494 332 l 56 -64 z "},"‼":{"ha":734,"x_min":94,"x_max":811,"o":"m 216 188 q 281 159 257 188 q 298 90 305 131 q 256 20 290 48 q 182 -9 222 -9 q 118 20 142 -9 q 101 90 94 48 q 142 159 109 131 q 216 188 176 188 m 444 1085 l 307 309 l 167 309 l 304 1085 l 444 1085 m 583 188 q 648 159 624 188 q 665 90 672 131 q 623 20 657 48 q 549 -9 589 -9 q 485 20 509 -9 q 468 90 460 48 q 509 159 475 131 q 583 188 543 188 m 811 1085 l 674 309 l 534 309 l 671 1085 l 811 1085 z "},"‾":{"ha":743,"x_min":207,"x_max":941,"o":"m 232 1217 l 941 1217 l 916 1076 l 207 1076 l 232 1217 z "},"⁄":{"ha":125,"x_min":-248,"x_max":632,"o":"m 632 947 l -146 58 l -248 138 l 532 1027 l 632 947 z "},"∕":{"ha":125,"x_min":-248,"x_max":632,"o":"m 632 947 l -146 58 l -248 138 l 532 1027 l 632 947 z "},"ⁿ":{"ha":770,"x_min":163,"x_max":829,"o":"m 394 860 l 304 350 l 163 350 l 287 1048 l 427 1048 l 414 973 q 597 1085 478 1085 q 763 1005 696 1085 q 810 803 829 924 l 730 350 l 589 350 l 668 798 q 643 902 679 859 q 546 945 606 945 q 434 902 486 945 q 394 860 404 878 z "},"₣":{"ha":725,"x_min":76,"x_max":849,"o":"m 201 377 l 327 1085 l 849 1085 l 824 945 l 443 945 l 385 613 l 766 613 l 741 473 l 359 473 l 342 377 l 522 377 l 498 237 l 318 237 l 276 0 l 135 0 l 177 237 l 76 237 l 100 377 l 201 377 z "},"₤":{"ha":823,"x_min":78,"x_max":834,"o":"m 450 345 q 326 106 423 191 q 453 142 387 142 q 489 139 471 142 q 624 127 574 127 q 755 148 669 127 l 757 9 q 599 -14 659 -14 q 479 1 538 -14 q 382 13 424 13 q 321 5 347 13 q 159 -62 255 -18 l 78 59 q 222 174 200 153 q 311 347 292 243 l 163 347 l 187 486 l 304 486 q 287 542 304 488 q 243 772 234 661 q 248 800 245 786 q 347 983 265 902 q 559 1084 437 1072 q 587 1084 574 1084 q 758 1017 688 1084 q 825 823 834 940 q 821 791 824 806 q 767 667 813 743 l 644 711 q 680 797 675 772 q 682 811 682 804 q 648 909 687 870 q 562 943 613 943 q 548 942 555 943 q 440 891 487 937 q 391 800 399 850 q 389 785 389 792 q 406 642 382 722 q 452 486 447 552 l 583 486 l 559 347 l 450 345 z "},"₧":{"ha":1372,"x_min":102,"x_max":1371,"o":"m 394 944 l 314 488 l 429 488 q 586 555 514 488 q 674 717 658 622 q 643 878 691 811 q 509 944 594 944 l 394 944 m 742 557 q 658 456 708 503 q 404 347 542 347 l 289 347 l 228 0 l 102 0 l 293 1085 l 570 1085 q 750 977 685 1067 q 801 717 828 869 q 798 698 800 707 l 825 698 l 872 960 l 1013 960 l 966 698 l 1091 698 l 1087 675 q 1217 719 1147 719 q 1338 666 1295 719 q 1371 583 1369 629 l 1227 543 q 1222 566 1226 560 q 1192 578 1212 578 q 1154 563 1171 578 q 1133 528 1137 549 q 1141 494 1130 508 q 1193 452 1152 481 q 1300 368 1269 406 q 1338 210 1354 302 q 1244 51 1321 117 q 1074 -16 1167 -16 q 926 51 981 -16 q 887 164 889 96 l 1031 194 q 1043 150 1032 163 q 1099 125 1064 125 q 1162 150 1133 125 q 1198 210 1191 174 q 1183 269 1204 245 q 1120 321 1169 286 q 1025 395 1051 363 q 993 528 979 450 q 1000 557 996 543 l 941 557 l 843 0 l 703 0 l 801 557 l 742 557 z "},"€":{"ha":1022,"x_min":132,"x_max":1036,"o":"m 298 659 l 306 700 q 467 972 334 859 q 759 1085 600 1085 q 1036 942 919 1085 l 916 841 q 733 941 833 941 q 550 870 633 941 q 449 700 467 800 l 441 659 l 862 659 l 811 531 l 419 531 l 412 493 l 806 493 l 756 366 l 391 368 q 431 197 372 268 q 590 127 490 127 q 773 198 690 127 q 866 326 825 242 l 1012 326 q 857 96 948 174 q 564 -17 724 -17 q 312 96 405 -17 q 248 368 219 209 l 247 366 l 132 366 l 182 493 l 269 493 l 276 531 l 188 531 l 238 659 l 298 659 z "},"℅":{"ha":1331,"x_min":178,"x_max":1342,"o":"m 636 701 l 753 656 q 674 573 695 591 q 446 486 570 486 q 250 573 322 486 q 199 785 178 661 q 325 997 222 909 q 552 1085 428 1085 q 749 997 676 1085 q 800 916 764 979 l 666 869 q 641 907 646 899 q 530 956 600 956 q 400 906 459 956 q 329 785 342 856 q 358 665 317 715 q 469 614 399 614 q 599 665 540 614 q 636 701 607 671 m 1208 947 l 430 58 l 328 138 l 1107 1027 l 1208 947 m 1074 587 q 1270 499 1198 587 q 1320 287 1342 411 q 1195 75 1298 163 q 968 -13 1092 -13 q 771 75 844 -13 q 721 287 699 163 q 846 499 743 411 q 1074 587 949 587 m 1050 458 q 921 408 979 458 q 850 287 862 357 q 878 166 837 216 q 990 117 919 117 q 1120 166 1061 117 q 1192 287 1179 216 q 1162 408 1204 357 q 1050 458 1121 458 z "},"№":{"ha":1466,"x_min":85,"x_max":1606,"o":"m 1499 981 l 1606 981 l 1521 502 l 993 502 l 1012 608 l 1434 608 l 1499 981 m 1196 792 q 1267 816 1240 794 q 1301 873 1295 840 q 1287 931 1307 907 q 1224 955 1269 953 q 1153 931 1179 953 q 1119 873 1125 907 q 1133 816 1113 840 q 1196 792 1150 794 m 1162 659 q 1022 722 1073 659 q 986 873 970 785 q 1075 1025 1002 962 q 1238 1088 1149 1088 l 1257 1088 q 1397 1025 1346 1088 q 1433 873 1449 962 q 1344 722 1417 785 q 1181 659 1270 659 l 1162 659 m 276 1085 l 404 1085 l 715 311 l 852 1085 l 993 1085 l 802 0 l 679 0 l 363 784 l 225 0 l 85 0 l 276 1085 z "},"™":{"ha":851,"x_min":34,"x_max":817,"o":"m 330 968 l 268 968 l 268 591 l 148 591 l 148 968 l 34 968 l 34 1085 l 430 1085 l 574 865 l 718 1085 l 817 1085 l 817 591 l 698 591 l 698 838 l 574 647 l 449 839 l 449 591 l 330 591 l 330 968 z "},"Ω":{"ha":1168,"x_min":160,"x_max":1206,"o":"m 348 140 q 275 209 317 162 q 193 528 160 338 q 396 932 238 779 q 770 1085 553 1085 l 781 1085 q 1101 932 997 1085 q 1161 528 1206 779 q 966 209 1128 338 q 870 140 909 162 l 1029 140 l 1004 0 l 653 0 l 676 132 q 881 266 771 168 q 1020 528 991 365 q 982 840 1055 726 q 753 954 909 954 l 751 954 q 482 840 595 954 q 334 528 369 726 q 381 266 305 365 q 538 132 457 168 l 515 0 l 163 0 l 189 140 l 348 140 z "},"←":{"ha":1244,"x_min":77,"x_max":1167,"o":"m 285 747 l 285 608 l 1167 608 l 1167 467 l 285 467 l 285 326 l 77 537 l 285 747 z "},"↑":{"ha":882,"x_min":231,"x_max":651,"o":"m 651 884 l 511 884 l 511 2 l 370 2 l 370 884 l 231 884 l 440 1093 l 651 884 z "},"→":{"ha":1244,"x_min":77,"x_max":1167,"o":"m 1167 537 l 959 326 l 959 467 l 77 467 l 77 608 l 959 608 l 959 747 l 1167 537 z "},"↓":{"ha":882,"x_min":231,"x_max":651,"o":"m 440 -15 l 231 193 l 370 193 l 370 1076 l 511 1076 l 511 193 l 651 193 l 440 -15 z "},"↔":{"ha":1262,"x_min":77,"x_max":1185,"o":"m 976 608 l 976 747 l 1185 537 l 976 326 l 976 467 l 285 467 l 285 326 l 77 537 l 285 747 l 285 608 l 976 608 z "},"↕":{"ha":1415,"x_min":498,"x_max":918,"o":"m 779 193 l 918 193 l 709 -15 l 498 193 l 638 193 l 638 884 l 498 884 l 709 1093 l 918 884 l 779 884 l 779 193 z "},"↨":{"ha":1415,"x_min":498,"x_max":919,"o":"m 707 1090 l 559 1090 l 559 1232 l 859 1232 l 859 1090 l 712 1090 l 919 884 l 780 884 l 780 193 l 919 193 l 713 -11 l 859 -11 l 859 -151 l 559 -151 l 559 -11 l 705 -11 l 498 193 l 639 193 l 639 884 l 498 884 l 707 1090 z "},"∂":{"ha":709,"x_min":40,"x_max":850,"o":"m 600 472 q 228 253 334 439 q 214 207 217 228 q 308 138 201 138 q 600 472 480 155 m 639 610 q 654 686 645 635 q 602 943 696 924 q 558 946 580 946 q 320 787 457 946 l 275 928 q 576 1076 422 1076 q 677 1063 625 1076 q 795 702 850 1016 q 747 507 780 616 q 285 7 583 14 q 75 203 40 7 q 99 284 81 239 q 639 610 236 562 z "},"∆":{"ha":899,"x_min":-23,"x_max":899,"o":"m 37 1 l -23 1 l 564 1085 l 691 1085 l 899 0 l 37 0 l 37 1 m 722 141 l 586 850 l 201 141 l 722 141 z "},"∏":{"ha":925,"x_min":31,"x_max":1044,"o":"m 379 944 l 172 -233 l 31 -233 l 263 1085 l 1044 1085 l 811 -233 l 670 -233 l 878 944 l 379 944 z "},"∑":{"ha":858,"x_min":-3,"x_max":979,"o":"m 979 1085 l 954 944 l 422 944 l 572 426 l 239 -92 l 772 -92 l 747 -233 l -3 -233 l 416 426 l 230 1085 l 979 1085 z "},"−":{"ha":754,"x_min":85,"x_max":669,"o":"m 85 483 l 669 483 l 669 342 l 85 342 l 85 483 z "},"√":{"ha":1088,"x_min":39,"x_max":1088,"o":"m 595 307 l 938 1173 l 1088 1173 l 600 -91 l 179 439 l 119 412 l 39 512 l 298 658 l 595 307 z "},"∞":{"ha":850,"x_min":55,"x_max":793,"o":"m 665 552 q 634 626 665 595 q 560 656 604 656 q 481 626 515 656 q 435 536 447 594 q 481 445 447 477 q 560 414 515 414 q 634 445 604 414 q 665 552 665 475 m 793 552 q 725 354 793 422 q 560 286 656 286 q 359 416 416 286 q 235 349 308 349 q 108 401 161 349 q 55 543 55 453 q 107 671 55 618 q 235 724 160 724 q 359 654 309 724 q 560 785 423 785 q 725 716 656 785 q 793 552 793 648 m 183 536 q 198 492 183 507 q 235 477 213 477 q 275 494 256 477 q 300 536 293 511 q 275 577 293 559 q 235 594 256 594 q 198 579 213 594 q 183 536 183 564 z "},"∫":{"ha":440,"x_min":24,"x_max":415,"o":"m 290 -8 q 24 -227 281 -227 l 24 -90 q 150 -7 145 -90 l 150 940 q 415 1158 167 1158 l 415 1029 q 290 937 299 1026 l 290 -8 z "},"≈":{"ha":901,"x_min":85,"x_max":816,"o":"m 184 558 l 85 574 q 103 686 88 649 q 227 803 140 774 q 275 810 250 810 q 470 743 352 810 q 620 680 578 680 l 626 680 q 665 718 654 688 q 671 800 671 734 l 816 777 q 795 665 810 702 q 714 568 768 601 l 816 552 q 795 440 810 477 q 672 323 759 353 q 624 316 650 316 q 429 384 547 316 q 279 446 320 446 q 273 446 275 446 q 234 408 245 437 q 226 327 227 391 l 85 349 q 103 461 88 424 q 184 558 130 526 m 671 549 q 624 541 649 541 q 429 609 547 541 q 279 671 320 671 q 273 671 275 671 q 234 633 245 663 q 227 578 229 620 l 227 578 q 275 585 250 585 q 470 517 352 585 q 620 455 578 455 l 626 455 q 665 492 654 463 q 671 549 670 505 z "},"≠":{"ha":859,"x_min":76,"x_max":783,"o":"m 368 442 l 137 442 l 137 583 l 495 583 l 605 705 l 783 705 l 673 583 l 722 583 l 722 442 l 545 442 l 492 382 l 722 382 l 722 242 l 364 242 l 254 120 l 76 120 l 186 242 l 137 242 l 137 382 l 313 382 l 368 442 z "},"≡":{"ha":754,"x_min":85,"x_max":669,"o":"m 85 483 l 669 483 l 669 342 l 85 342 l 85 483 m 85 289 l 669 289 l 669 149 l 85 149 l 85 289 m 85 670 l 669 670 l 669 530 l 85 530 l 85 670 z "},"≤":{"ha":1020,"x_min":68,"x_max":951,"o":"m 764 141 l 68 395 l 951 716 l 951 566 l 479 395 l 951 222 l 951 0 l 180 0 l 180 141 l 764 141 z "},"≥":{"ha":1020,"x_min":68,"x_max":951,"o":"m 840 141 l 840 0 l 68 0 l 68 222 l 541 395 l 68 566 l 68 716 l 951 395 l 256 141 l 840 141 z "},"⌠":{"ha":498,"x_min":154,"x_max":420,"o":"m 294 -227 l 154 -227 l 154 940 q 419 1158 172 1158 l 420 1029 q 294 937 304 1026 l 294 -227 z "},"⌡":{"ha":497,"x_min":77,"x_max":343,"o":"m 203 1158 l 343 1158 l 343 -8 q 77 -227 326 -227 l 77 -98 q 203 -5 194 -94 l 203 1158 z "},"":{"ha":709,"x_min":123,"x_max":758,"o":"m 670 916 q 734 888 710 916 q 751 819 758 859 q 710 749 744 777 q 635 720 675 720 q 571 749 595 720 q 555 819 547 777 q 595 888 562 859 q 670 916 629 916 m 536 558 l 362 558 l 264 0 l 123 0 l 222 558 l 159 558 l 184 699 l 247 699 l 269 824 q 361 972 289 911 q 519 1032 435 1032 q 642 1003 561 1032 l 572 870 q 500 896 517 896 q 441 871 473 896 q 408 819 415 850 l 387 699 l 702 699 l 586 42 q 336 -146 556 -128 l 361 -6 q 446 41 439 3 l 536 558 z "},"":{"ha":793,"x_min":123,"x_max":886,"o":"m 673 604 q 886 715 770 710 l 860 570 q 728 520 782 566 q 629 359 649 453 l 566 0 l 426 0 l 524 558 l 362 558 l 264 0 l 123 0 l 222 558 l 159 558 l 184 699 l 247 699 l 269 824 q 361 972 289 911 q 519 1032 435 1032 q 642 1003 561 1032 l 572 870 q 500 896 517 896 q 441 871 473 896 q 408 819 415 850 l 387 699 l 690 699 l 673 604 z "},"":{"ha":677,"x_min":76,"x_max":767,"o":"m 340 699 l 502 699 l 536 893 q 484 896 528 896 q 394 871 425 896 q 361 819 368 850 l 340 699 m 199 699 l 221 824 q 313 972 241 911 q 503 1032 388 1032 q 692 981 604 1032 l 642 699 l 767 699 l 742 558 l 617 558 l 519 0 l 378 0 l 477 558 l 315 558 l 216 0 l 76 0 l 174 558 l 112 558 l 137 699 l 199 699 z "},"":{"ha":1074,"x_min":123,"x_max":1145,"o":"m 519 558 l 362 558 l 264 0 l 123 0 l 222 558 l 159 558 l 184 699 l 247 699 l 269 824 q 361 972 289 911 q 519 1032 435 1032 q 642 1003 561 1032 l 572 870 q 500 896 517 896 q 441 871 473 896 q 408 819 415 850 l 387 699 l 635 699 l 744 317 l 989 699 l 1145 699 l 631 -90 l 631 -88 l 535 -234 l 387 -234 l 641 155 l 519 558 z "},"":{"ha":1167,"x_min":123,"x_max":1230,"o":"m 362 558 l 264 0 l 123 0 l 222 558 l 159 558 l 184 699 l 247 699 l 269 824 q 361 972 289 911 q 519 1032 435 1032 q 642 1003 561 1032 l 572 870 q 500 896 517 896 q 441 871 473 896 q 408 819 415 850 l 387 699 l 574 699 l 595 824 q 688 972 616 911 q 846 1032 762 1032 q 968 1003 888 1032 l 899 870 q 828 896 844 896 q 769 871 800 896 q 736 819 743 850 l 715 699 l 964 699 l 1010 960 l 1150 960 l 1104 699 l 1230 699 l 1204 558 l 1079 558 l 981 0 l 840 0 l 939 558 l 690 558 l 591 0 l 450 0 l 549 558 l 362 558 z "},"":{"ha":1400,"x_min":123,"x_max":1473,"o":"m 362 558 l 264 0 l 123 0 l 222 558 l 159 558 l 184 699 l 247 699 l 269 824 q 361 972 289 911 q 519 1032 435 1032 q 642 1003 561 1032 l 572 870 q 500 896 517 896 q 441 871 473 896 q 408 819 415 850 l 387 699 l 574 699 l 595 824 q 688 972 616 911 q 846 1032 762 1032 q 968 1003 888 1032 l 899 870 q 828 896 844 896 q 769 871 800 896 q 736 819 743 850 l 715 699 l 962 699 l 1072 317 l 1316 699 l 1473 699 l 958 -90 l 958 -88 l 862 -234 l 713 -234 l 968 155 l 846 558 l 690 558 l 591 0 l 450 0 l 549 558 l 362 558 z "},"":{"ha":1491,"x_min":123,"x_max":1565,"o":"m 362 558 l 264 0 l 123 0 l 222 558 l 159 558 l 184 699 l 247 699 l 269 824 q 361 972 289 911 q 519 1032 435 1032 q 642 1003 561 1032 l 572 870 q 500 896 517 896 q 441 871 473 896 q 408 819 415 850 l 387 699 l 637 699 l 683 960 l 823 960 l 777 699 l 1054 699 l 1163 317 l 1408 699 l 1565 699 l 1050 -90 l 1050 -88 l 954 -234 l 806 -234 l 1060 155 l 939 558 l 752 558 l 654 0 l 513 0 l 612 558 l 362 558 z "},"":{"ha":885,"x_min":159,"x_max":977,"o":"m 770 636 q 977 715 862 710 l 951 570 q 821 520 874 566 q 721 359 741 453 l 658 0 l 517 0 l 616 558 l 425 558 l 327 0 l 186 0 l 284 558 l 159 558 l 184 699 l 309 699 l 355 960 l 496 960 l 450 699 l 781 699 l 770 636 z "},"":{"ha":932,"x_min":159,"x_max":994,"o":"m 425 558 l 327 0 l 186 0 l 284 558 l 159 558 l 184 699 l 309 699 l 355 960 l 496 960 l 450 699 l 728 699 l 774 960 l 916 960 l 869 699 l 994 699 l 969 558 l 844 558 l 746 0 l 605 0 l 703 558 l 425 558 z "},"":{"ha":1165,"x_min":159,"x_max":1237,"o":"m 612 558 l 425 558 l 327 0 l 186 0 l 284 558 l 159 558 l 184 699 l 309 699 l 355 960 l 496 960 l 450 699 l 743 699 l 737 662 l 836 317 l 1080 699 l 1237 699 l 723 -90 l 723 -88 l 627 -234 l 478 -234 l 732 155 l 612 558 z "},"":{"ha":1148,"x_min":159,"x_max":1175,"o":"m 425 558 l 327 0 l 186 0 l 284 558 l 159 558 l 184 699 l 309 699 l 355 960 l 496 960 l 450 699 l 1175 699 l 755 142 l 1070 142 l 1045 0 l 487 0 l 907 558 l 425 558 z "},"":{"ha":692,"x_min":123,"x_max":758,"o":"m 264 0 l 123 0 l 222 558 l 159 558 l 184 699 l 247 699 l 269 824 q 361 972 289 911 q 519 1032 435 1032 q 642 1003 561 1032 l 572 870 q 500 896 517 896 q 441 871 473 896 q 408 819 415 850 l 264 0 m 702 699 l 578 0 l 438 0 l 562 699 l 702 699 m 670 916 q 734 888 710 916 q 751 819 758 859 q 710 749 744 777 q 635 720 675 720 q 571 749 595 720 q 555 819 547 777 q 595 888 562 859 q 670 916 629 916 z "},"":{"ha":668,"x_min":123,"x_max":739,"o":"m 583 893 q 532 896 576 896 q 441 871 473 896 q 408 819 415 850 l 264 0 l 123 0 l 222 558 l 159 558 l 184 699 l 247 699 l 269 824 q 361 972 289 911 q 550 1032 435 1032 q 739 981 652 1032 l 566 0 l 426 0 l 583 893 z "},"ﬀ":{"ha":751,"x_min":123,"x_max":968,"o":"m 362 558 l 264 0 l 123 0 l 222 558 l 159 558 l 184 699 l 247 699 l 269 824 q 361 972 289 911 q 519 1032 435 1032 q 642 1003 561 1032 l 572 870 q 500 896 517 896 q 441 871 473 896 q 408 819 415 850 l 387 699 l 574 699 l 595 824 q 688 972 616 911 q 846 1032 762 1032 q 968 1003 888 1032 l 899 870 q 828 896 844 896 q 769 871 800 896 q 736 819 743 850 l 715 699 l 840 699 l 814 558 l 690 558 l 591 0 l 450 0 l 549 558 l 362 558 z "},"ﬁ":{"ha":692,"x_min":123,"x_max":758,"o":"m 670 916 q 734 888 710 916 q 751 819 758 859 q 710 749 744 777 q 635 720 675 720 q 571 749 595 720 q 555 819 547 777 q 595 888 562 859 q 670 916 629 916 m 536 558 l 362 558 l 264 0 l 123 0 l 222 558 l 159 558 l 184 699 l 247 699 l 269 824 q 361 972 289 911 q 519 1032 435 1032 q 642 1003 561 1032 l 572 870 q 500 896 517 896 q 441 871 473 896 q 408 819 415 850 l 387 699 l 702 699 l 578 0 l 438 0 l 536 558 z "},"ﬂ":{"ha":668,"x_min":123,"x_max":739,"o":"m 583 893 q 532 896 576 896 q 441 871 473 896 q 408 819 415 850 l 387 699 l 513 699 l 488 558 l 362 558 l 264 0 l 123 0 l 222 558 l 159 558 l 184 699 l 247 699 l 269 824 q 361 972 289 911 q 550 1032 435 1032 q 739 981 652 1032 l 566 0 l 426 0 l 583 893 z "},"ﬃ":{"ha":1019,"x_min":123,"x_max":1085,"o":"m 997 916 q 1061 888 1037 916 q 1078 819 1085 859 q 1037 749 1071 777 q 962 720 1002 720 q 898 749 922 720 q 882 819 874 777 q 922 888 888 859 q 997 916 956 916 m 362 558 l 264 0 l 123 0 l 222 558 l 159 558 l 184 699 l 247 699 l 269 824 q 361 972 289 911 q 519 1032 435 1032 q 642 1003 561 1032 l 572 870 q 500 896 517 896 q 441 871 473 896 q 408 819 415 850 l 387 699 l 574 699 l 595 824 q 688 972 616 911 q 846 1032 762 1032 q 968 1003 888 1032 l 899 870 q 828 896 844 896 q 769 871 800 896 q 736 819 743 850 l 715 699 l 1029 699 l 906 0 l 765 0 l 863 558 l 690 558 l 591 0 l 450 0 l 549 558 l 362 558 z "},"ﬄ":{"ha":995,"x_min":123,"x_max":1066,"o":"m 362 558 l 264 0 l 123 0 l 222 558 l 159 558 l 184 699 l 247 699 l 269 824 q 361 972 289 911 q 519 1032 435 1032 q 642 1003 561 1032 l 572 870 q 500 896 517 896 q 441 871 473 896 q 408 819 415 850 l 387 699 l 574 699 l 595 824 q 688 972 616 911 q 877 1032 762 1032 q 1066 981 979 1032 l 893 0 l 753 0 l 910 893 q 859 896 903 896 q 769 871 800 896 q 736 819 743 850 l 715 699 l 840 699 l 814 558 l 690 558 l 591 0 l 450 0 l 549 558 l 362 558 z "},"ﬅ":{"ha":677,"x_min":76,"x_max":767,"o":"m 477 558 l 351 558 l 376 699 l 502 699 l 536 893 q 484 896 528 896 q 394 871 425 896 q 361 819 368 850 l 216 0 l 76 0 l 174 558 l 112 558 l 137 699 l 199 699 l 221 824 q 313 972 241 911 q 503 1032 388 1032 q 692 981 604 1032 l 642 699 l 767 699 l 742 558 l 617 558 l 519 0 l 378 0 l 477 558 z "}}}
